# This file uses meters as units for non-parametric coordinates.

v -22.150421 199.999997 -23.441002
v -22.150421 149.999997 -23.441002
v -22.150421 99.999997 -23.441002
v -22.150421 49.999997 -23.441002
v -22.150421 -0.000003 -23.441002
v -27.849579 209.822995 -23.598198
v -22.150421 4.978581 -13.668854
v -22.150421 4.978581 13.826054
v -22.150421 45.021421 13.826054
v -22.150421 45.021421 -13.668854
v -22.150421 54.978574 -13.668854
v -22.150421 54.978574 13.826054
v -22.150421 95.021421 13.826054
v -22.150421 95.021421 -13.668854
v -22.150421 104.978574 -13.668854
v -22.150421 104.978574 13.826054
v -22.150421 145.021421 13.826054
v -22.150421 145.021421 -13.668854
v -22.150421 154.978574 -13.668854
v -22.150421 154.978574 13.826054
v -22.150421 195.021421 13.826054
v -22.150421 195.021421 -13.668854
v -17.399445 4.978581 -13.668854
v -17.399445 4.978581 13.826054
v -17.399445 45.021421 13.826054
v -17.399445 45.021421 -13.668854
v -17.399445 54.978574 -13.668854
v -17.399445 54.978574 13.826054
v -17.399445 95.021421 13.826054
v -17.399445 95.021421 -13.668854
v -17.399445 104.978574 -13.668854
v -17.399445 104.978574 13.826054
v -17.399445 145.021421 13.826054
v -17.399445 145.021421 -13.668854
v -17.399445 154.978574 -13.668854
v -17.399445 154.978574 13.826054
v -17.399445 195.021421 13.826054
v -17.399445 195.021421 -13.668854
v 27.849579 209.822995 -23.598198
v 27.849579 199.999997 -23.441002
v 27.849579 149.999997 -23.441002
v 27.849579 99.999997 -23.441002
v 27.849579 49.999997 -23.441002
v 27.849579 -0.000003 -23.441002
v -27.849579 209.822995 23.148609
v 27.849579 209.822995 23.148609
v 27.849579 -0.000003 23.598198
v -22.150421 -0.000003 23.598198
v -22.150421 199.999997 23.598198
v -22.150421 49.999997 23.598198
v -22.150421 99.999997 23.598198
v -22.150421 149.999997 23.598198
vt 0.010683 0.055092
vt 0.010683 0.055092
vt 0.049496 0.055092
vt 0.049496 0.055092
vt 0.049365 0.053258
vt 0.049365 0.053258
vt 0.049365 0.043920
vt 0.049365 0.043920
vt 0.049365 0.034582
vt 0.049365 0.034582
vt 0.049365 0.025244
vt 0.049365 0.025244
vt 0.049365 0.015906
vt 0.049365 0.015906
vt 0.010310 0.015906
vt 0.010310 0.015906
vt 0.446165 0.054752
vt 0.329311 0.054752
vt 0.329311 0.233162
vt 0.446165 0.233162
vt 0.446165 0.277525
vt 0.329311 0.277525
vt 0.329311 0.455935
vt 0.446165 0.455935
vt 0.446165 0.500299
vt 0.329311 0.500299
vt 0.329311 0.678709
vt 0.446165 0.678709
vt 0.446165 0.723072
vt 0.329311 0.723072
vt 0.329311 0.901482
vt 0.446165 0.901482
vt 0.010310 0.053258
vt 0.487697 0.923664
vt 0.287779 0.923664
vt 0.010310 0.043920
vt 0.289690 0.967430
vt 0.488365 0.967430
vt 0.487697 0.032570
vt 0.287779 0.032570
vt 0.010310 0.034582
vt 0.329311 0.054752
vt 0.446165 0.054752
vt 0.287779 0.255343
vt 0.329311 0.233162
vt 0.010310 0.025244
vt 0.487697 0.255343
vt 0.446165 0.233162
vt 0.329311 0.277525
vt 0.446165 0.277525
vt 0.287779 0.478117
vt 0.329311 0.455935
vt 0.487697 0.478117
vt 0.446165 0.455935
vt 0.329311 0.500299
vt 0.446165 0.500299
vt 0.287779 0.700890
vt 0.329311 0.678709
vt 0.487697 0.700890
vt 0.446165 0.678709
vt 0.329311 0.723072
vt 0.446165 0.723072
vt 0.329311 0.901482
vt 0.446165 0.901482
vn 0.000000 1.000000 0.000000
vn 0.000000 1.000000 0.000000
vn 0.000000 1.000000 0.000000
vn 0.000000 1.000000 0.000000
vn 0.000000 -0.003473 -0.999994
vn 0.000000 -0.002752 -0.999996
vn 0.000000 0.000000 -1.000000
vn 0.000000 0.000000 -1.000000
vn 0.000000 0.000000 -1.000000
vn 0.000000 0.000000 -1.000000
vn 0.000000 0.000000 -1.000000
vn 0.000000 0.000000 -1.000000
vn 0.000000 0.000000 -1.000000
vn 0.000000 0.000000 -1.000000
vn 0.000000 -1.000000 0.000000
vn 0.000000 -1.000000 0.000000
vn 0.000000 -1.000000 0.000000
vn 0.000000 -1.000000 0.000000
vn -1.000000 0.000000 0.000000
vn -1.000000 0.000000 0.000000
vn -1.000000 0.000000 0.000000
vn -1.000000 0.000000 0.000000
vn -1.000000 0.000000 0.000000
vn -1.000000 0.000000 0.000000
vn -1.000000 0.000000 0.000000
vn -1.000000 0.000000 0.000000
vn -1.000000 0.000000 0.000000
vn -1.000000 0.000000 0.000000
vn -1.000000 0.000000 0.000000
vn -1.000000 0.000000 0.000000
vn -1.000000 0.000000 0.000000
vn -1.000000 0.000000 0.000000
vn -1.000000 0.000000 0.000000
vn -1.000000 0.000000 0.000000
vn 0.000000 -0.016001 -0.999872
vn 0.000000 -0.016001 -0.999872
vn -0.950899 -0.309501 0.000000
vn -0.952266 -0.305271 0.000000
vn -0.864962 -0.501838 0.000000
vn -0.864961 -0.501838 0.000000
vn -1.000000 0.000000 0.000000
vn -1.000000 0.000000 0.000000
vn -1.000000 0.000000 0.000000
vn -1.000000 0.000000 0.000000
vn -1.000000 0.000000 0.000000
vn -1.000000 0.000000 0.000000
vn -1.000000 0.000000 0.000000
vn -1.000000 0.000000 0.000000
vn -1.000000 0.000000 0.000000
vn -1.000000 0.000000 0.000000
vn -1.000000 0.000000 0.000000
vn -1.000000 0.000000 0.000000
vn -1.000000 0.000000 0.000000
vn -1.000000 0.000000 0.000000
vn -1.000000 0.000000 0.000000
vn -1.000000 0.000000 0.000000
vn -1.000000 0.000000 0.000000
vn -1.000000 0.000000 0.000000
vn -1.000000 0.000000 0.000000
vn -1.000000 0.000000 0.000000
vn -1.000000 0.000000 0.000000
vn -1.000000 0.000000 0.000000
vn -1.000000 0.000000 0.000000
vn -1.000000 0.000000 0.000000
vn 0.000000 1.000000 0.000000
vn 0.000000 1.000000 0.000000
vn 0.000000 1.000000 0.000000
vn 0.000000 1.000000 0.000000
vn 0.000000 0.000000 -1.000000
vn 0.000000 0.000000 -1.000000
vn 0.000000 0.000000 -1.000000
vn 0.000000 0.000000 -1.000000
vn 0.000000 -1.000000 0.000000
vn 0.000000 -1.000000 0.000000
vn 0.000000 -1.000000 0.000000
vn 0.000000 -1.000000 0.000000
vn 0.000000 0.000000 1.000000
vn 0.000000 0.000000 1.000000
vn 0.000000 0.000000 1.000000
vn 0.000000 0.000000 1.000000
vn 0.000000 1.000000 0.000000
vn 0.000000 1.000000 0.000000
vn 0.000000 1.000000 0.000000
vn 0.000000 1.000000 0.000000
vn 0.000000 0.000000 -1.000000
vn 0.000000 0.000000 -1.000000
vn 0.000000 0.000000 -1.000000
vn 0.000000 0.000000 -1.000000
vn 0.000000 -1.000000 0.000000
vn 0.000000 -1.000000 0.000000
vn 0.000000 -1.000000 0.000000
vn 0.000000 -1.000000 0.000000
vn 0.000000 0.000000 1.000000
vn 0.000000 0.000000 1.000000
vn 0.000000 0.000000 1.000000
vn 0.000000 0.000000 1.000000
vn 0.000000 1.000000 0.000000
vn 0.000000 1.000000 0.000000
vn 0.000000 1.000000 0.000000
vn 0.000000 1.000000 0.000000
vn 0.000000 0.000000 -1.000000
vn 0.000000 0.000000 -1.000000
vn 0.000000 0.000000 -1.000000
vn 0.000000 0.000000 -1.000000
vn 0.000000 -1.000000 0.000000
vn 0.000000 -1.000000 0.000000
vn 0.000000 -1.000000 0.000000
vn 0.000000 -1.000000 0.000000
vn 0.000000 0.000000 1.000000
vn 0.000000 0.000000 1.000000
vn 0.000000 0.000000 1.000000
vn 0.000000 0.000000 1.000000
vn 0.000000 1.000000 0.000000
vn 0.000000 1.000000 0.000000
vn 0.000000 1.000000 0.000000
vn 0.000000 1.000000 0.000000
vn 0.000000 0.000000 -1.000000
vn 0.000000 0.000000 -1.000000
vn 0.000000 0.000000 -1.000000
vn 0.000000 0.000000 -1.000000
vn 0.000000 -1.000000 0.000000
vn 0.000000 -1.000000 0.000000
vn 0.000000 -1.000000 0.000000
vn 0.000000 -1.000000 0.000000
vn 0.000000 0.000000 1.000000
vn 0.000000 0.000000 1.000000
vn 0.000000 0.000000 1.000000
vn 0.000000 0.000000 1.000000
vn 1.000000 0.000000 0.000000
vn 1.000000 0.000000 0.000000
vn 1.000000 0.000000 0.000000
vn 1.000000 0.000000 0.000000
vn 1.000000 0.000000 0.000000
vn 1.000000 0.000000 0.000000
vn 1.000000 0.000000 0.000000
vn 1.000000 0.000000 0.000000
vn 0.004274 0.002259 0.999988
vn 0.004274 0.002259 0.999988
vn 0.004274 0.002259 0.999988
vn 0.004274 0.002259 0.999988
vn 0.004274 0.002259 0.999988
vn 0.004274 0.002259 0.999988
vn 0.004274 0.002259 0.999988
vn 0.004274 0.002259 0.999988
s off
f 45/1/1 46/2/2 39/3/3 6/4/4
s 1
f 1/5/5 40/6/6 41/7/7 2/8/8
f 2/8/8 41/7/7 42/9/9 3/10/10
f 3/10/10 42/9/9 43/11/11 4/12/12
f 4/12/12 43/11/11 44/13/13 5/14/14
s off
f 5/14/15 44/13/16 47/15/17 48/16/18
f 23/17/19 24/18/20 25/19/21 26/20/22
f 27/21/23 28/22/24 29/23/25 30/24/26
f 31/25/27 32/26/28 33/27/29 34/28/30
f 35/29/31 36/30/32 37/31/33 38/32/34
s 1
f 40/6/6 1/5/5 6/4/35 39/3/36
s 2
f 1/34/37 49/35/38 45/37/39 6/38/40
f 5/39/41 48/40/42 8/42/43 7/43/44
f 48/40/42 50/44/45 9/45/46 8/42/43
f 50/44/45 4/47/47 10/48/48 9/45/46
f 4/47/47 5/39/41 7/43/44 10/48/48
f 4/47/47 50/44/45 12/49/49 11/50/50
f 50/44/45 51/51/51 13/52/52 12/49/49
f 51/51/51 3/53/53 14/54/54 13/52/52
f 3/53/53 4/47/47 11/50/50 14/54/54
f 3/53/53 51/51/51 16/55/55 15/56/56
f 51/51/51 52/57/57 17/58/58 16/55/55
f 52/57/57 2/59/59 18/60/60 17/58/58
f 2/59/59 3/53/53 15/56/56 18/60/60
f 2/59/59 52/57/57 20/61/61 19/62/62
f 52/57/57 49/35/38 21/63/63 20/61/61
f 49/35/38 1/34/37 22/64/64 21/63/63
f 1/34/37 2/59/59 19/62/62 22/64/64
s off
f 7/43/65 8/42/66 24/18/67 23/17/68
f 8/42/69 9/45/70 25/19/71 24/18/72
f 9/45/73 10/48/74 26/20/75 25/19/76
f 10/48/77 7/43/78 23/17/79 26/20/80
f 11/50/81 12/49/82 28/22/83 27/21/84
f 12/49/85 13/52/86 29/23/87 28/22/88
f 13/52/89 14/54/90 30/24/91 29/23/92
f 14/54/93 11/50/94 27/21/95 30/24/96
f 15/56/97 16/55/98 32/26/99 31/25/100
f 16/55/101 17/58/102 33/27/103 32/26/104
f 17/58/105 18/60/106 34/28/107 33/27/108
f 18/60/109 15/56/110 31/25/111 34/28/112
f 19/62/113 20/61/114 36/30/115 35/29/116
f 20/61/117 21/63/118 37/31/119 36/30/120
f 21/63/121 22/64/122 38/32/123 37/31/124
f 22/64/125 19/62/126 35/29/127 38/32/128
f 39/3/129 46/2/130 47/15/131 44/13/132 43/11/133 42/9/134 41/7/135 40/6/136
f 46/2/137 45/1/138 49/33/139 52/36/140 51/41/141 50/46/142 48/16/143 47/15/144
