# This file uses meters as units for non-parametric coordinates.

v -12.791199 14.319838 26.480400
v 12.791199 14.319838 26.480400
v 12.791199 50.430434 26.480400
v -12.791199 50.430434 26.480400
v -12.791199 64.319838 26.480400
v 12.791199 64.319838 26.480400
v 12.791199 100.430434 26.480400
v -12.791199 100.430434 26.480400
v -12.791199 14.319838 21.171570
v 12.791199 14.319838 21.171570
v 12.791199 50.430434 21.171570
v -12.791199 50.430434 21.171570
v -12.791199 64.319838 21.171570
v 12.791199 64.319838 21.171570
v 12.791199 100.430434 21.171570
v -12.791199 100.430434 21.171570
v -24.999985 7.375136 -26.480400
v -24.999985 57.375136 -26.480400
v -24.999985 107.375136 -26.480400
v -25.000000 12.353713 -15.478073
v -25.000000 52.396560 -15.478073
v -25.000000 12.353713 15.478073
v -25.000000 52.396560 15.478073
v -25.000000 62.353713 -15.478073
v -25.000000 102.396560 -15.478073
v -25.000000 62.353713 15.478073
v -25.000000 102.396560 15.478073
v -20.249023 12.353713 -15.478073
v -20.249023 52.396560 -15.478073
v -20.249023 12.353713 15.478073
v -20.249023 52.396560 15.478073
v -20.249023 62.353713 -15.478073
v -20.249023 102.396560 -15.478073
v -20.249023 62.353713 15.478073
v -20.249023 102.396560 15.478073
v 25.000000 107.700179 -26.480400
v 25.000000 7.375136 -26.480400
v 25.000000 7.375136 26.480400
v 25.000000 57.375136 26.480400
v 25.000000 107.375136 26.480400
v 25.000000 57.537658 -26.480400
v 25.000000 -0.335298 -26.480400
v -24.999985 -0.335298 -26.480400
v 25.000000 -0.335298 26.480400
v -25.000000 -0.335298 26.480400
v -25.000000 3.520308 26.480400
v -21.145172 7.375136 26.480400
v -19.548447 10.476134 26.480400
v -25.000000 9.841979 21.028847
v -25.000000 7.375136 22.625568
v -19.548447 57.375136 26.480400
v -25.000000 57.375136 21.028843
v -25.000000 104.908294 21.028847
v -19.548447 104.274138 26.480400
v -20.346802 107.375136 26.480400
v -25.000000 107.375136 21.827206
vt 0.622962 0.144153
vt 0.870466 0.144153
vt 0.870466 0.472614
vt 0.622962 0.472614
vt 0.622962 0.598952
vt 0.870466 0.598952
vt 0.870466 0.927413
vt 0.622962 0.927413
vt 0.021754 0.022712
vt 0.021754 0.022712
vt 0.988584 0.080985
vt 0.988584 0.535783
vt 0.019558 0.022712
vt 0.870466 0.472614
vt 0.870466 0.144153
vt 0.019558 0.022712
vt 0.988584 0.990582
vt 0.870466 0.927413
vt 0.870466 0.598952
vt 0.549863 0.990582
vt 0.557587 0.962375
vt 0.019558 0.023885
vt 0.021754 0.023888
vt 0.021754 0.024908
vt 0.019558 0.024901
vt 0.151771 0.490553
vt 0.151771 0.128272
vt 0.405419 0.128272
vt 0.405419 0.490553
vt 0.151771 0.942919
vt 0.151771 0.580638
vt 0.405419 0.580638
vt 0.405419 0.942919
vt 0.021754 0.022869
vt 0.019558 0.022869
vt 0.061620 0.535595
vt 0.061620 0.083229
vt 0.151771 0.128272
vt 0.151771 0.490553
vt 0.463984 0.083229
vt 0.021754 0.022869
vt 0.450901 0.105548
vt 0.405419 0.128272
vt 0.061620 0.987962
vt 0.151771 0.580638
vt 0.151771 0.942919
vt 0.021754 0.023885
vt 0.021754 0.024901
vt 0.019751 0.024901
vt 0.019558 0.024901
vt 0.622962 0.927413
vt 0.622962 0.144153
vt 0.622962 0.472614
vt 0.405419 0.490553
vt 0.622962 0.598952
vt 0.405419 0.580638
vt 0.405419 0.942919
vt 0.495570 0.048353
vt 0.061620 0.013471
vt 0.495570 0.013471
vt 0.450901 0.965643
vt 0.457443 0.987962
vt 0.495570 0.111285
vt 0.495570 0.535595
vt 0.450901 0.535595
vt 0.495570 0.959906
vt 0.495570 0.083229
vt 0.495570 0.987962
vt 0.542139 0.080985
vt 0.504844 0.045921
vt 0.504844 0.010851
vt 0.988584 0.010851
vt 0.557587 0.109191
vt 0.557587 0.535783
vn 0.000000 0.000000 1.000000
vn 0.000000 0.000000 1.000000
vn 0.000000 0.000000 1.000000
vn 0.000000 0.000000 1.000000
vn 0.000000 0.000000 1.000000
vn 0.000000 0.000000 1.000000
vn 0.000000 0.000000 1.000000
vn 0.000000 0.000000 1.000000
vn 0.000000 0.000000 1.000000
vn 0.000000 0.000000 1.000000
vn 0.000000 0.000000 1.000000
vn 0.000000 0.000000 1.000000
vn 0.000000 0.000000 1.000000
vn 0.000000 0.000000 1.000000
vn 0.000000 0.000000 1.000000
vn 0.000000 0.000000 1.000000
vn 0.000000 0.000000 1.000000
vn 0.000000 0.000000 1.000000
vn 0.000000 1.000000 0.000000
vn 0.000000 1.000000 0.000000
vn 0.000000 1.000000 0.000000
vn 0.000000 1.000000 0.000000
vn -1.000000 0.000000 0.000000
vn -1.000000 0.000000 0.000000
vn -1.000000 0.000000 0.000000
vn -1.000000 0.000000 0.000000
vn 0.000000 -1.000000 0.000000
vn 0.000000 -1.000000 0.000000
vn 0.000000 -1.000000 0.000000
vn 0.000000 -1.000000 0.000000
vn 1.000000 0.000000 0.000000
vn 1.000000 0.000000 0.000000
vn 1.000000 0.000000 0.000000
vn 1.000000 0.000000 0.000000
vn 0.000000 1.000000 0.000000
vn 0.000000 1.000000 0.000000
vn 0.000000 1.000000 0.000000
vn 0.000000 1.000000 0.000000
vn -1.000000 0.000000 0.000000
vn -1.000000 0.000000 0.000000
vn -1.000000 0.000000 0.000000
vn -1.000000 0.000000 0.000000
vn 0.000000 -1.000000 0.000000
vn 0.000000 -1.000000 0.000000
vn 0.000000 -1.000000 0.000000
vn 0.000000 -1.000000 0.000000
vn 1.000000 0.000000 0.000000
vn 1.000000 0.000000 0.000000
vn 1.000000 0.000000 0.000000
vn 1.000000 0.000000 0.000000
vn 0.000000 -1.000000 0.000000
vn 0.000000 -1.000000 0.000000
vn 0.000000 -1.000000 0.000000
vn 0.000000 -1.000000 0.000000
vn -1.000000 0.000000 0.000000
vn -1.000000 0.000000 0.000000
vn -1.000000 0.000000 0.000000
vn -1.000000 0.000000 0.000000
vn -1.000000 0.000000 0.000000
vn -1.000000 0.000000 0.000000
vn -1.000000 0.000000 0.000000
vn -1.000000 0.000000 0.000000
vn -1.000000 -0.000000 -0.000001
vn -1.000000 -0.000001 -0.000001
vn -1.000000 -0.000001 -0.000001
vn -1.000000 0.000001 -0.000001
vn -1.000000 -0.000002 -0.000000
vn -1.000000 -0.000002 -0.000000
vn -1.000000 -0.000002 -0.000000
vn -1.000000 0.000000 -0.000001
vn -1.000000 -0.000001 -0.000001
vn -1.000000 0.000001 -0.000001
vn 0.000000 0.000000 1.000000
vn 0.000000 0.000000 1.000000
vn 0.000000 0.000000 1.000000
vn 0.000000 0.000000 1.000000
vn 0.000000 1.000000 0.000000
vn 0.000000 1.000000 0.000000
vn 0.000000 1.000000 0.000000
vn 0.000000 1.000000 0.000000
vn 0.000000 0.000000 -1.000000
vn 0.000000 0.000000 -1.000000
vn 0.000000 0.000000 -1.000000
vn 0.000000 0.000000 -1.000000
vn 0.000000 -1.000000 0.000000
vn 0.000000 -1.000000 0.000000
vn 0.000000 -1.000000 0.000000
vn 0.000000 -1.000000 0.000000
vn 0.000000 0.000000 1.000000
vn 0.000000 0.000000 1.000000
vn 0.000000 0.000000 1.000000
vn 0.000000 0.000000 1.000000
vn 0.000000 1.000000 0.000000
vn 0.000000 1.000000 0.000000
vn 0.000000 1.000000 0.000000
vn 0.000000 1.000000 0.000000
vn 0.000000 0.000000 -1.000000
vn 0.000000 0.000000 -1.000000
vn 0.000000 0.000000 -1.000000
vn 0.000000 0.000000 -1.000000
vn 0.000000 -1.000000 0.000000
vn 0.000000 -1.000000 0.000000
vn 0.000000 -1.000000 0.000000
vn 0.000000 -1.000000 0.000000
vn 1.000000 0.000000 0.000000
vn 1.000000 0.000000 0.000000
vn 1.000000 0.000000 0.000000
vn 1.000000 0.000000 0.000000
vn 1.000000 0.000000 0.000000
vn 1.000000 0.000000 0.000000
vn 0.000000 0.000000 -1.000000
vn 0.000000 0.000000 -1.000000
vn 0.000000 0.000000 -1.000000
vn 0.000000 0.000000 -1.000000
vn 0.000000 0.000000 -1.000000
vn 0.000000 0.000000 -1.000000
vn 0.000000 0.000000 -1.000000
vn 0.000000 0.000000 -1.000000
vn -0.003264 0.999990 0.003081
vn -0.003264 0.999990 0.003081
vn -0.003264 0.999990 0.003081
vn -0.003264 0.999990 0.003081
vn -0.003264 0.999990 0.003081
vn 0.000000 0.000000 -1.000000
vn 0.000000 0.000000 -1.000000
vn 1.000000 0.000000 0.000000
vn 1.000000 0.000000 0.000000
vn 0.000000 0.000000 1.000000
vn 0.000000 0.000000 1.000000
vn 0.000000 0.000000 1.000000
vn 0.000000 0.000000 1.000000
vn -1.000000 -0.000001 -0.000000
vn -1.000000 -0.000001 -0.000000
vn -1.000000 -0.000001 -0.000000
vn 0.000000 0.000000 1.000000
vn 0.000000 0.000000 1.000000
vn -1.000000 0.000001 -0.000000
vn -1.000000 0.000002 -0.000000
vn -1.000000 0.000001 -0.000000
vn -0.707107 0.000000 0.707107
vn -0.707107 0.000000 0.707107
vn -0.707107 0.000000 0.707107
vn -0.707107 0.000000 0.707107
vn -0.707107 -0.000000 0.707107
vn -0.707107 -0.000000 0.707107
vn 0.000000 0.000000 1.000000
vn 0.000000 0.000000 1.000000
vn 0.000000 0.000000 1.000000
vn -1.000000 -0.000000 -0.000000
vn -1.000000 0.000001 -0.000000
vn -1.000000 -0.000002 -0.000000
vn -0.636284 0.458156 0.620673
vn -0.636284 0.458156 0.620673
vn -0.636284 0.458156 0.620673
vn -0.636284 0.458156 0.620673
vn -0.636284 0.458156 0.620673
vn -0.699211 -0.198728 0.686739
vn -0.699211 -0.198728 0.686739
vn -0.699211 -0.198728 0.686739
vn -0.699211 -0.198728 0.686739
vn -0.636284 0.458156 0.620674
vn -0.636284 0.458156 0.620674
vn -0.636284 0.458156 0.620674
vn -0.636284 0.458156 0.620674
vn -0.636284 0.458156 0.620674
vn -0.699211 -0.198729 0.686739
vn -0.699211 -0.198729 0.686739
vn -0.699211 -0.198729 0.686739
vn -0.699211 -0.198729 0.686739
s off
f 9/1/1 10/2/2 11/3/3 12/4/4
f 13/5/5 14/6/6 15/7/7 16/8/8
s 1
f 38/11/9 39/12/10 3/14/11 2/15/12
f 39/12/10 40/17/13 7/18/14 6/19/15
f 40/17/13 55/20/16 54/21/17 8/51/18 7/18/14
s off
f 1/52/19 2/15/20 10/2/21 9/1/22
f 2/15/23 3/14/24 11/3/25 10/2/26
f 3/14/27 4/53/28 12/4/29 11/3/30
f 4/53/31 1/52/32 9/1/33 12/4/34
f 5/55/35 6/19/36 14/6/37 13/5/38
f 6/19/39 7/18/40 15/7/41 14/6/42
f 7/18/43 8/51/44 16/8/45 15/7/46
f 8/51/47 5/55/48 13/5/49 16/8/50
f 43/9/51 42/10/52 44/13/53 45/16/54
f 29/26/55 28/27/56 30/28/57 31/29/58
f 33/30/59 32/31/60 34/32/61 35/33/62
s 3
f 18/36/63 17/37/64 20/38/65 21/39/66
f 17/37/64 50/40/67 49/42/68 22/43/69 20/38/65
f 19/44/70 18/36/63 24/45/71 25/46/72
s off
f 21/39/73 20/38/74 28/27/75 29/26/76
f 20/38/77 22/43/78 30/28/79 28/27/80
f 22/43/81 23/54/82 31/29/83 30/28/84
f 23/54/85 21/39/86 29/26/87 31/29/88
f 25/46/89 24/45/90 32/31/91 33/30/92
f 24/45/93 26/56/94 34/32/95 32/31/96
f 26/56/97 27/57/98 35/33/99 34/32/100
f 27/57/101 25/46/102 33/30/103 35/33/104
s 5
f 39/22/105 41/23/106 36/24/107 40/25/108
f 37/34/109 41/23/106 39/22/105 38/35/110
s 6
f 17/41/111 18/47/112 41/23/113 37/34/114
s off
f 18/47/115 19/48/116 36/24/117 41/23/118
f 19/48/119 56/49/120 55/50/121 40/25/122 36/24/123
s 6
f 17/41/111 37/34/114 42/10/124 43/9/125
s 5
f 37/34/109 38/35/110 44/13/126 42/10/127
s 1
f 38/11/9 47/69/128 46/70/129 45/71/130 44/72/131
s 3
f 46/58/132 50/40/67 17/37/64 43/59/133 45/60/134
s 1
f 48/73/135 47/69/128 38/11/9 2/15/12 1/52/136
s 3
f 53/61/137 56/62/138 19/44/70 25/46/72 27/57/139
s 7
f 49/42/140 48/63/141 51/64/142 52/65/143
f 52/65/143 51/64/142 54/66/144 53/61/145
s 1
f 39/12/10 51/74/146 4/53/147 3/14/11
f 51/74/146 48/73/135 1/52/136 4/53/147
f 51/74/146 39/12/10 6/19/15 5/55/148
f 54/21/17 51/74/146 5/55/148 8/51/18
s 3
f 49/42/68 52/65/149 23/54/150 22/43/69
f 52/65/149 18/36/63 21/39/66 23/54/150
f 18/36/63 52/65/149 26/56/151 24/45/71
f 52/65/149 53/61/137 27/57/139 26/56/151
s off
f 46/58/152 47/67/153 48/63/154 49/42/155 50/40/156
f 53/61/157 54/66/158 55/68/159 56/62/160
f 49/42/161 50/40/162 46/58/163 47/67/164 48/63/165
f 54/66/166 55/68/167 56/62/168 53/61/169
