# This file uses meters as units for non-parametric coordinates.

v -75.000000 -0.000004 25.788078
v -25.000000 -0.000004 25.788078
v 25.000000 -0.000004 74.211922
v 75.000000 -0.000004 25.788078
v -75.000000 107.933347 25.788078
v -25.000000 107.933347 25.788078
v 75.000000 107.933347 25.788078
v -75.000000 107.933347 -74.211922
v -25.000000 107.933347 -74.211922
v 25.000000 107.933347 -74.211922
v 75.000000 107.933347 -74.211922
v -75.000000 -0.000004 -74.211922
v -25.000000 -0.000004 -74.211922
v 25.000000 -0.000004 -74.211922
v 75.000000 -0.000004 -74.211922
v -12.791199 45.938334 37.612022
v 12.791199 45.938334 62.387978
v 12.791199 92.942081 62.387978
v -12.791199 92.942081 37.612022
v 37.208801 45.938334 62.387978
v 62.791199 45.938334 37.612022
v 62.791199 92.942081 37.612022
v 37.208801 92.942081 62.387978
v -9.097870 45.938334 33.798485
v 16.484528 45.938334 58.574440
v 16.484528 92.942081 58.574440
v -9.097870 92.942081 33.798485
v 33.515472 45.938334 58.574440
v 59.097870 45.938334 33.798485
v 59.097870 92.942081 33.798485
v 33.515472 92.942081 58.574440
v 75.000000 107.933347 -27.172722
v 75.000000 -0.000004 -27.172722
v 25.000000 -0.000004 -4.394535
v -25.000000 -0.000004 -27.172722
v -75.000000 -0.000004 -27.172722
v -75.000000 10.793330 25.788078
v -75.000000 21.586664 25.788078
v -75.000000 32.379999 25.788078
v -25.000000 10.793330 25.788078
v -25.000000 21.586664 25.788078
v -25.000000 32.379999 25.788078
v -25.000000 21.586664 43.288078
v -75.000000 21.586664 43.288078
v -75.000000 10.793330 43.288078
v -25.000000 10.793330 43.288078
v -75.000000 -0.000004 43.288078
v -25.000000 -0.000004 43.288078
v -75.000000 32.379999 43.288078
v -25.000000 32.379999 43.288078
v -25.000000 21.586664 60.288078
v -75.000000 21.586664 60.288078
v -75.000000 10.793330 60.288078
v -25.000000 10.793330 60.288078
v -75.000000 -0.000004 60.288078
v -25.000000 -0.000004 60.288078
v -75.000000 10.793330 77.788078
v -25.000000 10.793330 77.788078
v -75.000000 -0.000004 77.788078
v -25.000000 -0.000004 77.788078
v -70.000000 32.379999 25.788078
v -70.000000 107.933347 25.788078
v -29.500000 32.379999 25.788078
v -29.500000 107.933347 25.788078
v -75.000000 102.361767 25.788078
v -70.000000 102.361767 25.788078
v -29.500000 102.361767 25.788078
v -25.000000 102.361767 25.788078
v -65.950012 32.379999 25.788078
v -65.950012 102.361767 25.788078
v -33.144989 102.361767 25.788078
v -33.144989 32.379999 25.788078
v -70.000000 97.911106 25.788078
v -65.950012 97.911106 25.788078
v -33.144989 97.911114 25.788078
v -29.500000 97.911106 25.788078
v -70.000000 97.911106 27.845562
v -65.950012 97.911106 27.845562
v -65.950012 102.361767 27.845562
v -70.000000 102.361767 27.845562
v -33.144989 102.361767 27.845562
v -29.500000 102.361767 27.845562
v -33.144989 97.911114 27.845562
v -29.500000 97.911106 27.845562
v -65.950012 32.379999 27.845562
v -70.000000 32.379999 27.845562
v -33.144989 32.379999 27.845562
v -29.500000 32.379999 27.845562
v -65.950012 91.358021 25.788078
v -33.144989 91.358021 25.788078
v -65.950012 73.664584 25.788078
v -33.144989 73.664601 25.788078
v -58.080444 91.358021 25.788078
v -41.014557 91.358021 25.788078
v -58.080444 73.664584 25.788078
v -41.014557 73.664601 25.788078
v -58.080444 91.358021 24.047440
v -58.080444 73.664584 24.047440
v -41.014557 73.664601 24.047440
v -41.014557 91.358021 24.047440
v -25.000000 38.899873 25.788078
v 75.000000 38.899873 25.788078
v 40.000000 -0.000004 59.684769
v 39.999969 38.899873 59.684769
v 60.999969 38.899873 39.346756
v 61.000000 -0.000004 39.346756
v 40.000000 15.559947 59.684776
v 61.000000 15.559947 39.346756
v 38.384888 15.559947 58.017113
v 59.384888 15.559947 37.679085
v 38.384888 -0.000004 58.017105
v 59.384888 -0.000004 37.679085
v -10.000000 38.899873 40.315231
v -10.000000 -0.000004 40.315231
v 10.999969 38.899873 60.653252
v 11.000000 -0.000004 60.653252
v -10.000000 15.559947 40.315231
v 11.000000 15.559947 60.653252
v -7.282593 15.559947 37.509388
v 13.717377 15.559947 57.847366
v -7.282623 -0.000004 37.509388
v 13.717377 -0.000004 57.847366
v 31.103790 100.438488 68.300552
v 29.384583 107.933347 69.965553
v 20.822540 107.933347 70.126503
v 18.896210 100.438488 68.300545
v 19.755798 38.899873 69.133057
v 24.999969 32.796096 74.211922
v 31.103760 38.899873 68.300552
v 31.103760 42.418741 68.300552
v 19.755798 42.418758 69.133041
vt 0.368840 0.665425
vt 0.538578 0.665425
vt 0.538578 0.905746
vt 0.368840 0.905746
vt 0.720315 0.667894
vt 0.902341 0.667894
vt 0.902341 0.901677
vt 0.720315 0.901677
vt 0.025022 0.031569
vt 0.025022 0.031569
vt 0.025022 0.008292
vt 0.025022 0.008292
vt 0.025022 0.031569
vt 0.025022 0.008292
vt 0.025022 0.031569
vt 0.025022 0.008292
vt 0.017819 0.008292
vt 0.017819 0.008292
vt 0.014331 0.008292
vt 0.017819 0.008292
vt 0.017819 0.031569
vt 0.009709 0.008292
vt 0.288240 0.629439
vt 0.387765 0.629439
vt 0.527099 0.629439
vt 0.586095 0.628537
vt 0.586095 0.646529
vt 0.538983 0.665425
vt 0.369245 0.665425
vt 0.579490 0.944074
vt 0.009709 0.031569
vt 0.009709 0.016681
vt 0.007633 0.008292
vt 0.007888 0.008292
vt 0.538983 0.905746
vt 0.288240 0.982394
vt 0.288240 0.953907
vt 0.369245 0.905746
vt 0.988775 0.632886
vt 0.988775 0.976239
vt 0.901906 0.901677
vt 0.901906 0.667894
vt 0.664209 0.976239
vt 0.676442 0.938962
vt 0.719881 0.901677
vt 0.676442 0.650388
vt 0.719881 0.667894
vt 0.254474 0.375916
vt 0.034695 0.375916
vt 0.034695 0.328835
vt 0.254474 0.328835
vt 0.254474 0.245762
vt 0.034695 0.245762
vt 0.034695 0.198681
vt 0.254474 0.198681
vt 0.018069 0.984419
vt 0.018069 0.955584
vt 0.044145 0.955584
vt 0.044145 0.984419
vt 0.258468 0.504473
vt 0.038689 0.504473
vt 0.038689 0.457392
vt 0.258468 0.457392
vt 0.985371 0.351120
vt 0.985371 0.288623
vt 0.895154 0.288623
vt 0.278828 0.481682
vt 0.278828 0.537542
vt 0.679703 0.081279
vt 0.034695 0.198681
vt 0.034695 0.198681
vt 0.679703 0.146246
vt 0.254474 0.198681
vt 0.254474 0.198681
vt 0.278828 0.593401
vt 0.255360 0.593401
vt 0.236350 0.593401
vt 0.065267 0.593401
vt 0.044145 0.593401
vt 0.018069 0.593401
vt 0.034695 0.198681
vt 0.254474 0.198681
vt 0.065267 0.955584
vt 0.236350 0.955584
vt 0.255360 0.955584
vt 0.255360 0.984419
vt 0.278828 0.955584
vt 0.278828 0.984419
vt 0.044145 0.932550
vt 0.044145 0.932550
vt 0.065267 0.932550
vt 0.065267 0.955584
vt 0.044145 0.955584
vt 0.255360 0.932550
vt 0.278828 0.627144
vt 0.255360 0.955584
vt 0.236350 0.955584
vt 0.236350 0.932550
vt 0.255360 0.932550
vt 0.065267 0.593401
vt 0.004774 0.008292
vt 0.044145 0.593401
vt 0.065267 0.898635
vt 0.004518 0.008292
vt 0.106308 0.898635
vt 0.195309 0.898635
vt 0.236350 0.898635
vt 0.236350 0.932550
vt 0.065267 0.932550
vt 0.236350 0.593401
vt 0.002294 0.008292
vt 0.004370 0.008292
vt 0.255360 0.593401
vt 0.065267 0.807065
vt 0.004800 0.008292
vt 0.007914 0.008292
vt 0.236350 0.807065
vt 0.106308 0.898635
vt 0.106308 0.807065
vt 0.781998 0.146246
vt 0.781998 0.081279
vt 0.633012 0.439410
vt 0.007484 0.008292
vt 0.009709 0.008292
vt 0.739741 0.439410
vt 0.009709 0.008292
vt 0.009709 0.010620
vt 0.739741 0.516800
vt 0.739741 0.632886
vt 0.676442 0.632886
vt 0.633012 0.602528
vt 0.889161 0.516800
vt 0.889161 0.632886
vt 0.889161 0.439410
vt 0.988775 0.439410
vt 0.889351 0.516800
vt 0.739931 0.516800
vt 0.739931 0.439410
vt 0.889351 0.439410
vt 0.679703 0.016312
vt 0.781998 0.016312
vt 0.679703 0.211213
vt 0.781998 0.211213
vt 0.881370 0.146246
vt 0.881370 0.081279
vt 0.881370 0.016312
vt 0.009709 0.012948
vt 0.009709 0.015275
vt 0.009709 0.030367
vt 0.009709 0.031569
vt 0.009709 0.031569
vt 0.009709 0.031569
vt 0.009709 0.031569
vt 0.002919 0.031569
vt 0.002944 0.031569
vt 0.195309 0.807065
vt 0.195309 0.898635
vt 0.195309 0.807065
vt 0.106308 0.807065
vt 0.983665 0.081279
vt 0.983665 0.016312
vt 0.527099 0.510106
vt 0.527099 0.430551
vt 0.619988 0.430551
vt 0.620889 0.597330
vt 0.288240 0.430551
vt 0.387765 0.430551
vt 0.387765 0.510106
vt 0.526801 0.510106
vt 0.387467 0.510106
vt 0.387467 0.430551
vt 0.526801 0.430551
vt 0.592137 0.982394
vt 0.620637 0.944074
vt 0.621538 0.646529
vt 0.620454 0.982394
vt 0.621989 0.628087
vt 0.278828 0.425822
vt 0.895154 0.351120
vt 0.985371 0.226126
vt 0.895154 0.226126
vt 0.985371 0.413617
vt 0.895154 0.413617
vt 0.807515 0.288623
vt 0.807515 0.351120
vt 0.807515 0.226126
vt 0.717298 0.226126
vt 0.717298 0.288623
vt 0.245069 0.583592
vt 0.227792 0.583592
vt 0.213797 0.583592
vt 0.087849 0.583592
vt 0.072299 0.583592
vt 0.053103 0.583592
vt 0.053103 0.516758
vt 0.245069 0.516758
vt 0.243471 0.448861
vt 0.051505 0.448861
vt 0.051505 0.383936
vt 0.243471 0.383936
vt 0.241874 0.319235
vt 0.049908 0.319235
vt 0.049908 0.252401
vt 0.241874 0.252401
vn -0.695694 0.000000 0.718338
vn -0.695694 0.000000 0.718338
vn -0.695694 0.000000 0.718338
vn -0.695694 0.000000 0.718338
vn 0.695694 0.000000 0.718338
vn 0.695694 0.000000 0.718338
vn 0.695694 0.000000 0.718338
vn 0.695694 0.000000 0.718338
vn 0.000000 0.000000 -1.000000
vn 0.000000 0.000000 -1.000000
vn 0.000000 0.000000 -1.000000
vn 0.000000 0.000000 -1.000000
vn 0.000000 0.000000 -1.000000
vn 0.000000 0.000000 -1.000000
vn 0.000000 0.000000 -1.000000
vn 0.000000 0.000000 -1.000000
vn 0.000000 -1.000000 0.000000
vn 0.000000 -1.000000 0.000000
vn 0.000000 -1.000000 0.000000
vn 0.000000 -1.000000 0.000000
vn 0.000000 -1.000000 0.000000
vn 0.000000 -1.000000 0.000000
vn 0.000000 -1.000000 0.000000
vn 0.000000 -1.000000 0.000000
vn 1.000000 0.000000 0.000000
vn 1.000000 0.000000 0.000000
vn 1.000000 0.000000 0.000000
vn 1.000000 0.000000 0.000000
vn -0.695694 0.000000 0.718338
vn -0.695694 0.000000 0.718338
vn -0.695694 0.000000 0.718338
vn -0.695694 -0.000000 0.718338
vn -0.695695 0.000001 0.718338
vn -0.695695 0.000001 0.718338
vn -0.695694 0.000001 0.718338
vn -0.695617 0.000877 0.718413
vn -0.695625 0.000786 0.718405
vn -0.695674 0.000231 0.718358
vn -0.695694 0.000000 0.718338
vn -0.695642 0.000593 0.718389
vn 0.995503 0.000000 0.094735
vn 0.695694 0.000000 0.718338
vn 0.695694 0.000000 0.718338
vn 0.695694 -0.000001 0.718338
vn 0.695694 0.000000 0.718338
vn 0.695694 0.000000 0.718338
vn 0.695694 0.000000 0.718338
vn 0.695694 -0.000001 0.718338
vn 0.695694 -0.000002 0.718339
vn 0.000000 1.000000 0.000000
vn 0.000000 1.000000 0.000000
vn 0.000000 1.000000 0.000000
vn 0.000000 1.000000 0.000000
vn -0.718338 0.000000 -0.695695
vn -0.718338 0.000000 -0.695695
vn -0.718338 0.000000 -0.695695
vn -0.718338 0.000000 -0.695695
vn 0.000000 -1.000000 -0.000000
vn 0.000000 -1.000000 -0.000000
vn 0.000000 -1.000000 -0.000000
vn 0.000000 -1.000000 -0.000000
vn 0.718338 0.000000 0.695694
vn 0.718338 0.000000 0.695694
vn 0.718338 0.000000 0.695694
vn 0.718338 0.000000 0.695694
vn 0.000000 1.000000 0.000000
vn 0.000000 1.000000 0.000000
vn 0.000000 1.000000 0.000000
vn 0.000000 1.000000 0.000000
vn -0.718338 0.000000 0.695694
vn -0.718338 0.000000 0.695694
vn -0.718338 0.000000 0.695694
vn -0.718338 0.000000 0.695694
vn 0.000000 -1.000000 0.000000
vn 0.000000 -1.000000 0.000000
vn 0.000000 -1.000000 0.000000
vn 0.000000 -1.000000 0.000000
vn 0.718338 0.000000 -0.695695
vn 0.718338 0.000000 -0.695695
vn 0.718338 0.000000 -0.695695
vn 0.718338 0.000000 -0.695695
vn 0.996218 0.000000 0.086894
vn 1.000000 0.000000 0.000000
vn 0.000000 -1.000000 0.000000
vn 0.000000 -1.000000 0.000000
vn 0.000000 -1.000000 0.000000
vn 0.000000 -1.000000 0.000000
vn 0.000000 -1.000000 0.000000
vn 0.000000 -1.000000 0.000000
vn 0.000000 -1.000000 0.000000
vn 0.000000 -1.000000 0.000000
vn 0.000000 -1.000000 0.000000
vn 0.000000 -1.000000 0.000000
vn 0.000000 -1.000000 0.000000
vn 0.000000 -1.000000 0.000000
vn -1.000000 0.000000 0.000000
vn -1.000000 0.000000 0.000000
vn -1.000000 0.000000 0.000000
vn -1.000000 0.000000 0.000000
vn -1.000000 0.000000 0.000000
vn -1.000000 0.000000 0.000000
vn -1.000000 0.000000 0.000000
vn -1.000000 0.000000 0.000000
vn 0.000000 1.000000 0.000000
vn 0.000000 1.000000 0.000000
vn 0.000000 1.000000 0.000000
vn 0.000000 1.000000 0.000000
vn 0.000000 1.000000 0.000000
vn 0.000000 1.000000 0.000000
vn 0.000000 1.000000 0.000000
vn 0.000000 1.000000 0.000000
vn 0.000000 1.000000 0.000000
vn 0.000000 1.000000 0.000000
vn 0.000000 1.000000 0.000000
vn 0.000000 0.000000 1.000000
vn 0.000000 0.000000 1.000000
vn 0.000000 0.000000 1.000000
vn 0.000000 0.000000 1.000000
vn 0.000000 0.000000 1.000000
vn 0.000000 0.000000 1.000000
vn 0.000000 0.000000 1.000000
vn 0.000000 0.000000 1.000000
vn 0.000000 0.000000 1.000000
vn -0.000000 0.000000 1.000000
vn -0.000000 0.000000 1.000000
vn 0.000000 0.000000 1.000000
vn 0.000000 0.000000 1.000000
vn 0.000000 0.000000 1.000000
vn 0.000000 0.000000 1.000000
vn 0.000000 0.000000 1.000000
vn -1.000000 0.000000 0.000000
vn -1.000000 0.000000 0.000000
vn 1.000000 0.000000 0.000000
vn 1.000000 0.000000 0.000000
vn 1.000000 0.000000 0.000000
vn 1.000000 0.000000 0.000000
vn -1.000000 0.000000 0.000000
vn 0.000000 -1.000000 0.000000
vn 0.000000 -1.000000 0.000000
vn 0.000000 -1.000000 0.000000
vn 0.000000 -1.000000 0.000000
vn 1.000000 0.000000 0.000000
vn 1.000000 0.000000 0.000000
vn 0.000000 1.000000 0.000000
vn 0.000000 1.000000 0.000000
vn 0.000000 1.000000 0.000000
vn 0.000000 1.000000 0.000000
vn 0.000000 1.000000 0.000000
vn 0.000000 1.000000 0.000000
vn 0.000000 1.000000 0.000000
vn 0.000000 1.000000 0.000000
vn -1.000000 0.000000 0.000000
vn 1.000000 0.000000 0.000000
vn 1.000000 0.000000 0.000000
vn 0.000000 1.000000 0.000000
vn 0.000000 1.000000 0.000000
vn 0.000000 1.000000 0.000000
vn 0.000000 1.000000 0.000000
vn -1.000000 0.000000 0.000000
vn -1.000000 0.000000 0.000000
vn 1.000000 0.000000 0.000000
vn 1.000000 0.000000 0.000000
vn -1.000000 0.000000 0.000000
vn 0.000000 -1.000000 0.000000
vn 0.000000 -1.000000 0.000000
vn 1.000000 0.000000 0.000000
vn 0.000000 1.000000 0.000000
vn 0.000000 1.000000 0.000000
vn 0.000000 1.000000 0.000000
vn 0.000000 1.000000 0.000000
vn -1.000000 0.000000 0.000000
vn -1.000000 0.000000 0.000000
vn 0.000000 -1.000000 0.000000
vn 0.000000 -1.000000 0.000000
vn 1.000000 0.000000 0.000000
vn 1.000000 0.000000 0.000000
vn 0.000000 0.000000 1.000000
vn 0.000000 0.000000 1.000000
vn -0.000000 0.000000 1.000000
vn 0.000000 0.000000 1.000000
vn -0.000001 0.000000 1.000000
vn 0.000000 0.000000 1.000000
vn -0.000000 0.000000 1.000000
vn -0.000000 0.000000 1.000000
vn -0.000000 0.000000 1.000000
vn 0.000000 0.000000 1.000000
vn 0.000000 0.000000 1.000000
vn 0.000000 0.000000 1.000000
vn 0.000000 0.000000 1.000000
vn -0.000001 0.000000 1.000000
vn -0.000001 0.000000 1.000000
vn -0.000001 0.000000 1.000000
vn -0.000001 0.000000 1.000000
vn 0.000000 0.000000 1.000000
vn 0.000000 0.000000 1.000000
vn 0.000000 0.000000 1.000000
vn 0.000000 0.000000 1.000000
vn 0.000000 0.000000 1.000000
vn 0.000000 0.000000 1.000000
vn 0.000000 0.000000 1.000000
vn 0.000000 0.000000 1.000000
vn 0.000000 0.000000 1.000000
vn 0.000000 0.000000 1.000000
vn 0.000000 0.000000 1.000000
vn 0.000000 0.000000 1.000000
vn 0.000000 0.000000 1.000000
vn 0.000000 0.000000 1.000000
vn 0.000000 1.000000 0.000000
vn 0.000000 1.000000 0.000000
vn 0.000000 1.000000 0.000000
vn 0.000000 1.000000 0.000000
vn -1.000000 0.000000 0.000000
vn -1.000000 0.000000 0.000000
vn -1.000000 0.000000 0.000000
vn -1.000000 0.000000 0.000000
vn 0.000000 1.000000 0.000000
vn 0.000000 1.000000 0.000000
vn 0.000000 1.000000 0.000000
vn 0.000000 1.000000 0.000000
vn 1.000000 0.000000 0.000000
vn 1.000000 0.000000 0.000000
vn 1.000000 0.000000 0.000000
vn 1.000000 0.000000 0.000000
vn 0.000000 -1.000000 0.000000
vn 0.000000 -1.000000 0.000000
vn 0.000000 -1.000000 0.000000
vn 0.000000 -1.000000 0.000000
vn 1.000000 0.000000 0.000000
vn 1.000000 0.000000 0.000000
vn 1.000000 0.000000 0.000000
vn 1.000000 0.000000 0.000000
vn 1.000000 0.000000 0.000000
vn 1.000000 0.000000 0.000000
vn -1.000000 0.000000 0.000000
vn -1.000000 0.000000 0.000000
vn 0.000000 -1.000000 0.000000
vn 0.000000 -1.000000 0.000000
vn 0.000000 -1.000000 0.000000
vn 0.000000 -1.000000 0.000000
vn -1.000000 0.000000 0.000000
vn -1.000000 0.000000 0.000000
vn -1.000000 0.000000 0.000000
vn -1.000000 0.000000 0.000000
vn -1.000000 0.000000 0.000000
vn -1.000000 0.000000 0.000000
vn 0.000000 -1.000000 0.000000
vn 0.000000 -1.000000 0.000000
vn 0.000000 -1.000000 0.000000
vn 0.000000 -1.000000 0.000000
vn 1.000000 0.000000 0.000000
vn 1.000000 0.000000 0.000000
vn 0.000000 0.000000 1.000000
vn 0.000000 0.000000 1.000000
vn 0.000000 0.000000 1.000000
vn 0.000000 0.000000 1.000000
vn -0.000000 0.000000 1.000000
vn -0.000000 0.000000 1.000000
vn -0.000000 0.000000 1.000000
vn -0.000000 0.000000 1.000000
vn -0.000000 0.000000 1.000000
vn -0.000000 0.000000 1.000000
vn 1.000000 0.000000 0.000000
vn 1.000000 0.000000 0.000000
vn 1.000000 0.000000 0.000000
vn 1.000000 0.000000 0.000000
vn -0.000001 1.000000 0.000000
vn -0.000001 1.000000 0.000000
vn -0.000001 1.000000 0.000000
vn -0.000001 1.000000 0.000000
vn -1.000000 0.000000 0.000000
vn -1.000000 0.000000 0.000000
vn -1.000000 0.000000 0.000000
vn -1.000000 0.000000 0.000000
vn 0.000000 -1.000000 0.000000
vn 0.000000 -1.000000 0.000000
vn 0.000000 -1.000000 0.000000
vn 0.000000 -1.000000 0.000000
vn 0.000000 0.000000 0.000000
vn 0.000000 0.000000 0.000000
vn 0.000000 0.000000 0.000000
vn -0.695694 0.000000 0.718338
vn -0.695694 -0.000000 0.718338
vn -0.695694 -0.000000 0.718338
vn 0.032114 -0.000000 0.999484
vn 0.019932 -0.000000 0.999801
vn 0.695694 0.000000 0.718338
vn 0.695694 0.000001 0.718338
vn 0.695694 -0.000000 0.718338
vn 0.695694 -0.000000 0.718339
vn 0.695694 0.000001 0.718338
vn 0.695694 -0.000000 0.718339
vn 0.695694 0.000000 0.718339
vn 0.695694 0.000000 0.718338
vn 0.695694 0.000000 0.718338
vn 0.695694 0.000000 0.718338
vn 0.695694 0.000000 0.718338
vn 0.000000 -1.000000 0.000001
vn 0.000000 -1.000000 0.000001
vn 0.000000 -1.000000 0.000001
vn 0.000000 -1.000000 0.000001
vn 0.718333 0.000000 -0.695699
vn 0.718333 0.000000 -0.695699
vn 0.718333 0.000000 -0.695699
vn 0.718333 0.000000 -0.695699
vn -0.718336 0.000000 0.695697
vn -0.718336 0.000000 0.695697
vn -0.718336 0.000000 0.695697
vn -0.718336 0.000000 0.695697
vn -0.695694 0.000000 0.718338
vn -0.695694 -0.000000 0.718338
vn -0.695694 0.000001 0.718339
vn -0.695694 0.000001 0.718339
vn -0.695694 0.000001 0.718339
vn -0.695694 0.000001 0.718339
vn 0.000000 -1.000000 0.000001
vn 0.000000 -1.000000 0.000001
vn 0.000000 -1.000000 0.000001
vn 0.000000 -1.000000 0.000001
vn 0.718339 -0.000001 0.695693
vn 0.718339 -0.000001 0.695693
vn 0.718339 -0.000001 0.695693
vn 0.718339 -0.000001 0.695693
vn -0.718345 0.000000 -0.695687
vn -0.718345 0.000000 -0.695687
vn -0.718345 0.000000 -0.695687
vn -0.718345 0.000000 -0.695687
vn 0.000000 1.000000 0.000000
vn 0.000000 1.000000 0.000000
vn 0.000000 1.000000 0.000000
vn 0.000000 1.000000 0.000000
vn -0.695594 0.001135 0.718435
vn 0.035318 0.007431 0.999349
vn 0.035318 0.007431 0.999349
vn 0.035318 0.007431 0.999349
vn 0.035318 0.007431 0.999349
vn 0.007547 -0.226913 0.973886
vn 0.007547 -0.226913 0.973886
vn 0.007547 -0.226913 0.973886
vn 0.007547 -0.226913 0.973886
vn 0.067586 0.383017 0.921266
vn 0.067586 0.383017 0.921266
vn 0.067586 0.383017 0.921266
vn 0.067586 0.383017 0.921266
vn 0.067586 0.383017 0.921266
vn 0.007547 -0.226913 0.973886
vn 0.007547 -0.226913 0.973886
vn 0.007547 -0.226913 0.973886
vn 0.007547 -0.226913 0.973886
vn 0.067585 0.383017 0.921266
vn 0.067585 0.383017 0.921266
vn 0.067585 0.383017 0.921266
vn 0.067585 0.383017 0.921266
vn 0.067585 0.383017 0.921266
s off
f 24/1/1 25/2/2 26/3/3 27/4/4
f 28/5/5 29/6/6 30/7/7 31/8/8
s 1
f 8/9/9 9/10/10 13/11/11 12/12/12
f 9/10/10 10/13/13 14/14/14 13/11/11
f 10/13/13 11/15/15 15/16/16 14/14/14
s 2
f 12/12/17 13/11/18 35/17/19 36/18/20
f 13/11/18 14/14/21 34/19/22 35/17/19
f 14/14/21 15/16/23 33/20/24 34/19/22
s 3
f 32/21/25 33/20/26 15/16/27 11/15/28
f 101/23/29 113/24/30 115/25/31 127/26/32 131/27/33 17/28/34 16/29/35
f 131/27/33 126/30/36 18/35/37 17/28/34
f 6/36/38 68/37/39 101/23/29 16/29/35 19/38/40
f 102/39/41 7/40/42 22/41/43 21/42/44
f 7/40/42 124/43/45 123/44/46 23/45/47 22/41/43
f 123/44/46 130/46/48 20/47/49 23/45/47
s off
f 16/29/50 17/28/51 25/2/52 24/1/53
f 17/28/54 18/35/55 26/3/56 25/2/57
f 18/35/58 19/38/59 27/4/60 26/3/61
f 19/38/62 16/29/63 24/1/64 27/4/65
f 20/47/66 21/42/67 29/6/68 28/5/69
f 21/42/70 22/41/71 30/7/72 29/6/73
f 22/41/74 23/45/75 31/8/76 30/7/77
f 23/45/78 20/47/79 28/5/80 31/8/81
s 3
f 4/22/82 33/20/26 32/21/25 7/31/83 102/32/41
s 2
f 34/19/22 33/20/24 4/22/84 106/33/85 112/34/86 111/101/87 103/104/88 3/111/89
f 35/17/19 34/19/22 3/111/89 116/112/90 122/115/91 121/116/92 114/123/93 2/124/94
f 36/18/20 35/17/19 2/124/94 1/126/95
s 6
f 1/126/96 37/127/97 38/147/98 39/148/99 65/149/100 5/150/101 8/9/102 12/12/103
s off
f 5/150/104 62/151/105 64/152/106 6/153/107 9/10/108 8/9/109
f 6/153/110 125/154/111 124/155/112 10/13/113 9/10/114
f 51/48/115 52/49/116 53/50/117 54/51/118
f 58/52/119 57/53/120 59/54/121 60/55/122
s 7
f 5/56/123 65/57/124 66/58/125 62/59/126
s off
f 50/60/127 49/61/128 44/62/129 43/63/130
s 6
f 38/64/98 37/65/97 45/66/131 44/179/132
s 8
f 40/69/133 41/72/134 43/120/135 46/121/136
s 6
f 37/65/97 1/180/96 47/181/137 45/66/131
s 9
f 1/70/138 2/73/139 48/74/140 47/71/141
s 8
f 2/140/142 40/69/133 46/121/136 48/141/143
s off
f 42/189/144 63/190/145 72/191/146 69/192/147 61/193/148 39/194/149 49/195/150 50/196/151
s 6
f 39/182/99 38/64/98 44/179/132 49/183/152
s 8
f 41/72/134 42/142/153 50/143/154 43/120/135
s off
f 43/197/155 44/198/156 52/199/157 51/200/158
s 6
f 44/179/132 45/66/131 53/184/159 52/185/160
s 8
f 46/121/136 43/120/135 51/144/161 54/145/162
s 6
f 45/66/131 47/181/137 55/186/163 53/184/159
s 9
f 47/71/141 48/74/140 56/82/164 55/81/165
s 8
f 48/141/143 46/121/136 54/145/162 56/146/166
s off
f 54/201/167 53/202/168 57/203/169 58/204/170
s 6
f 53/184/159 55/186/163 59/187/171 57/188/172
s 9
f 55/81/165 56/82/164 60/55/173 59/54/174
s 8
f 56/146/166 54/145/162 58/160/175 60/161/176
s 7
f 62/59/126 66/58/125 70/83/177 71/84/178 67/85/179 64/86/180
f 64/86/180 67/85/179 68/87/181 6/88/182
f 66/58/125 65/57/124 39/80/183 61/79/184 73/89/185
s 10
f 77/90/186 78/91/187 79/92/188 80/93/189
s 7
f 68/87/181 67/85/179 76/94/190 63/76/191 42/75/192 101/95/193
s 10
f 82/96/194 81/97/195 83/98/196 84/99/197
f 78/91/187 83/98/196 81/97/195 79/92/188
f 85/100/198 78/91/187 77/90/186 86/102/199
s 11
f 89/103/200 93/105/201 94/106/202 90/107/203 75/108/204 74/109/205
s 10
f 84/99/197 83/98/196 87/110/206 88/113/207
s 12
f 70/83/208 66/58/209 80/93/210 79/92/211
s 13
f 66/58/212 73/89/213 77/90/214 80/93/215
s 12
f 67/85/216 71/84/217 81/97/218 82/96/219
s 14
f 76/94/220 67/85/221 82/96/222 84/99/223
s off
f 74/109/224 75/108/225 83/98/226 78/91/227
s 12
f 71/84/217 70/83/208 79/92/211 81/97/218
s off
f 69/78/228 91/114/229 89/103/230 74/109/231 78/91/232 85/100/233
s 13
f 73/89/213 61/79/234 86/102/235 77/90/214
s off
f 61/79/236 69/78/237 85/100/238 86/102/239
f 75/108/240 90/107/241 92/117/242 72/77/243 87/110/244 83/98/245
f 72/77/246 63/76/247 88/113/248 87/110/249
s 14
f 63/76/250 76/94/220 84/99/223 88/113/251
s off
f 97/118/252 98/119/253 99/156/254 100/157/255
s 11
f 72/77/256 92/117/257 96/158/258 95/159/259 91/114/260 69/78/261
f 91/114/260 95/159/259 93/105/201 89/103/200
f 94/106/202 96/158/258 92/117/257 90/107/203
s off
f 93/105/262 95/159/263 98/119/264 97/118/265
f 95/159/266 96/158/267 99/156/268 98/119/269
f 96/158/270 94/106/271 100/157/272 99/156/273
f 94/106/274 93/105/275 97/118/276 100/157/277
s 3
f 101/95/29 42/75/278 41/68/279 40/67/280 2/178/281
f 115/25/31 118/162/282 116/163/283 3/164/284 128/165/285 127/26/32
f 3/122/284 103/125/286 107/128/287 104/129/288 129/130/289 128/131/285
f 104/129/288 107/128/287 108/132/290 105/133/291
f 105/133/291 108/132/290 106/134/292 4/135/82 102/39/41
s off
f 110/136/293 109/137/294 111/138/295 112/139/296
f 108/132/297 107/128/298 109/137/299 110/136/300
f 107/128/301 103/125/302 111/138/303 109/137/304
f 106/134/305 108/132/306 110/136/307 112/139/308
s 3
f 2/166/281 114/167/309 117/168/310 113/24/30 101/23/29
f 113/24/30 117/168/310 118/162/282 115/25/31
s off
f 120/169/311 119/170/312 121/171/313 122/172/314
f 118/162/315 117/168/316 119/170/317 120/169/318
f 117/168/319 114/167/320 121/171/321 119/170/322
f 116/163/323 118/162/324 120/169/325 122/172/326
f 124/155/327 7/31/328 11/15/329 10/13/330
s 3
f 126/30/36 125/173/331 6/36/38 19/38/40 18/35/37
f 130/46/48 129/130/289 104/129/288 105/133/291 102/39/41 21/42/44 20/47/49
s off
f 123/174/332 126/30/333 131/27/334 130/175/335
f 123/174/336 124/176/337 125/173/338 126/30/339
f 127/26/340 128/165/341 129/177/342 130/175/343 131/27/344
f 123/174/345 124/176/346 125/173/347 126/30/348
f 131/27/349 127/26/350 128/165/351 129/177/352 130/175/353
