# This file uses meters as units for non-parametric coordinates.

v -9.941620 6.944699 23.260317
v 15.640778 6.944699 23.260317
v 15.640778 43.055295 23.260317
v -9.941620 43.055295 23.260317
v -9.941620 56.944699 23.260317
v 15.640778 56.944699 23.260317
v 15.640778 93.055295 23.260317
v -9.941620 93.055295 23.260317
v -9.941620 106.944699 23.260317
v 15.640778 106.944699 23.260317
v 15.640778 143.055295 23.260317
v -9.941620 143.055295 23.260317
v -9.941620 156.944699 23.260317
v 15.640778 156.944699 23.260317
v 15.640778 193.055295 23.260317
v -9.941620 193.055295 23.260317
v -9.941620 6.944699 17.951487
v 15.640778 6.944699 17.951487
v 15.640778 43.055295 17.951487
v -9.941620 43.055295 17.951487
v -9.941620 56.944699 17.951487
v 15.640778 56.944699 17.951487
v 15.640778 93.055295 17.951487
v -9.941620 93.055295 17.951487
v -9.941620 106.944699 17.951487
v 15.640778 106.944699 17.951487
v 15.640778 143.055295 17.951487
v -9.941620 143.055295 17.951487
v -9.941620 156.944699 17.951487
v 15.640778 156.944699 17.951487
v 15.640778 193.055295 17.951487
v -9.941620 193.055295 17.951487
v -27.849579 209.822995 30.150072
v -22.150406 199.999997 -29.700483
v -27.849564 209.822995 -29.700483
v -22.150406 -0.000003 -29.700483
v -22.150406 49.999997 -29.700483
v -22.150406 99.999997 -29.700483
v -22.150406 149.999997 -29.700483
v -22.150421 4.978581 -18.698156
v -22.150421 45.021421 -18.698156
v -22.150421 4.978581 12.257990
v -22.150421 45.021421 12.257990
v -22.150421 54.978574 -18.698156
v -22.150421 95.021421 -18.698156
v -22.150421 54.978574 12.257990
v -22.150421 95.021421 12.257990
v -22.150421 104.978574 -18.698156
v -22.150421 145.021421 -18.698156
v -22.150421 104.978574 12.257990
v -22.150421 145.021421 12.257990
v -22.150421 154.978574 -18.698156
v -22.150421 195.021421 -18.698156
v -22.150421 154.978574 12.257990
v -22.150421 195.021421 12.257990
v -17.399445 4.978581 -18.698156
v -17.399445 45.021421 -18.698156
v -17.399445 4.978581 12.257990
v -17.399445 45.021421 12.257990
v -17.399445 54.978574 -18.698156
v -17.399445 95.021421 -18.698156
v -17.399445 54.978574 12.257990
v -17.399445 95.021421 12.257990
v -17.399445 104.978574 -18.698156
v -17.399445 145.021421 -18.698156
v -17.399445 104.978574 12.257990
v -17.399445 145.021421 12.257990
v -17.399445 154.978574 -18.698156
v -17.399445 195.021421 -18.698156
v -17.399445 154.978574 12.257990
v -17.399445 195.021421 12.257990
v 27.849579 209.822995 -29.700483
v 27.849579 -0.000003 -29.700483
v 27.849579 -0.000003 23.260317
v 27.849579 49.999997 23.260317
v 27.849579 99.999997 23.260317
v 27.849579 149.999997 23.260317
v 27.849579 199.999997 23.260317
v 27.849579 209.822995 30.150072
v -22.150421 2.489041 17.759703
v -22.150421 -0.000003 18.565249
v -17.455353 -0.000003 23.260317
v -16.649811 3.128896 23.260317
v -16.649811 49.999997 23.260317
v -22.150421 49.999997 17.759703
v -16.649811 99.999997 23.260317
v -22.150421 99.999997 17.759703
v -16.649811 149.999997 23.260317
v -22.150421 149.999997 17.759703
v -22.150421 197.510953 17.759703
v -16.649811 196.871091 23.260317
v -18.260895 199.999997 23.260317
v -23.819229 202.876340 25.277758
v -22.150421 199.999997 19.370795
vt 0.509928 0.044503
vt 0.640930 0.044503
vt 0.640930 0.212399
vt 0.509928 0.212399
vt 0.509928 0.276978
vt 0.640930 0.276978
vt 0.640930 0.444875
vt 0.509928 0.444875
vt 0.509928 0.509453
vt 0.640930 0.509453
vt 0.640930 0.677350
vt 0.509928 0.677350
vt 0.509928 0.741929
vt 0.640930 0.741929
vt 0.640930 0.909825
vt 0.509928 0.909825
vt 0.037090 0.043463
vt 0.037090 0.043463
vt 0.703448 0.012214
vt 0.703448 0.244689
vt 0.037090 0.043463
vt 0.640930 0.212399
vt 0.640930 0.044503
vt 0.037090 0.043463
vt 0.703448 0.477164
vt 0.640930 0.444875
vt 0.037090 0.043463
vt 0.640930 0.276978
vt 0.703448 0.709639
vt 0.640930 0.677350
vt 0.640930 0.509453
vt 0.703448 0.942114
vt 0.640930 0.909825
vt 0.640930 0.741929
vt 0.467327 0.942114
vt 0.475577 0.927566
vt 0.509928 0.909825
vt 0.509928 0.044503
vt 0.509928 0.212399
vt 0.037090 0.043463
vt 0.037090 0.043463
vt 0.509928 0.276978
vt 0.509928 0.444875
vt 0.037090 0.043463
vt 0.037090 0.043463
vt 0.037090 0.043463
vt 0.037090 0.043463
vt 0.037090 0.043463
vt 0.037090 0.043463
vt 0.037090 0.043463
vt 0.509928 0.509453
vt 0.509928 0.677350
vt 0.509928 0.741929
vt 0.475577 0.026762
vt 0.471452 0.012214
vt 0.438865 0.955488
vt 0.703448 0.987786
vt 0.418226 0.987786
vt 0.475577 0.244689
vt 0.475577 0.477164
vt 0.475577 0.709639
vt 0.334575 0.016285
vt 0.334575 0.016285
vt 0.366908 0.951686
vt 0.366908 0.951686
vt 0.102088 0.983715
vt 0.037090 0.043463
vt 0.102088 0.938424
vt 0.338455 0.938424
vt 0.366908 0.951686
vt 0.390377 0.983715
vt 0.037090 0.043463
vt 0.155084 0.223865
vt 0.155084 0.039240
vt 0.037090 0.043463
vt 0.304194 0.039240
vt 0.304194 0.223865
vt 0.155084 0.454400
vt 0.155084 0.269774
vt 0.304194 0.269774
vt 0.304194 0.454400
vt 0.155084 0.684935
vt 0.155084 0.500309
vt 0.304194 0.500309
vt 0.304194 0.684935
vt 0.155084 0.915469
vt 0.338455 0.938424
vt 0.155084 0.730844
vt 0.338455 0.938424
vt 0.304194 0.730844
vt 0.330695 0.027761
vt 0.304194 0.915469
vt 0.330695 0.027761
vt 0.102088 0.246820
vt 0.102088 0.016285
vt 0.155084 0.039240
vt 0.155084 0.223865
vt 0.334575 0.016285
vt 0.330695 0.027761
vt 0.304194 0.039240
vt 0.102088 0.477355
vt 0.155084 0.269774
vt 0.155084 0.454400
vt 0.102088 0.707889
vt 0.155084 0.500309
vt 0.155084 0.684935
vt 0.155084 0.730844
vt 0.155084 0.915469
vt 0.304194 0.223865
vt 0.304194 0.269774
vt 0.304194 0.454400
vt 0.304194 0.500309
vt 0.304194 0.684935
vt 0.304194 0.730844
vt 0.304194 0.915469
vt 0.330695 0.926948
vt 0.357190 0.030711
vt 0.357190 0.246820
vt 0.330695 0.246820
vt 0.357190 0.477355
vt 0.330695 0.477355
vt 0.357190 0.707889
vt 0.330695 0.707889
vt 0.357190 0.923998
vt 0.357190 0.016285
vt 0.357190 0.938424
vt 0.357190 0.923998
vt 0.357190 0.923998
vt 0.330695 0.926948
vt 0.330695 0.926948
vt 0.357190 0.030711
vt 0.357190 0.030711
vn 0.000000 0.000000 1.000000
vn 0.000000 0.000000 1.000000
vn 0.000000 0.000000 1.000000
vn 0.000000 0.000000 1.000000
vn 0.000000 0.000000 1.000000
vn 0.000000 0.000000 1.000000
vn 0.000000 0.000000 1.000000
vn 0.000000 0.000000 1.000000
vn 0.000000 0.000000 1.000000
vn 0.000000 0.000000 1.000000
vn 0.000000 0.000000 1.000000
vn 0.000000 0.000000 1.000000
vn 0.000000 0.000000 1.000000
vn 0.000000 0.000000 1.000000
vn 0.000000 0.000000 1.000000
vn 0.000000 0.000000 1.000000
vn 0.000000 0.000000 1.000000
vn 0.000000 0.000000 1.000000
vn 0.000000 0.000000 1.000000
vn 0.000000 0.000000 1.000000
vn 0.000000 0.000000 1.000000
vn 0.000000 0.000000 1.000000
vn 0.000000 0.000000 1.000000
vn 0.000000 0.000000 1.000000
vn 0.000000 0.000000 1.000000
vn 0.000000 0.000000 1.000000
vn 0.000000 -0.354352 0.935112
vn 0.000000 0.000000 1.000000
vn 0.000000 0.000000 1.000000
vn 0.000000 -0.500848 0.865535
vn 0.000000 0.000000 1.000000
vn 0.000000 0.000000 1.000000
vn 0.000000 1.000000 0.000000
vn 0.000000 1.000000 0.000000
vn 0.000000 1.000000 0.000000
vn 0.000000 1.000000 0.000000
vn -1.000000 0.000000 0.000000
vn -1.000000 0.000000 0.000000
vn -1.000000 0.000000 0.000000
vn -1.000000 0.000000 0.000000
vn 0.000000 -1.000000 0.000000
vn 0.000000 -1.000000 0.000000
vn 0.000000 -1.000000 0.000000
vn 0.000000 -1.000000 0.000000
vn 1.000000 0.000000 0.000000
vn 1.000000 0.000000 0.000000
vn 1.000000 0.000000 0.000000
vn 1.000000 0.000000 0.000000
vn 0.000000 1.000000 0.000000
vn 0.000000 1.000000 0.000000
vn 0.000000 1.000000 0.000000
vn 0.000000 1.000000 0.000000
vn -1.000000 0.000000 0.000000
vn -1.000000 0.000000 0.000000
vn -1.000000 0.000000 0.000000
vn -1.000000 0.000000 0.000000
vn 0.000000 -1.000000 0.000000
vn 0.000000 -1.000000 0.000000
vn 0.000000 -1.000000 0.000000
vn 0.000000 -1.000000 0.000000
vn 1.000000 0.000000 0.000000
vn 1.000000 0.000000 0.000000
vn 1.000000 0.000000 0.000000
vn 1.000000 0.000000 0.000000
vn 0.000000 1.000000 0.000000
vn 0.000000 1.000000 0.000000
vn 0.000000 1.000000 0.000000
vn 0.000000 1.000000 0.000000
vn -1.000000 0.000000 0.000000
vn -1.000000 0.000000 0.000000
vn -1.000000 0.000000 0.000000
vn -1.000000 0.000000 0.000000
vn 0.000000 -1.000000 0.000000
vn 0.000000 -1.000000 0.000000
vn 0.000000 -1.000000 0.000000
vn 0.000000 -1.000000 0.000000
vn 1.000000 0.000000 0.000000
vn 1.000000 0.000000 0.000000
vn 1.000000 0.000000 0.000000
vn 1.000000 0.000000 0.000000
vn 0.000000 1.000000 0.000000
vn 0.000000 1.000000 0.000000
vn 0.000000 1.000000 0.000000
vn 0.000000 1.000000 0.000000
vn -1.000000 0.000000 0.000000
vn -1.000000 0.000000 0.000000
vn -1.000000 0.000000 0.000000
vn -1.000000 0.000000 0.000000
vn 0.000000 -1.000000 0.000000
vn 0.000000 -1.000000 0.000000
vn 0.000000 -1.000000 0.000000
vn 0.000000 -1.000000 0.000000
vn 1.000000 0.000000 0.000000
vn 1.000000 0.000000 0.000000
vn 1.000000 0.000000 0.000000
vn 1.000000 0.000000 0.000000
vn -0.864962 -0.501838 -0.000000
vn -0.949698 -0.313167 -0.000001
vn -0.891381 -0.453255 -0.000000
vn -0.864962 -0.501838 -0.000000
vn -0.864962 -0.501838 -0.000000
vn 0.000000 1.000000 0.000000
vn 0.000000 1.000000 0.000000
vn 0.000000 1.000000 0.000000
vn 0.000000 1.000000 0.000000
vn 0.000000 -1.000000 0.000000
vn 0.000000 -1.000000 0.000000
vn 0.000000 -1.000000 0.000000
vn 0.000000 -1.000000 0.000000
vn 0.000000 -1.000000 0.000000
vn -1.000000 0.000000 0.000000
vn -1.000000 0.000000 0.000000
vn -1.000000 0.000000 0.000000
vn -1.000000 0.000000 0.000000
vn -1.000000 0.000000 0.000000
vn -1.000000 0.000000 0.000000
vn -1.000000 0.000000 0.000000
vn -1.000000 0.000000 0.000000
vn -1.000000 0.000000 0.000000
vn -1.000000 0.000000 0.000000
vn -1.000000 0.000000 0.000000
vn -1.000000 0.000000 0.000000
vn -1.000000 0.000000 0.000000
vn -1.000000 0.000000 0.000000
vn -1.000000 0.000000 0.000000
vn -1.000000 0.000000 0.000000
vn -1.000000 -0.000000 -0.000001
vn -1.000000 -0.000000 -0.000001
vn -1.000000 -0.000001 -0.000001
vn -1.000000 0.000001 -0.000001
vn -1.000000 -0.000004 -0.000000
vn -1.000000 -0.000002 -0.000000
vn -1.000000 -0.000002 -0.000000
vn -1.000000 -0.000000 -0.000001
vn -1.000000 -0.000001 -0.000001
vn -1.000000 0.000001 -0.000001
vn -1.000000 -0.000000 -0.000001
vn -1.000000 -0.000001 -0.000001
vn -1.000000 0.000001 -0.000001
vn -1.000000 -0.000001 -0.000001
vn -1.000000 0.000001 -0.000001
vn 0.000000 0.000000 1.000000
vn 0.000000 0.000000 1.000000
vn 0.000000 0.000000 1.000000
vn 0.000000 0.000000 1.000000
vn 0.000000 1.000000 0.000000
vn 0.000000 1.000000 0.000000
vn 0.000000 1.000000 0.000000
vn 0.000000 1.000000 0.000000
vn 0.000000 0.000000 -1.000000
vn 0.000000 0.000000 -1.000000
vn 0.000000 0.000000 -1.000000
vn 0.000000 0.000000 -1.000000
vn 0.000000 -1.000000 0.000000
vn 0.000000 -1.000000 0.000000
vn 0.000000 -1.000000 0.000000
vn 0.000000 -1.000000 0.000000
vn 0.000000 0.000000 1.000000
vn 0.000000 0.000000 1.000000
vn 0.000000 0.000000 1.000000
vn 0.000000 0.000000 1.000000
vn 0.000000 1.000000 0.000000
vn 0.000000 1.000000 0.000000
vn 0.000000 1.000000 0.000000
vn 0.000000 1.000000 0.000000
vn 0.000000 0.000000 -1.000000
vn 0.000000 0.000000 -1.000000
vn 0.000000 0.000000 -1.000000
vn 0.000000 0.000000 -1.000000
vn 0.000000 -1.000000 0.000000
vn 0.000000 -1.000000 0.000000
vn 0.000000 -1.000000 0.000000
vn 0.000000 -1.000000 0.000000
vn 0.000000 0.000000 1.000000
vn 0.000000 0.000000 1.000000
vn 0.000000 0.000000 1.000000
vn 0.000000 0.000000 1.000000
vn 0.000000 1.000000 0.000000
vn 0.000000 1.000000 0.000000
vn 0.000000 1.000000 0.000000
vn 0.000000 1.000000 0.000000
vn 0.000000 0.000000 -1.000000
vn 0.000000 0.000000 -1.000000
vn 0.000000 0.000000 -1.000000
vn 0.000000 0.000000 -1.000000
vn 0.000000 -1.000000 0.000000
vn 0.000000 -1.000000 0.000000
vn 0.000000 -1.000000 0.000000
vn 0.000000 -1.000000 0.000000
vn 0.000000 0.000000 1.000000
vn 0.000000 0.000000 1.000000
vn 0.000000 0.000000 1.000000
vn 0.000000 0.000000 1.000000
vn 0.000000 1.000000 0.000000
vn 0.000000 1.000000 0.000000
vn 0.000000 1.000000 0.000000
vn 0.000000 1.000000 0.000000
vn 0.000000 0.000000 -1.000000
vn 0.000000 0.000000 -1.000000
vn 0.000000 0.000000 -1.000000
vn 0.000000 0.000000 -1.000000
vn 0.000000 -1.000000 0.000000
vn 0.000000 -1.000000 0.000000
vn 0.000000 -1.000000 0.000000
vn 0.000000 -1.000000 0.000000
vn 1.000000 0.000000 0.000000
vn 1.000000 0.000000 0.000000
vn 1.000000 0.000000 0.000000
vn 1.000000 0.000000 0.000000
vn 1.000000 0.000000 0.000000
vn 1.000000 0.000000 0.000000
vn 1.000000 0.000000 0.000000
vn 1.000000 0.000000 0.000000
vn 0.000000 0.000000 -1.000000
vn 0.000000 0.000000 -1.000000
vn 0.000000 0.000000 -1.000000
vn 0.000000 0.000000 -1.000000
vn 0.000000 0.000000 -1.000000
vn 0.000000 0.000000 -1.000000
vn 0.000000 0.000000 -1.000000
vn 0.000000 0.000000 -1.000000
vn 0.000000 0.000000 1.000000
vn 0.000000 0.000000 1.000000
vn 0.000000 0.000000 1.000000
vn -1.000000 0.000002 -0.000000
vn -1.000000 0.000002 -0.000000
vn 0.000000 -0.574226 0.818697
vn 0.000000 -0.574226 0.818697
vn 0.000000 -0.574226 0.818697
vn -0.707107 0.000000 0.707106
vn -0.707107 0.000000 0.707106
vn -0.707107 0.000000 0.707106
vn -0.707107 0.000000 0.707106
vn -0.707107 0.000000 0.707106
vn -0.707107 0.000000 0.707106
vn -0.707107 0.000000 0.707106
vn -0.707107 0.000000 0.707106
vn -0.707107 0.000000 0.707106
vn -0.707107 0.000000 0.707106
vn 0.000000 0.000000 1.000000
vn 0.000000 0.000000 1.000000
vn 0.000000 0.000000 1.000000
vn 0.000000 0.000000 1.000000
vn 0.000000 0.000000 1.000000
vn 0.000000 0.000000 1.000000
vn 0.000000 0.000000 1.000000
vn 0.000000 0.000000 1.000000
vn 0.000000 0.000000 1.000000
vn -1.000000 -0.000000 -0.000000
vn -1.000000 0.000001 -0.000000
vn -1.000000 -0.000002 -0.000000
vn -1.000000 -0.000000 -0.000000
vn -1.000000 0.000001 -0.000000
vn -1.000000 -0.000002 -0.000000
vn -1.000000 -0.000000 -0.000000
vn -1.000000 0.000001 -0.000000
vn -1.000000 -0.000002 -0.000000
vn -0.699212 0.198730 0.686738
vn -0.699212 0.198730 0.686738
vn -0.699212 0.198730 0.686738
vn -0.699212 0.198730 0.686738
vn -0.548985 -0.642907 0.534122
vn -0.548985 -0.642907 0.534122
vn -0.548985 -0.642907 0.534122
vn -0.548985 -0.642907 0.534122
vn -0.548985 -0.642907 0.534122
vn -0.699212 0.198730 0.686738
vn -0.699212 0.198730 0.686738
vn -0.699212 0.198730 0.686738
vn -0.699212 0.198730 0.686738
vn -0.548985 -0.642906 0.534123
vn -0.548985 -0.642906 0.534123
vn -0.548985 -0.642906 0.534123
vn -0.548985 -0.642906 0.534123
vn -0.548985 -0.642906 0.534123
s off
f 17/1/1 18/2/2 19/3/3 20/4/4
f 21/5/5 22/6/6 23/7/7 24/8/8
f 25/9/9 26/10/10 27/11/11 28/12/12
f 29/13/13 30/14/14 31/15/15 32/16/16
s 1
f 74/19/17 75/20/18 3/22/19 2/23/20
f 75/20/18 76/25/21 7/26/22 6/28/23
f 76/25/21 77/29/24 11/30/25 10/31/26
f 77/29/24 78/32/27 15/33/28 14/34/29
f 78/32/27 92/35/30 91/36/31 16/37/32 15/33/28
s off
f 1/38/33 2/23/34 18/2/35 17/1/36
f 2/23/37 3/22/38 19/3/39 18/2/40
f 3/22/41 4/39/42 20/4/43 19/3/44
f 4/39/45 1/38/46 17/1/47 20/4/48
f 5/42/49 6/28/50 22/6/51 21/5/52
f 6/28/53 7/26/54 23/7/55 22/6/56
f 7/26/57 8/43/58 24/8/59 23/7/60
f 8/43/61 5/42/62 21/5/63 24/8/64
f 9/51/65 10/31/66 26/10/67 25/9/68
f 10/31/69 11/30/70 27/11/71 26/10/72
f 11/30/73 12/52/74 28/12/75 27/11/76
f 12/52/77 9/51/78 25/9/79 28/12/80
f 13/53/81 14/34/82 30/14/83 29/13/84
f 14/34/85 15/33/86 31/15/87 30/14/88
f 15/33/89 16/37/90 32/16/91 31/15/92
f 16/37/93 13/53/94 29/13/95 32/16/96
s 5
f 35/66/97 34/68/98 94/69/99 93/70/100 33/71/101
s off
f 33/17/102 79/18/103 72/21/104 35/24/105
f 36/27/106 73/40/107 74/41/108 82/44/109 81/45/110
f 57/73/111 56/74/112 58/76/113 59/77/114
f 61/78/115 60/79/116 62/80/117 63/81/118
f 65/82/119 64/83/120 66/84/121 67/85/122
f 69/86/123 68/88/124 70/90/125 71/92/126
s 5
f 37/94/127 36/95/128 40/96/129 41/97/130
f 36/95/128 81/98/131 80/99/132 42/100/133 40/96/129
f 38/101/134 37/94/127 44/102/135 45/103/136
f 39/104/137 38/101/134 48/105/138 49/106/139
f 34/68/98 39/104/137 52/107/140 53/108/141
s off
f 41/97/142 40/96/143 56/74/144 57/73/145
f 40/96/146 42/100/147 58/76/148 56/74/149
f 42/100/150 43/109/151 59/77/152 58/76/153
f 43/109/154 41/97/155 57/73/156 59/77/157
f 45/103/158 44/102/159 60/79/160 61/78/161
f 44/102/162 46/110/163 62/80/164 60/79/165
f 46/110/166 47/111/167 63/81/168 62/80/169
f 47/111/170 45/103/171 61/78/172 63/81/173
f 49/106/174 48/105/175 64/83/176 65/82/177
f 48/105/178 50/112/179 66/84/180 64/83/181
f 50/112/182 51/113/183 67/85/184 66/84/185
f 51/113/186 49/106/187 65/82/188 67/85/189
f 53/108/190 52/107/191 68/88/192 69/86/193
f 52/107/194 54/114/195 70/90/196 68/88/197
f 54/114/198 55/115/199 71/92/200 70/90/201
f 55/115/202 53/108/203 69/86/204 71/92/205
f 73/40/206 72/21/207 79/18/208 78/46/209 77/47/210 76/48/211 75/49/212 74/41/213
f 35/24/214 72/21/215 73/40/216 36/27/217 37/50/218 38/67/219 39/72/220 34/75/221
s 1
f 83/54/222 82/55/223 74/19/17 2/23/20 1/38/224
s 5
f 90/116/225 94/69/99 34/68/98 53/108/141 55/115/226
s 1
f 93/56/227 92/35/30 78/32/27 79/57/228 33/58/229
s 10
f 80/99/230 83/132/231 84/118/232 85/119/233
f 85/119/233 84/118/232 86/120/234 87/121/235
f 87/121/235 86/120/234 88/122/236 89/123/237
f 89/123/237 88/122/236 91/128/238 90/116/239
s 1
f 75/20/18 84/59/240 4/39/241 3/22/19
f 84/59/240 83/54/222 1/38/224 4/39/241
f 84/59/240 75/20/18 6/28/23 5/42/242
f 76/25/21 86/60/243 8/43/244 7/26/22
f 86/60/243 84/59/240 5/42/242 8/43/244
f 86/60/243 76/25/21 10/31/26 9/51/245
f 77/29/24 88/61/246 12/52/247 11/30/25
f 88/61/246 86/60/243 9/51/245 12/52/247
f 88/61/246 77/29/24 14/34/29 13/53/248
f 91/36/31 88/61/246 13/53/248 16/37/32
s 5
f 80/99/132 85/119/249 43/109/250 42/100/133
f 85/119/249 37/94/127 41/97/130 43/109/250
f 37/94/127 85/119/249 46/110/251 44/102/135
f 85/119/249 87/121/252 47/111/253 46/110/251
f 87/121/252 38/101/134 45/103/136 47/111/253
f 38/101/134 87/121/252 50/112/254 48/105/138
f 87/121/252 89/123/255 51/113/256 50/112/254
f 89/123/255 39/104/137 49/106/139 51/113/256
f 39/104/137 89/123/255 54/114/257 52/107/140
f 89/123/255 90/116/225 55/115/226 54/114/257
s off
f 80/91/258 81/62/259 82/125/260 83/131/261
f 90/130/262 91/127/263 92/126/264 93/64/265 94/87/266
f 80/93/267 81/63/268 82/125/269 83/117/270
f 91/124/271 92/126/272 93/65/273 94/89/274 90/129/275
