# This file uses meters as units for non-parametric coordinates.

v -27.187572 0.394712 19.561324
v 27.187555 0.394712 19.561324
v -27.187572 1.895795 19.561324
v 27.187555 17.163789 19.561324
v -27.187572 1.895795 -19.561324
v 27.187555 17.163789 -19.561324
v -27.187572 0.394712 -19.561324
v 27.187555 0.394712 -19.561324
v -24.310327 3.827404 16.760750
v 24.310277 17.479585 16.760750
v 24.310277 17.479585 -16.760773
v -24.310327 3.827404 -16.760773
v 24.310277 17.479585 0.000000
v -24.310327 3.827404 0.000000
v -23.837781 5.004138 15.950335
v 23.011534 18.158948 15.950335
v 23.011534 18.158948 0.810367
v -23.837781 5.004138 0.810367
v 23.011534 18.158948 -0.810367
v -23.837781 5.004138 -0.810367
v 23.011534 18.158948 -15.950406
v -23.837781 5.004138 -15.950406
vt 0.019062 0.007709
vt 0.019061 0.007709
vt 0.009839 0.007709
vt 0.009839 0.007709
vt 0.421858 0.098004
vt 0.421858 0.914224
vt 0.658195 0.914224
vt 0.658195 0.098004
vt 0.019061 0.016932
vt 0.009839 0.016932
vt 0.009839 0.008534
vt 0.019062 0.008534
vt 0.365490 0.030605
vt 0.365490 0.977941
vt 0.409208 0.932498
vt 0.409208 0.085418
vt 0.976201 0.977941
vt 0.932484 0.932498
vt 0.670845 0.932498
vt 0.976201 0.030605
vt 0.932484 0.085418
vt 0.670845 0.085418
vt 0.683495 0.098004
vt 0.683495 0.914224
vt 0.919834 0.914224
vt 0.919834 0.098004
vt 0.034065 0.959831
vt 0.026418 0.155045
vt 0.285300 0.235781
vt 0.057238 0.967058
vt 0.348561 0.215896
vt 0.325401 0.980893
vt 0.081204 0.973500
vt 0.326702 0.215234
vn 0.000000 0.000000 1.000000
vn 0.000000 0.000000 1.000000
vn 0.000000 0.000000 1.000000
vn 0.000000 0.000000 1.000000
vn -0.289247 0.951623 0.103684
vn -0.247304 0.968396 0.032413
vn -0.247304 0.968396 -0.032413
vn -0.289247 0.951623 -0.103684
vn 0.000000 0.000000 -1.000000
vn 0.000000 0.000000 -1.000000
vn 0.000000 0.000000 -1.000000
vn 0.000000 0.000000 -1.000000
vn 0.000000 -1.000000 0.000000
vn 0.000000 -1.000000 0.000000
vn 0.000000 -1.000000 0.000000
vn 0.000000 -1.000000 0.000000
vn 1.000000 0.000000 0.000000
vn 1.000000 0.000000 0.000000
vn 1.000000 0.000000 0.000000
vn 1.000000 0.000000 0.000000
vn -1.000000 0.000000 0.000000
vn -1.000000 0.000000 0.000000
vn -1.000000 0.000000 0.000000
vn -1.000000 0.000000 0.000000
vn -0.483381 0.869332 0.102981
vn -0.174860 0.942173 0.285890
vn -0.069852 0.942236 0.327584
vn -0.390181 0.883483 0.259261
vn -0.174859 0.942173 -0.285891
vn -0.069849 0.942235 -0.327588
vn 0.024784 0.999693 -0.000000
vn -0.483382 0.869331 -0.102980
vn -0.390181 0.883482 -0.259263
vn -0.593738 0.804659 -0.000000
vn -0.289247 0.951623 0.103684
vn -0.247304 0.968396 0.032413
vn -0.247304 0.968396 -0.032413
vn -0.289247 0.951623 -0.103684
s off
f 1/31/1 2/32/2 4/33/3 3/34/4
s 1
f 15/5/5 16/6/6 17/7/7 18/8/8
s off
f 5/27/9 6/28/10 8/29/11 7/30/12
f 7/1/13 8/2/14 2/3/15 1/4/16
f 2/3/17 8/2/18 6/9/19 4/10/20
f 7/1/21 1/4/22 3/11/23 5/12/24
s 1
f 3/13/25 4/14/26 10/15/27 9/16/28
f 4/14/26 6/17/29 11/18/30 13/19/31 10/15/27
f 6/17/29 5/20/32 12/21/33 11/18/30
f 5/20/32 3/13/25 9/16/28 14/22/34 12/21/33
f 20/23/35 19/24/36 21/25/37 22/26/38
f 9/16/28 10/15/27 16/6/6 15/5/5
f 10/15/27 13/19/31 17/7/7 16/6/6
f 13/19/31 14/22/34 18/8/8 17/7/7
f 14/22/34 9/16/28 15/5/5 18/8/8
f 14/22/34 13/19/31 19/24/36 20/23/35
f 13/19/31 11/18/30 21/25/37 19/24/36
f 11/18/30 12/21/33 22/26/38 21/25/37
f 12/21/33 14/22/34 20/23/35 22/26/38
