# This file uses meters as units for non-parametric coordinates.

v -15.945412 0.000000 31.435398
v 3.951332 0.000000 31.435398
v -15.945412 3.191467 31.435398
v 4.050865 3.191467 31.435398
v -15.945412 52.109528 -31.435406
v 4.027122 52.109528 -31.435406
v -15.945412 48.918060 -31.435406
v 4.021598 48.918060 -31.435406
v -15.945412 0.000000 47.872028
v 15.969261 0.000000 47.872028
v 15.969261 3.191467 47.872028
v -15.945412 3.191467 47.872028
v -15.945412 0.000000 -47.872036
v 15.969261 0.000000 -47.872036
v 5.432166 0.000000 31.435398
v 5.432166 0.000000 -31.435406
v -15.945412 0.000000 -31.435406
v 15.969261 3.191467 -47.872036
v -15.945412 3.191467 -47.872036
v -15.945412 3.191467 -31.435406
v 5.432166 3.191467 -31.435406
v 5.432166 3.191467 31.435398
v -15.945412 3.191467 46.460804
v 15.969261 3.191467 46.422268
v -14.086312 3.191467 47.872028
v -14.086785 3.191483 46.458561
v -14.091744 3.191467 31.435398
v -13.374566 52.109528 -31.435406
v -13.374566 3.191467 -31.435406
v -13.566689 3.191467 -47.872036
v -15.945412 3.191483 -45.478619
v -13.538430 3.191467 -45.454060
v 15.969245 3.191452 -45.153050
v -15.945412 17.511261 31.435398
v -14.091744 17.511261 31.435398
v -13.374566 66.429321 -31.435406
v -15.945412 66.429321 -31.435406
v -15.945412 17.511261 46.460804
v -14.086785 17.511276 46.458561
v -14.086312 17.511261 47.872028
v -15.945412 17.511261 47.872028
v 15.969261 17.511261 47.872028
v 15.969261 17.511261 46.422268
v -15.945412 17.511276 -45.478619
v -13.538430 17.511261 -45.454060
v -13.566689 17.511261 -47.872036
v -15.945412 17.511261 -47.872036
v 15.969245 17.511246 -45.153050
v 15.969261 17.511261 -47.872036
v -13.374566 17.511261 -31.435406
v -15.945412 17.511261 -31.435406
vt 0.313426 0.354288
vt 0.313426 0.364111
vt 0.015047 0.020125
vt 0.015047 0.020125
vt 0.015047 0.020125
vt 0.015047 0.019682
vt 0.015047 0.019682
vt 0.008990 0.012890
vt 0.008990 0.012890
vt 0.008990 0.013333
vt 0.016630 0.012890
vt 0.016630 0.012890
vt 0.499698 0.872164
vt 0.007407 0.012890
vt 0.007407 0.012890
vt 0.008990 0.012890
vt 0.933544 0.351418
vt 0.933544 0.519732
vt 0.880749 0.575543
vt 0.015047 0.012890
vt 0.015047 0.012890
vt 0.514093 0.575770
vt 0.829410 0.575770
vt 0.016630 0.013333
vt 0.016368 0.013333
vt 0.007547 0.013333
vt 0.007407 0.013333
vt 0.646434 0.367911
vt 0.754539 0.367913
vt 0.190743 0.202356
vt 0.880749 0.594895
vt 0.042316 0.526274
vt 0.042316 0.513220
vt 0.514093 0.598839
vt 0.829410 0.598839
vt 0.211903 0.202356
vt 0.916712 0.519732
vt 0.916712 0.361222
vt 0.008990 0.013333
vt 0.015047 0.022113
vt 0.646434 0.354288
vt 0.211322 0.363058
vt 0.042316 0.351142
vt 0.024802 0.351142
vt 0.784526 0.828093
vt 0.015047 0.022113
vt 0.007547 0.015321
vt 0.211903 0.343972
vt 0.190743 0.343972
vt 0.754539 0.521526
vt 0.211322 0.522467
vt 0.499698 0.891516
vt 0.980368 0.575543
vt 0.980368 0.594895
vt 0.971815 0.594895
vt 0.400078 0.575543
vt 0.499698 0.575543
vt 0.499698 0.594895
vt 0.414584 0.594895
vt 0.400078 0.594895
vt 0.880749 0.681725
vt 0.499698 0.978346
vt 0.971815 0.681725
vt 0.980368 0.681725
vt 0.414584 0.681725
vt 0.400078 0.681725
vt 0.499698 0.681725
vt 0.233841 0.354288
vt 0.233853 0.364137
vt 0.226366 0.354288
vt 0.226366 0.364139
vt 0.226366 0.523408
vt 0.234045 0.523408
vt 0.720817 0.354288
vt 0.720687 0.367043
vt 0.733494 0.366893
vt 0.733494 0.354288
vt 0.646434 0.367911
vt 0.941328 0.950113
vt 0.941328 0.985832
vt 0.784526 0.863812
vt 0.747058 0.828093
vt 0.747058 0.863812
vt 0.941328 0.828093
vt 0.976291 0.828093
vt 0.976291 0.863812
vt 0.941328 0.863812
vt 0.313426 0.364111
vt 0.313426 0.460251
vt 0.646434 0.460125
vt 0.719092 0.523408
vt 0.733494 0.523408
vt 0.646434 0.367911
vt 0.646434 0.354288
vt 0.233853 0.364137
vt 0.234045 0.523408
vt 0.719092 0.523408
vt 0.720687 0.367043
vt 0.646434 0.367911
vt 0.646434 0.467571
vt 0.313426 0.467571
vt 0.827726 0.521526
vt 0.827726 0.367913
vt 0.133962 0.522467
vt 0.133962 0.363058
vt 0.916712 0.351418
vt 0.841191 0.361222
vt 0.841191 0.351418
vt 0.841191 0.519732
vt 0.024802 0.526274
vt 0.120895 0.526274
vt 0.120895 0.513220
vt 0.120895 0.351142
vt 0.190743 0.219387
vt 0.095801 0.219387
vt 0.095801 0.202356
vt 0.007407 0.015321
vt 0.016630 0.015321
vt 0.016368 0.015321
vn 0.000000 0.789239 0.614087
vn 0.000000 0.789239 0.614087
vn 0.000000 0.789239 0.614087
vn 0.000000 0.789239 0.614087
vn 0.000000 0.000000 -1.000000
vn 0.000000 0.000000 -1.000000
vn 0.000000 0.000000 -1.000000
vn 0.000000 0.000000 -1.000000
vn 0.000000 0.000000 -1.000000
vn 0.000000 -0.789240 -0.614086
vn 0.000000 -0.789240 -0.614085
vn 0.000000 -0.789240 -0.614085
vn 0.000000 -0.789240 -0.614086
vn 0.999787 -0.016452 -0.012434
vn 0.999787 -0.016452 -0.012434
vn 0.999787 -0.016452 -0.012434
vn 0.999787 -0.016452 -0.012434
vn -1.000000 0.000000 0.000000
vn -1.000000 0.000000 0.000000
vn -1.000000 0.000000 0.000000
vn -1.000000 0.000000 0.000000
vn 0.000000 0.000000 1.000000
vn 0.000000 0.000000 1.000000
vn 0.000000 0.000000 1.000000
vn 0.000000 0.000000 1.000000
vn 0.000000 0.000000 1.000000
vn -1.000000 0.000000 0.000000
vn -1.000000 0.000000 0.000000
vn -1.000000 0.000000 0.000000
vn -1.000000 0.000000 0.000000
vn -1.000000 0.000000 0.000000
vn 0.000000 -1.000000 0.000000
vn 0.000000 -1.000000 0.000000
vn 0.000000 -1.000000 0.000000
vn 0.000000 -1.000000 0.000000
vn 0.000000 -1.000000 0.000000
vn 0.000000 -1.000000 0.000000
vn 0.000000 -1.000000 0.000000
vn 0.000000 -1.000000 0.000000
vn 0.000000 -1.000000 0.000000
vn 1.000000 0.000000 0.000000
vn 1.000000 0.000000 0.000000
vn 1.000000 0.000000 0.000000
vn 1.000000 0.000000 0.000000
vn 1.000000 0.000000 0.000000
vn 1.000000 0.000000 0.000000
vn -0.000004 1.000000 -0.000001
vn -0.000002 1.000000 -0.000000
vn -0.000004 1.000000 -0.000001
vn -0.000004 1.000000 -0.000001
vn -1.000000 -0.000001 0.000000
vn -1.000000 -0.000001 0.000000
vn -1.000000 -0.000001 0.000000
vn -1.000000 -0.000001 0.000000
vn -1.000000 -0.000001 0.000000
vn 0.000000 0.000000 -1.000000
vn 0.000000 0.000000 -1.000000
vn 0.000000 0.000000 -1.000000
vn 0.000000 0.000000 -1.000000
vn 0.000000 0.000000 -1.000000
vn 0.000000 0.000000 -1.000000
vn 0.000000 0.000000 -1.000000
vn 0.000000 0.000000 -1.000000
vn 0.000000 0.000000 -1.000000
vn -1.000000 0.000000 0.000000
vn -1.000000 0.000000 0.000000
vn -1.000000 0.000000 0.000000
vn -1.000000 0.000000 0.000000
vn 0.000000 0.000000 1.000000
vn 0.000000 0.000000 1.000000
vn 0.000000 0.000000 1.000000
vn 0.000000 0.000000 1.000000
vn 0.000000 0.000000 1.000000
vn -0.000004 1.000000 0.000000
vn 0.000000 1.000000 0.000000
vn 0.000000 1.000000 0.000000
vn 0.000000 1.000000 0.000000
vn 0.000003 1.000000 0.000000
vn 0.000001 1.000000 0.000002
vn 0.000000 1.000000 0.000003
vn 0.000003 1.000000 0.000000
vn 0.000000 0.789239 0.614086
vn 0.000000 0.789240 0.614086
vn 0.000000 0.789239 0.614086
vn 0.000000 0.789240 0.614086
vn 0.000000 1.000000 0.000003
vn 0.000000 1.000000 0.000003
vn 0.000003 1.000000 0.000000
vn 0.000003 1.000000 0.000000
vn 0.000001 1.000000 0.000000
vn 0.000001 1.000000 0.000000
vn 0.000001 1.000000 0.000000
vn 0.000001 1.000000 0.000000
vn 0.000001 1.000000 0.000000
vn 0.000001 1.000000 0.000000
vn 0.000001 1.000000 0.000000
vn 0.000001 1.000000 0.000000
vn 0.000001 1.000000 0.000000
vn 0.999935 0.000000 0.011406
vn 0.999935 0.000000 0.011406
vn 0.999935 0.000000 0.011406
vn 0.999935 0.000000 0.011406
vn 0.000000 0.000000 -1.000000
vn 0.000000 0.000000 -1.000000
vn 0.000000 0.000000 -1.000000
vn 0.000000 0.000000 -1.000000
vn -1.000000 0.000000 0.000000
vn -1.000000 0.000000 0.000000
vn -1.000000 0.000000 0.000000
vn -1.000000 0.000000 0.000000
vn 1.000000 0.000000 -0.000330
vn 1.000000 0.000000 -0.000330
vn 1.000000 0.000000 -0.000330
vn 1.000000 0.000000 -0.000330
vn -1.000000 0.000000 0.000000
vn -1.000000 0.000000 0.000000
vn -1.000000 0.000000 0.000000
vn -1.000000 0.000000 0.000000
vn 0.000000 0.000000 1.000000
vn 0.000000 0.000000 1.000000
vn 0.000000 0.000000 1.000000
vn 0.000000 0.000000 1.000000
vn -1.000000 0.000000 0.000000
vn -1.000000 0.000000 0.000000
vn -1.000000 0.000000 0.000000
vn -1.000000 0.000000 0.000000
vn 0.000000 0.000000 1.000000
vn 0.000000 0.000000 1.000000
vn 0.000000 0.000000 1.000000
vn 0.000000 0.000000 1.000000
vn 1.000000 0.000000 0.000000
vn 1.000000 0.000000 0.000000
vn 1.000000 0.000000 0.000000
vn 1.000000 0.000000 0.000000
vn -0.001208 0.000000 -0.999999
vn -0.001208 0.000000 -0.999999
vn -0.001208 0.000000 -0.999999
vn -0.001208 0.000000 -0.999999
vn 0.000000 0.000000 -1.000000
vn 0.000000 0.000000 -1.000000
vn 0.000000 0.000000 -1.000000
vn 0.000000 0.000000 -1.000000
vn -1.000000 0.000000 0.000000
vn -1.000000 0.000000 0.000000
vn -1.000000 0.000000 0.000000
vn -1.000000 0.000000 0.000000
vn -0.010201 0.000000 0.999948
vn -0.010201 0.000000 0.999948
vn -0.010201 0.000000 0.999948
vn -0.010201 0.000000 0.999948
vn 1.000000 0.000000 0.000006
vn 1.000000 0.000000 0.000006
vn 1.000000 0.000000 0.000006
vn 1.000000 0.000000 0.000006
vn 0.000000 0.000000 -1.000000
vn 0.000000 0.000000 -1.000000
vn 0.000000 0.000000 -1.000000
vn 0.000000 0.000000 -1.000000
vn 0.999932 0.000000 -0.011688
vn 0.999932 0.000000 -0.011688
vn 0.999932 0.000000 -0.011688
vn 0.999932 0.000000 -0.011688
vn -1.000000 0.000000 0.000000
vn -1.000000 0.000000 0.000000
vn -1.000000 0.000000 0.000000
vn -1.000000 0.000000 0.000000
vn 0.000000 0.000000 1.000000
vn 0.000000 0.000000 1.000000
vn 0.000000 0.000000 1.000000
vn 0.000000 0.000000 1.000000
s off
f 34/1/1 35/2/2 36/28/3 37/41/4
f 5/3/5 28/4/6 6/5/7 8/6/8 7/7/9
f 7/7/10 8/6/11 2/8/12 1/9/13
f 2/8/14 8/6/15 6/5/16 4/10/17
f 7/13/18 1/19/19 3/31/20 5/52/21
f 9/17/22 10/18/23 11/37/24 25/38/25 12/106/26
f 1/19/27 9/53/28 12/54/29 23/55/30 3/31/31
f 13/11/32 14/12/33 10/14/34 9/15/35 1/9/36 2/8/37 15/16/38 16/20/39 17/21/40
f 10/14/41 14/12/42 18/24/43 33/25/44 24/26/45 11/27/46
s 1
f 38/68/47 39/69/48 35/2/49 34/1/50
s off
f 13/56/51 17/57/52 20/58/53 31/59/54 19/60/55
f 19/32/56 30/33/57 18/43/58 14/44/59 13/110/60
f 2/8/61 4/10/62 22/39/63 15/16/64
f 15/22/65 22/34/66 21/35/67 16/23/68
f 20/30/69 17/36/70 16/48/71 21/49/72 29/114/73
s 1
f 41/70/74 40/71/75 39/69/48 38/68/47
f 39/69/48 40/71/75 42/72/76 43/73/77
s 2
f 44/74/78 45/75/79 46/76/80 47/77/81
s off
f 28/78/82 27/88/83 4/89/84 6/90/85
s 2
f 45/75/79 48/91/86 49/92/87 46/76/80
f 50/93/88 45/75/79 44/74/78 51/94/89
s off
f 27/88/90 26/95/91 24/96/92 33/97/93 32/98/94 29/99/95 21/100/96 22/101/97 4/89/98
f 27/45/99 28/79/100 36/80/101 35/81/102
f 28/4/103 5/3/104 37/40/105 36/46/106
f 5/52/107 3/31/108 34/61/109 37/62/110
f 26/82/111 27/45/112 35/81/113 39/83/114
f 3/31/115 23/55/116 38/63/117 34/61/118
f 12/106/119 25/38/120 40/107/121 41/108/122
f 23/55/123 12/54/124 41/64/125 38/63/126
f 25/38/127 11/37/128 42/109/129 40/107/130
f 11/27/131 24/26/132 43/47/133 42/117/134
f 24/29/135 26/50/136 39/102/137 43/103/138
f 30/33/139 19/32/140 47/111/141 46/112/142
f 19/60/143 31/59/144 44/65/145 47/66/146
f 32/42/147 33/51/148 48/104/149 45/105/150
f 33/25/151 18/24/152 49/118/153 48/119/154
f 18/43/155 30/33/156 46/112/157 49/113/158
f 29/84/159 32/85/160 45/86/161 50/87/162
f 31/59/163 20/58/164 51/67/165 44/65/166
f 20/30/167 29/114/168 50/115/169 51/116/170
