# This file uses meters as units for non-parametric coordinates.

v -1.627314 2.198746 -3.808334
v -1.627314 -2.198746 -3.808334
v -1.627314 -4.397491 0.000000
v -1.627314 -2.198746 3.808334
v -1.627314 2.198746 3.808334
v -1.627314 4.397491 0.000000
v -3.792368 2.463264 -4.266495
v -3.792368 -2.463264 -4.266495
v -3.792368 -4.926529 0.000000
v -3.792368 -2.463264 4.266495
v -3.792368 2.463264 4.266495
v -3.792368 4.926529 0.000000
v -6.292368 2.500000 -4.330124
v -6.292368 -2.500000 -4.330124
v -6.292368 -5.000000 0.000000
v -6.292368 -2.500000 4.330124
v -6.292368 2.500000 4.330124
v -6.292368 5.000000 0.000000
v -8.792368 2.165066 -3.750000
v -8.792368 -2.165062 -3.750000
v -8.792368 -4.330128 0.000000
v -8.792368 -2.165066 3.750000
v -8.792368 2.165062 3.750000
v -8.792368 4.330132 0.000000
v -10.622492 1.250000 -2.165070
v -10.622492 -1.250000 -2.165070
v -10.622492 -2.500000 0.000000
v -10.622492 -1.250000 2.165070
v -10.622492 1.250000 2.165070
v -10.622492 2.500000 0.000000
v -11.292368 0.000000 0.000000
v 0.000006 2.198746 -3.808350
v 0.000006 -2.198746 -3.808350
v 0.000006 -0.000000 0.000000
v 0.000006 -4.397491 0.000000
v 0.000006 -2.198746 3.808350
v 0.000006 2.198746 3.808350
v 0.000006 4.397491 0.000000
v -1.627314 2.718102 -4.707886
v -1.627314 -2.718098 -4.707886
v 0.000006 2.718102 -4.707886
v 0.000006 -2.718094 -4.707886
v -1.627314 -5.436192 0.000000
v 0.000006 -5.436192 0.000000
v -1.627314 -2.718094 4.707886
v 0.000006 -2.718094 4.707886
v -1.627314 2.718098 4.707886
v 0.000006 2.718098 4.707886
v -1.627314 5.436195 0.000000
v 0.000006 5.436195 0.000000
vt 0.984992 0.249792
vt 0.984996 0.368645
vt 0.985001 0.487498
vt 0.985005 0.606350
vt 0.985009 0.725203
vt 0.985013 0.844056
vt 0.985018 0.962908
vt 0.866140 0.249796
vt 0.866144 0.368649
vt 0.866148 0.487502
vt 0.866152 0.606354
vt 0.866157 0.725207
vt 0.866161 0.844060
vt 0.866165 0.962912
vt 0.747287 0.249801
vt 0.747291 0.368653
vt 0.747295 0.487506
vt 0.747300 0.606359
vt 0.747304 0.725212
vt 0.747308 0.844064
vt 0.747312 0.962917
vt 0.628434 0.249805
vt 0.628438 0.368657
vt 0.628443 0.487510
vt 0.628447 0.606363
vt 0.628451 0.725216
vt 0.628456 0.844068
vt 0.628460 0.962921
vt 0.509581 0.249809
vt 0.509586 0.368662
vt 0.509590 0.487515
vt 0.509594 0.606367
vt 0.509598 0.725220
vt 0.509603 0.844073
vt 0.509607 0.962925
vt 0.043983 0.041458
vt 0.045520 0.041458
vt 0.047058 0.041458
vt 0.048595 0.041458
vt 0.050132 0.041458
vt 0.051669 0.041458
vt 0.390731 0.309240
vt 0.390735 0.428092
vt 0.390740 0.546945
vt 0.390744 0.665798
vt 0.390748 0.784651
vt 0.390752 0.903503
vt 0.044752 0.042995
vt 0.043215 0.042995
vt 0.046289 0.042995
vt 0.047826 0.042995
vt 0.049363 0.042995
vt 0.050900 0.042995
vt 0.052437 0.042995
vt 0.330934 0.326314
vt 0.330934 0.488001
vt 0.043215 0.042995
vt 0.044752 0.042995
vt 0.364008 0.507097
vt 0.046289 0.042995
vt 0.364008 0.307218
vt 0.047826 0.042995
vt 0.190908 0.245470
vt 0.049363 0.042995
vt 0.190908 0.207279
vt 0.050900 0.042995
vt 0.050883 0.326314
vt 0.052437 0.042995
vt 0.035358 0.175452
vt 0.789640 0.175452
vt 0.035358 0.108240
vt 0.186214 0.175452
vt 0.186214 0.108240
vt 0.337071 0.175452
vt 0.337071 0.108240
vt 0.487927 0.175452
vt 0.487927 0.108240
vt 0.638783 0.175452
vt 0.638783 0.108240
vt 0.940496 0.175452
vt 0.789640 0.108240
vt 0.940496 0.108240
vt 0.017808 0.307219
vt 0.050883 0.488001
vt 0.017808 0.507097
vt 0.190908 0.568845
vt 0.190908 0.607036
vn 0.207031 -0.000000 -0.978334
vn 0.207031 -0.000000 -0.978334
vn 0.207031 -0.000000 -0.978334
vn 0.207031 -0.000000 -0.978334
vn 0.207031 -0.847262 -0.489168
vn 0.207031 -0.847262 -0.489168
vn 0.207031 -0.847262 -0.489168
vn 0.207031 -0.847262 -0.489168
vn 0.207031 -0.847262 0.489168
vn 0.207031 -0.847262 0.489168
vn 0.207031 -0.847262 0.489168
vn 0.207031 -0.847262 0.489168
vn 0.207031 -0.000000 0.978334
vn 0.207031 -0.000000 0.978334
vn 0.207031 -0.000000 0.978334
vn 0.207031 -0.000000 0.978334
vn 0.207031 0.847262 0.489168
vn 0.207031 0.847262 0.489168
vn 0.207031 0.847262 0.489168
vn 0.207031 0.847262 0.489168
vn 0.207031 0.847262 -0.489168
vn 0.207031 0.847262 -0.489168
vn 0.207031 0.847262 -0.489168
vn 0.207031 0.847262 -0.489168
vn 0.025443 -0.000000 -0.999676
vn 0.025443 -0.000000 -0.999676
vn 0.025443 -0.000000 -0.999676
vn 0.025443 -0.000000 -0.999676
vn 0.025443 -0.865745 -0.499839
vn 0.025443 -0.865745 -0.499839
vn 0.025443 -0.865745 -0.499839
vn 0.025443 -0.865745 -0.499839
vn 0.025443 -0.865745 0.499839
vn 0.025443 -0.865745 0.499839
vn 0.025443 -0.865745 0.499839
vn 0.025443 -0.865745 0.499839
vn 0.025443 -0.000000 0.999676
vn 0.025443 -0.000000 0.999676
vn 0.025443 -0.000000 0.999676
vn 0.025443 -0.000000 0.999676
vn 0.025443 0.865745 0.499839
vn 0.025443 0.865745 0.499839
vn 0.025443 0.865745 0.499839
vn 0.025443 0.865745 0.499839
vn 0.025443 0.865745 -0.499839
vn 0.025443 0.865745 -0.499839
vn 0.025443 0.865745 -0.499839
vn 0.025443 0.865745 -0.499839
vn -0.226044 0.000000 -0.974117
vn -0.226043 0.000000 -0.974117
vn -0.226044 0.000000 -0.974117
vn -0.226043 0.000000 -0.974117
vn -0.226044 -0.843610 -0.487059
vn -0.226044 -0.843610 -0.487059
vn -0.226045 -0.843610 -0.487059
vn -0.226045 -0.843610 -0.487059
vn -0.226044 -0.843610 0.487059
vn -0.226044 -0.843610 0.487059
vn -0.226044 -0.843610 0.487059
vn -0.226044 -0.843610 0.487059
vn -0.226044 0.000000 0.974117
vn -0.226043 0.000000 0.974117
vn -0.226044 0.000000 0.974117
vn -0.226043 0.000000 0.974117
vn -0.226044 0.843610 0.487059
vn -0.226044 0.843610 0.487059
vn -0.226044 0.843610 0.487059
vn -0.226044 0.843610 0.487059
vn -0.226043 0.843610 -0.487059
vn -0.226043 0.843610 -0.487059
vn -0.226043 0.843610 -0.487059
vn -0.226043 0.843610 -0.487059
vn -0.654653 0.000000 -0.755930
vn -0.654653 0.000000 -0.755930
vn -0.654653 0.000000 -0.755930
vn -0.654653 0.000000 -0.755930
vn -0.654654 -0.654654 -0.377964
vn -0.654654 -0.654654 -0.377964
vn -0.654654 -0.654654 -0.377964
vn -0.654654 -0.654654 -0.377964
vn -0.654654 -0.654653 0.377964
vn -0.654654 -0.654654 0.377964
vn -0.654654 -0.654654 0.377964
vn -0.654654 -0.654654 0.377964
vn -0.654653 0.000000 0.755930
vn -0.654653 0.000000 0.755930
vn -0.654653 0.000000 0.755930
vn -0.654653 0.000000 0.755930
vn -0.654654 0.654653 0.377964
vn -0.654654 0.654653 0.377964
vn -0.654654 0.654653 0.377964
vn -0.654654 0.654653 0.377964
vn -0.654655 0.654653 -0.377964
vn -0.654655 0.654653 -0.377964
vn -0.654655 0.654653 -0.377964
vn -0.654655 0.654653 -0.377964
vn 1.000000 -0.000000 -0.000000
vn 1.000000 -0.000000 -0.000000
vn 1.000000 -0.000000 0.000000
vn 1.000000 -0.000000 -0.000000
vn 1.000000 -0.000000 0.000000
vn 1.000000 -0.000000 0.000000
vn 1.000000 -0.000000 0.000000
vn 1.000000 -0.000000 0.000000
vn 1.000000 -0.000000 0.000000
vn 1.000000 -0.000000 -0.000000
vn 1.000000 -0.000000 0.000000
vn 1.000000 -0.000000 0.000000
vn -0.955319 0.000000 -0.295577
vn -0.955319 0.000000 -0.295577
vn -0.955319 0.000000 -0.295577
vn -0.955319 -0.255978 -0.147789
vn -0.955319 -0.255978 -0.147789
vn -0.955319 -0.255978 -0.147789
vn -0.955319 -0.255978 0.147789
vn -0.955319 -0.255978 0.147789
vn -0.955319 -0.255978 0.147789
vn -0.955319 0.000000 0.295577
vn -0.955319 0.000000 0.295577
vn -0.955319 0.000000 0.295577
vn -0.955319 0.255978 0.147789
vn -0.955319 0.255978 0.147789
vn -0.955319 0.255978 0.147789
vn -0.955319 0.255978 -0.147789
vn -0.955319 0.255978 -0.147789
vn -0.955319 0.255978 -0.147789
vn 0.000000 0.000000 -1.000000
vn 0.000000 0.000000 -1.000000
vn 0.000000 0.000000 -1.000000
vn 0.000000 0.000000 -1.000000
vn 0.000001 -0.866026 -0.500000
vn 0.000001 -0.866026 -0.500000
vn 0.000001 -0.866026 -0.500000
vn 0.000001 -0.866026 -0.500000
vn -0.000000 -0.866026 0.500000
vn -0.000000 -0.866026 0.500000
vn -0.000000 -0.866026 0.500000
vn -0.000000 -0.866026 0.500000
vn 0.000000 0.000000 1.000000
vn 0.000000 0.000000 1.000000
vn 0.000000 0.000000 1.000000
vn 0.000000 0.000000 1.000000
vn 0.000000 0.866026 0.500000
vn 0.000000 0.866026 0.500000
vn 0.000000 0.866026 0.500000
vn 0.000000 0.866026 0.500000
vn 0.000000 0.866026 -0.499999
vn 0.000000 0.866026 -0.499999
vn 0.000000 0.866026 -0.499999
vn 0.000000 0.866026 -0.499999
vn -1.000000 0.000000 -0.000000
vn -1.000000 0.000000 -0.000000
vn -1.000000 0.000000 -0.000000
vn -1.000000 0.000000 -0.000000
vn 1.000000 -0.000000 -0.000000
vn 1.000000 -0.000000 -0.000000
vn -1.000000 0.000000 0.000000
vn -1.000000 0.000000 0.000000
vn 1.000000 -0.000000 -0.000000
vn -1.000000 0.000000 0.000000
vn -1.000000 0.000000 0.000000
vn 1.000000 -0.000000 0.000000
vn -1.000000 0.000000 0.000000
vn -1.000000 0.000000 0.000000
vn 1.000000 -0.000000 0.000000
vn -1.000000 0.000000 0.000000
vn -1.000000 0.000000 0.000000
vn 1.000000 -0.000000 -0.000000
s off
f 1/1/1 2/2/2 8/9/3 7/8/4
f 2/2/5 3/3/6 9/10/7 8/9/8
f 3/3/9 4/4/10 10/11/11 9/10/12
f 4/4/13 5/5/14 11/12/15 10/11/16
f 5/5/17 6/6/18 12/13/19 11/12/20
f 6/6/21 1/7/22 7/14/23 12/13/24
f 7/8/25 8/9/26 14/16/27 13/15/28
f 8/9/29 9/10/30 15/17/31 14/16/32
f 9/10/33 10/11/34 16/18/35 15/17/36
f 10/11/37 11/12/38 17/19/39 16/18/40
f 11/12/41 12/13/42 18/20/43 17/19/44
f 12/13/45 7/14/46 13/21/47 18/20/48
f 13/15/49 14/16/50 20/23/51 19/22/52
f 14/16/53 15/17/54 21/24/55 20/23/56
f 15/17/57 16/18/58 22/25/59 21/24/60
f 16/18/61 17/19/62 23/26/63 22/25/64
f 17/19/65 18/20/66 24/27/67 23/26/68
f 18/20/69 13/21/70 19/28/71 24/27/72
f 19/22/73 20/23/74 26/30/75 25/29/76
f 20/23/77 21/24/78 27/31/79 26/30/80
f 21/24/81 22/25/82 28/32/83 27/31/84
f 22/25/85 23/26/86 29/33/87 28/32/88
f 23/26/89 24/27/90 30/34/91 29/33/92
f 24/27/93 19/28/94 25/35/95 30/34/96
s 1
f 33/48/97 32/49/98 34/36/99
f 35/50/100 33/48/97 34/37/101
f 36/51/102 35/50/100 34/38/103
f 37/52/104 36/51/102 34/39/105
f 38/53/106 37/52/104 34/40/107
f 32/54/98 38/53/106 34/41/108
s off
f 25/29/109 26/30/110 31/42/111
f 26/30/112 27/31/113 31/43/114
f 27/31/115 28/32/116 31/44/117
f 28/32/118 29/33/119 31/45/120
f 29/33/121 30/34/122 31/46/123
f 30/34/124 25/35/125 31/47/126
f 40/80/127 39/70/128 41/81/129 42/82/130
f 43/72/131 40/69/132 42/71/133 44/73/134
f 45/74/135 43/72/136 44/73/137 46/75/138
f 47/76/139 45/74/140 46/75/141 48/77/142
f 49/78/143 47/76/144 48/77/145 50/79/146
f 39/70/147 49/78/148 50/79/149 41/81/150
s 7
f 2/55/151 1/56/152 39/59/153 40/61/154
s 1
f 32/49/98 33/48/97 42/58/155 41/57/156
s 7
f 3/63/157 2/55/151 40/61/154 43/65/158
s 1
f 33/48/97 35/50/100 44/60/159 42/58/155
s 7
f 4/67/160 3/63/157 43/65/158 45/83/161
s 1
f 35/50/100 36/51/102 46/62/162 44/60/159
s 7
f 5/84/163 4/67/160 45/83/161 47/85/164
s 1
f 36/51/102 37/52/104 48/64/165 46/62/162
s 7
f 6/86/166 5/84/163 47/85/164 49/87/167
s 1
f 37/52/104 38/53/106 50/66/168 48/64/165
s 7
f 1/56/152 6/86/166 49/87/167 39/59/153
s 1
f 38/53/106 32/54/98 41/68/156 50/66/168
