# This file uses meters as units for non-parametric coordinates.

v -118.041782 -0.000000 98.253963
v 118.041791 -0.000000 98.253963
v -118.041782 10.000000 98.253963
v 118.041791 10.000000 98.253963
v -118.041782 10.000000 -98.253978
v 118.041791 10.000000 -98.253978
v -118.041782 -0.000000 -98.253978
v 118.041791 -0.000000 -98.253978
v 72.627080 10.000000 98.253963
v 72.627080 10.000000 -98.253978
v 72.627080 -0.000000 -98.253978
v 72.627080 -0.000000 98.253963
v -72.627089 10.000000 98.253963
v -72.627089 10.000000 -98.253978
v -72.627089 -0.000000 -98.253978
v -72.627089 -0.000000 98.253963
v -117.220608 14.233695 98.253963
v -73.448249 14.233695 98.253963
v -73.448249 14.233695 -98.253978
v -117.220608 14.233695 -98.253978
v 73.448254 14.233696 98.253963
v 117.220617 14.233696 98.253963
v 117.220617 14.233696 -98.253978
v 73.448254 14.233696 -98.253978
vt 0.032892 0.031315
vt 0.032892 0.031315
vt 0.032892 0.022985
vt 0.032892 0.022985
vt 0.021034 0.022985
vt 0.021034 0.022985
vt 0.021034 0.031315
vt 0.021034 0.031315
vt 0.032892 0.031315
vt 0.021034 0.031315
vt 0.021034 0.022985
vt 0.032892 0.022985
vt 0.021034 0.031315
vt 0.021034 0.022985
vt 0.032892 0.031315
vt 0.032892 0.022985
vt 0.032892 0.019458
vt 0.032892 0.019458
vt 0.021034 0.019458
vt 0.021034 0.019458
vt 0.032892 0.019458
vt 0.032892 0.019458
vt 0.021034 0.019458
vt 0.021034 0.019458
vt 0.031118 0.893016
vt 0.206207 0.893016
vt 0.206207 0.106984
vt 0.031118 0.106984
vt 0.793793 0.893016
vt 0.968883 0.893016
vt 0.968883 0.106984
vt 0.793793 0.106984
vt 0.209492 0.893016
vt 0.790508 0.893016
vt 0.790508 0.106984
vt 0.209492 0.106984
vn 0.000000 0.000000 1.000000
vn 0.000000 0.000000 1.000000
vn 0.000000 0.000000 1.000000
vn 0.000000 0.000000 1.000000
vn 0.000000 1.000000 0.000000
vn 0.000000 1.000000 0.000000
vn 0.000000 1.000000 0.000000
vn 0.000000 1.000000 0.000000
vn 0.000000 0.000000 -1.000000
vn 0.000000 0.000000 -1.000000
vn 0.000000 0.000000 -1.000000
vn 0.000000 0.000000 -1.000000
vn 0.000000 -1.000000 0.000000
vn 0.000000 -1.000000 0.000000
vn 0.000000 -1.000000 0.000000
vn 0.000000 -1.000000 0.000000
vn 1.000000 0.000000 0.000000
vn 1.000000 0.000000 0.000000
vn 0.998340 0.057596 0.000000
vn 0.998340 0.057596 0.000000
vn -1.000000 0.000000 0.000000
vn -1.000000 0.000000 0.000000
vn -0.998340 0.057596 0.000000
vn -0.998340 0.057596 0.000000
vn 0.000000 1.000000 0.000000
vn 0.000000 1.000000 0.000000
vn 0.000000 1.000000 0.000000
vn 0.000000 1.000000 0.000000
vn 0.000000 0.000000 -1.000000
vn 0.000000 0.000000 -1.000000
vn 0.000000 0.000000 -1.000000
vn 0.000000 0.000000 -1.000000
vn 0.000000 -1.000000 0.000000
vn 0.000000 -1.000000 0.000000
vn 0.000000 -1.000000 0.000000
vn 0.000000 -1.000000 0.000000
vn 0.000000 0.000000 1.000000
vn 0.000000 0.000000 1.000000
vn 0.000000 0.000000 1.000000
vn 0.000000 0.000000 1.000000
vn 0.000000 1.000000 0.000000
vn 0.000000 1.000000 0.000000
vn 0.000000 1.000000 0.000000
vn 0.000000 1.000000 0.000000
vn 0.000000 0.000000 1.000000
vn 0.000000 0.000000 1.000000
vn 0.981705 0.190409 0.000000
vn 0.981705 0.190409 0.000000
vn 0.981705 0.190409 0.000000
vn 0.981705 0.190409 0.000000
vn 0.000000 0.000000 -1.000000
vn 0.000000 0.000000 -1.000000
vn -0.981704 0.190413 0.000000
vn -0.981704 0.190413 0.000000
vn 0.000000 0.000000 1.000000
vn 0.000000 0.000000 1.000000
vn 0.981705 0.190410 0.000000
vn 0.981705 0.190410 0.000000
vn 0.000000 0.000000 -1.000000
vn 0.000000 0.000000 -1.000000
vn -0.981704 0.190413 0.000000
vn -0.981704 0.190413 0.000000
vn -0.981704 0.190413 0.000000
vn -0.981704 0.190413 0.000000
s 1
f 1/1/1 16/2/2 13/3/3 3/4/4
s off
f 17/25/5 18/26/6 19/27/7 20/28/8
s 2
f 5/5/9 14/6/10 15/7/11 7/8/12
s 3
f 7/8/13 15/7/14 16/2/15 1/1/16
s 4
f 2/9/17 8/10/18 6/11/19 4/12/20
s 5
f 7/8/21 1/1/22 3/4/23 5/5/24
s off
f 21/29/25 22/30/26 23/31/27 24/32/28
s 2
f 11/13/29 10/14/30 6/11/31 8/10/32
s 3
f 12/15/33 11/13/34 8/10/35 2/9/36
s 1
f 9/16/37 12/15/38 2/9/39 4/12/40
s off
f 13/33/41 9/34/42 10/35/43 14/36/44
s 2
f 15/7/11 14/6/10 10/14/30 11/13/29
s 3
f 16/2/15 15/7/14 11/13/34 12/15/33
s 1
f 13/3/3 16/2/2 12/15/38 9/16/37
f 3/4/4 13/3/3 18/17/45 17/18/46
s off
f 13/33/47 14/36/48 19/27/49 18/26/50
s 2
f 14/6/10 5/5/9 20/19/51 19/20/52
s 5
f 5/5/24 3/4/23 17/18/53 20/19/54
s 1
f 9/16/37 4/12/40 22/21/55 21/22/56
s 4
f 4/12/20 6/11/19 23/23/57 22/21/58
s 2
f 6/11/31 10/14/30 24/24/59 23/23/60
s off
f 10/35/61 9/34/62 21/29/63 24/32/64
