# This file uses meters as units for non-parametric coordinates.

v -2.044158 89.329506 -38.113625
v -2.044158 88.103279 -38.621544
v -2.044158 86.877052 -38.113625
v -2.044158 86.369133 -36.887402
v -2.044158 86.877052 -35.661179
v -2.044158 88.103279 -35.153259
v -2.044158 89.329506 -35.661179
v -2.044158 89.837425 -36.887402
v -2.753295 90.369041 -39.153168
v -2.753295 88.103279 -40.091679
v -2.753295 85.837517 -39.153168
v -2.753295 84.898994 -36.887402
v -2.753295 85.837517 -34.621635
v -2.753295 88.103279 -33.683125
v -2.753295 90.369041 -34.621635
v -2.753295 91.307564 -36.887402
v -3.814592 91.063652 -39.847767
v -3.814592 88.103279 -41.073994
v -3.814592 85.142906 -39.847767
v -3.814592 83.916695 -36.887402
v -3.814592 85.142906 -33.927036
v -3.814592 88.103279 -32.700809
v -3.814592 91.063652 -33.927036
v -3.814592 92.289864 -36.887402
v -5.066476 91.307564 -40.091679
v -5.066476 88.103279 -41.418934
v -5.066476 84.898994 -40.091679
v -5.066476 83.571739 -36.887402
v -5.066476 84.898994 -33.683125
v -5.066476 88.103279 -32.355869
v -5.066476 91.307564 -33.683125
v -5.066476 92.634819 -36.887402
v -6.318362 91.063652 -39.847767
v -6.318362 88.103279 -41.073994
v -6.318362 85.142906 -39.847767
v -6.318362 83.916695 -36.887402
v -6.318362 85.142906 -33.927036
v -6.318362 88.103279 -32.700809
v -6.318362 91.063652 -33.927036
v -6.318362 92.289864 -36.887402
v -7.379659 90.369041 -39.153168
v -7.379659 88.103279 -40.091679
v -7.379659 85.837517 -39.153168
v -7.379659 84.898994 -36.887402
v -7.379659 85.837517 -34.621635
v -7.379659 88.103279 -33.683125
v -7.379659 90.369041 -34.621635
v -7.379659 91.307564 -36.887402
v -8.088795 89.329506 -38.113625
v -8.088795 88.103279 -38.621544
v -8.088795 86.877052 -38.113625
v -8.088795 86.369133 -36.887402
v -8.088795 86.877052 -35.661179
v -8.088795 88.103279 -35.153259
v -8.088795 89.329506 -35.661179
v -8.088795 89.837425 -36.887402
v -8.337811 88.103279 -36.887402
v 0.756112 89.329506 -38.113625
v 0.756111 88.103279 -38.621544
v 0.756111 86.877052 -38.113625
v 0.756111 86.369133 -36.887402
v 0.756112 86.877052 -35.661179
v 0.756112 88.103279 -35.153259
v 0.756112 89.329506 -35.661179
v 0.756112 89.837425 -36.887402
v 0.647056 0.000000 41.418934
v 8.337811 0.000000 41.418934
v 0.647056 181.478363 41.418934
v 8.337811 181.478363 41.418934
v 0.647056 181.478363 -40.645290
v 8.337811 181.478363 -40.645290
v 0.647056 0.000000 -40.645290
v 8.337811 0.000000 -40.645290
v 0.647056 123.497047 41.418934
v 0.647056 123.497047 -40.645290
v 8.337811 123.497032 -40.645290
v 8.337811 123.497032 41.418934
v 0.647056 128.922089 -31.685026
v 0.647056 171.685760 -31.685026
v 0.647056 128.922089 0.202058
v 0.647056 0.000000 0.202058
v 8.337811 0.000000 0.202058
v 8.337811 123.497047 0.202058
v 8.337811 181.478363 0.202058
v 0.647056 181.478394 0.202058
v 0.647056 171.685760 0.202058
v 0.647056 171.685760 33.155083
v 0.647056 128.922089 33.155083
v 0.647056 10.850044 -31.685026
v 0.647056 10.850044 -4.330283
v 0.647056 10.850044 4.734400
v 0.647056 10.850044 33.155083
v 0.647056 118.072014 -31.685026
v 0.647056 118.072014 -4.330283
v 0.647056 118.072014 4.734400
v 0.647056 118.072014 33.155083
v 3.560306 171.685760 -31.685026
v 3.560306 128.922089 -31.685026
v 3.560306 128.922089 0.202058
v 3.560306 171.685760 0.202058
v 3.560306 128.922089 33.155083
v 3.560306 171.685760 33.155083
v 3.560306 10.850044 -31.685026
v 3.560306 10.850044 -4.330283
v 3.560306 118.072014 -4.330283
v 3.560306 118.072014 -31.685026
v 3.560306 10.850044 4.734400
v 3.560306 10.850044 33.155083
v 3.560306 118.072014 33.155083
v 3.560306 118.072014 4.734400
vt 0.556332 0.092204
vt 0.556332 0.156694
vt 0.848473 0.156694
vt 0.598067 0.092204
vt 0.598067 0.156694
vt 0.639801 0.092204
vt 0.639801 0.156695
vt 0.681535 0.092204
vt 0.681536 0.156694
vt 0.723270 0.092204
vt 0.723270 0.156694
vt 0.765004 0.092204
vt 0.765004 0.156694
vt 0.806739 0.092204
vt 0.806739 0.156695
vt 0.556332 0.199903
vt 0.848473 0.199903
vt 0.598067 0.199903
vt 0.639801 0.199903
vt 0.681535 0.199903
vt 0.723270 0.199903
vt 0.765004 0.199903
vt 0.806739 0.199903
vt 0.556332 0.236322
vt 0.848473 0.236322
vt 0.598067 0.236322
vt 0.639801 0.236322
vt 0.681535 0.236322
vt 0.723270 0.236322
vt 0.765004 0.236322
vt 0.806739 0.236322
vt 0.556332 0.272745
vt 0.848473 0.272745
vt 0.598067 0.272745
vt 0.639801 0.272745
vt 0.681535 0.272745
vt 0.723270 0.272745
vt 0.765004 0.272745
vt 0.806739 0.272745
vt 0.556332 0.313240
vt 0.848473 0.313240
vt 0.598066 0.313240
vt 0.639801 0.313240
vt 0.681535 0.313240
vt 0.723270 0.313240
vt 0.765004 0.313240
vt 0.806739 0.313240
vt 0.556332 0.360043
vt 0.848473 0.360043
vt 0.598067 0.360043
vt 0.639801 0.360043
vt 0.681535 0.360043
vt 0.723270 0.360043
vt 0.415866 0.653803
vt 0.526376 0.371712
vt 0.459360 0.682355
vt 0.415866 0.710908
vt 0.486673 0.371713
vt 0.654269 0.975033
vt 0.654269 0.821821
vt 0.762206 0.821821
vt 0.762206 0.975033
vt 0.415866 0.935980
vt 0.459360 0.987520
vt 0.027443 0.682355
vt 0.074602 0.653803
vt 0.074602 0.710908
vt 0.545356 0.975033
vt 0.545356 0.821821
vt 0.526376 0.301276
vt 0.545356 0.495487
vt 0.654269 0.495487
vt 0.526376 0.568796
vt 0.074602 0.935980
vt 0.027443 0.987520
vt 0.218574 0.653803
vt 0.242429 0.710908
vt 0.242429 0.935980
vt 0.242429 0.987521
vt 0.074602 0.935980
vt 0.074602 0.710908
vt 0.762206 0.495487
vt 0.486673 0.568796
vt 0.242429 0.710908
vt 0.242429 0.935980
vt 0.266283 0.653803
vt 0.415866 0.710908
vt 0.415866 0.935980
vt 0.027443 0.032371
vt 0.242429 0.032371
vt 0.218574 0.089477
vt 0.074602 0.089477
vt 0.266283 0.089477
vt 0.459360 0.032371
vt 0.415866 0.089477
vt 0.074602 0.089477
vt 0.218574 0.089477
vt 0.218574 0.653803
vt 0.074602 0.653803
vt 0.266283 0.089477
vt 0.415866 0.089477
vt 0.415866 0.653803
vt 0.266283 0.653803
vt 0.890208 0.035630
vt 0.848473 0.035630
vt 0.848473 0.092204
vt 0.727330 0.412018
vt 0.890208 0.360043
vt 0.890208 0.313240
vt 0.890208 0.272745
vt 0.890208 0.236322
vt 0.486673 0.498359
vt 0.526376 0.498359
vt 0.526376 0.966797
vt 0.486673 0.966797
vt 0.486673 0.903777
vt 0.526376 0.903777
vt 0.526376 0.434732
vt 0.486673 0.434732
vt 0.486673 0.840150
vt 0.526376 0.840150
vt 0.486673 0.301276
vt 0.486673 0.029921
vt 0.526376 0.029921
vt 0.765005 0.360043
vt 0.806739 0.360043
vt 0.726181 0.412018
vt 0.556332 0.035630
vt 0.598067 0.035630
vt 0.639801 0.035630
vt 0.681535 0.035630
vt 0.723270 0.035630
vt 0.765004 0.035630
vt 0.806739 0.035630
vt 0.890208 0.092204
vt 0.890208 0.156694
vt 0.890208 0.199903
vn 0.886451 0.177115 -0.427593
vn 0.886451 0.177115 -0.427593
vn 0.886451 0.177115 -0.427593
vn 0.886451 0.177115 -0.427593
vn 0.886451 -0.177114 -0.427592
vn 0.886451 -0.177114 -0.427592
vn 0.886451 -0.177114 -0.427592
vn 0.886451 -0.177114 -0.427592
vn 0.886452 -0.427590 -0.177115
vn 0.886452 -0.427590 -0.177115
vn 0.886452 -0.427590 -0.177115
vn 0.886452 -0.427590 -0.177115
vn 0.886452 -0.427591 0.177115
vn 0.886451 -0.427591 0.177115
vn 0.886452 -0.427591 0.177115
vn 0.886452 -0.427591 0.177115
vn 0.886451 -0.177114 0.427592
vn 0.886451 -0.177114 0.427592
vn 0.886451 -0.177114 0.427592
vn 0.886451 -0.177114 0.427592
vn 0.886452 0.177114 0.427591
vn 0.886452 0.177114 0.427591
vn 0.886452 0.177114 0.427591
vn 0.886452 0.177114 0.427591
vn 0.886452 0.427590 0.177116
vn 0.886452 0.427590 0.177116
vn 0.886452 0.427590 0.177116
vn 0.886452 0.427590 0.177116
vn 0.886452 0.427590 -0.177116
vn 0.886452 0.427590 -0.177116
vn 0.886452 0.427590 -0.177116
vn 0.886452 0.427590 -0.177116
vn 0.649909 0.290844 -0.702160
vn 0.649909 0.290844 -0.702160
vn 0.649909 0.290844 -0.702160
vn 0.649909 0.290844 -0.702160
vn 0.649909 -0.290844 -0.702159
vn 0.649909 -0.290844 -0.702159
vn 0.649909 -0.290844 -0.702159
vn 0.649909 -0.290844 -0.702159
vn 0.649905 -0.702163 -0.290845
vn 0.649905 -0.702163 -0.290845
vn 0.649905 -0.702163 -0.290845
vn 0.649905 -0.702163 -0.290845
vn 0.649904 -0.702163 0.290846
vn 0.649904 -0.702163 0.290845
vn 0.649904 -0.702163 0.290845
vn 0.649904 -0.702163 0.290845
vn 0.649908 -0.290845 0.702161
vn 0.649908 -0.290845 0.702161
vn 0.649908 -0.290845 0.702161
vn 0.649908 -0.290845 0.702161
vn 0.649908 0.290845 0.702160
vn 0.649908 0.290845 0.702160
vn 0.649908 0.290845 0.702160
vn 0.649908 0.290845 0.702160
vn 0.649904 0.702164 0.290846
vn 0.649904 0.702163 0.290846
vn 0.649904 0.702163 0.290846
vn 0.649904 0.702163 0.290846
vn 0.649906 0.702163 -0.290845
vn 0.649906 0.702162 -0.290845
vn 0.649905 0.702162 -0.290845
vn 0.649906 0.702162 -0.290845
vn 0.246695 0.370856 -0.895326
vn 0.246695 0.370856 -0.895326
vn 0.246695 0.370856 -0.895326
vn 0.246695 0.370856 -0.895326
vn 0.246695 -0.370856 -0.895326
vn 0.246695 -0.370856 -0.895326
vn 0.246695 -0.370856 -0.895326
vn 0.246695 -0.370856 -0.895326
vn 0.246701 -0.895324 -0.370855
vn 0.246701 -0.895324 -0.370855
vn 0.246701 -0.895324 -0.370855
vn 0.246701 -0.895324 -0.370855
vn 0.246701 -0.895324 0.370855
vn 0.246701 -0.895324 0.370855
vn 0.246701 -0.895324 0.370855
vn 0.246701 -0.895324 0.370855
vn 0.246695 -0.370856 0.895325
vn 0.246695 -0.370856 0.895325
vn 0.246695 -0.370856 0.895325
vn 0.246695 -0.370856 0.895325
vn 0.246695 0.370856 0.895326
vn 0.246695 0.370856 0.895326
vn 0.246695 0.370856 0.895326
vn 0.246695 0.370856 0.895326
vn 0.246701 0.895325 0.370853
vn 0.246701 0.895325 0.370853
vn 0.246701 0.895325 0.370853
vn 0.246701 0.895325 0.370853
vn 0.246701 0.895325 -0.370853
vn 0.246701 0.895325 -0.370853
vn 0.246701 0.895325 -0.370853
vn 0.246701 0.895325 -0.370853
vn -0.246695 0.370856 -0.895326
vn -0.246695 0.370856 -0.895326
vn -0.246695 0.370856 -0.895325
vn -0.246695 0.370856 -0.895325
vn -0.246694 -0.370855 -0.895326
vn -0.246694 -0.370855 -0.895326
vn -0.246694 -0.370855 -0.895326
vn -0.246694 -0.370855 -0.895326
vn -0.246701 -0.895325 -0.370853
vn -0.246701 -0.895325 -0.370853
vn -0.246701 -0.895325 -0.370853
vn -0.246701 -0.895325 -0.370853
vn -0.246701 -0.895325 0.370853
vn -0.246701 -0.895325 0.370853
vn -0.246701 -0.895325 0.370853
vn -0.246701 -0.895325 0.370853
vn -0.246695 -0.370855 0.895326
vn -0.246695 -0.370855 0.895326
vn -0.246695 -0.370855 0.895326
vn -0.246695 -0.370855 0.895326
vn -0.246695 0.370856 0.895326
vn -0.246695 0.370856 0.895325
vn -0.246695 0.370856 0.895325
vn -0.246695 0.370856 0.895325
vn -0.246701 0.895324 0.370855
vn -0.246701 0.895324 0.370855
vn -0.246701 0.895324 0.370855
vn -0.246701 0.895324 0.370855
vn -0.246701 0.895324 -0.370855
vn -0.246701 0.895324 -0.370855
vn -0.246701 0.895324 -0.370855
vn -0.246701 0.895324 -0.370855
vn -0.649909 0.290845 -0.702160
vn -0.649909 0.290845 -0.702160
vn -0.649909 0.290845 -0.702160
vn -0.649909 0.290845 -0.702160
vn -0.649908 -0.290844 -0.702160
vn -0.649908 -0.290844 -0.702160
vn -0.649908 -0.290844 -0.702160
vn -0.649908 -0.290844 -0.702160
vn -0.649905 -0.702163 -0.290845
vn -0.649905 -0.702163 -0.290845
vn -0.649905 -0.702163 -0.290845
vn -0.649905 -0.702163 -0.290845
vn -0.649904 -0.702164 0.290845
vn -0.649904 -0.702164 0.290845
vn -0.649904 -0.702164 0.290845
vn -0.649904 -0.702164 0.290845
vn -0.649907 -0.290844 0.702162
vn -0.649907 -0.290844 0.702161
vn -0.649907 -0.290844 0.702161
vn -0.649907 -0.290845 0.702161
vn -0.649908 0.290845 0.702160
vn -0.649908 0.290845 0.702160
vn -0.649908 0.290845 0.702160
vn -0.649908 0.290845 0.702160
vn -0.649904 0.702163 0.290845
vn -0.649904 0.702163 0.290845
vn -0.649904 0.702163 0.290845
vn -0.649904 0.702163 0.290845
vn -0.649905 0.702163 -0.290845
vn -0.649905 0.702163 -0.290845
vn -0.649905 0.702163 -0.290845
vn -0.649905 0.702163 -0.290845
vn -0.886451 0.177114 -0.427592
vn -0.886451 0.177114 -0.427591
vn -0.886451 0.177114 -0.427592
vn -0.886451 0.177114 -0.427591
vn -0.886451 -0.177114 -0.427592
vn -0.886451 -0.177114 -0.427592
vn -0.886451 -0.177114 -0.427592
vn -0.886451 -0.177114 -0.427592
vn -0.886453 -0.427590 -0.177114
vn -0.886452 -0.427590 -0.177114
vn -0.886452 -0.427589 -0.177114
vn -0.886452 -0.427589 -0.177114
vn -0.886452 -0.427590 0.177114
vn -0.886452 -0.427590 0.177114
vn -0.886452 -0.427590 0.177114
vn -0.886452 -0.427590 0.177114
vn -0.886452 -0.177114 0.427591
vn -0.886452 -0.177114 0.427591
vn -0.886452 -0.177114 0.427591
vn -0.886452 -0.177114 0.427591
vn -0.886452 0.177114 0.427591
vn -0.886452 0.177114 0.427591
vn -0.886452 0.177114 0.427591
vn -0.886452 0.177114 0.427591
vn -0.886452 0.427589 0.177114
vn -0.886452 0.427590 0.177114
vn -0.886452 0.427589 0.177114
vn -0.886452 0.427590 0.177114
vn -0.886452 0.427590 -0.177114
vn -0.886452 0.427590 -0.177114
vn -0.886452 0.427590 -0.177114
vn -0.886452 0.427590 -0.177114
vn -0.988136 0.058774 -0.141891
vn -0.988136 0.058774 -0.141891
vn -0.988136 0.058774 -0.141891
vn -0.988136 -0.058773 -0.141893
vn -0.988136 -0.058773 -0.141893
vn -0.988136 -0.058773 -0.141893
vn -0.988136 -0.141893 -0.058774
vn -0.988136 -0.141893 -0.058774
vn -0.988136 -0.141893 -0.058774
vn -0.988136 -0.141893 0.058774
vn -0.988136 -0.141893 0.058774
vn -0.988136 -0.141893 0.058774
vn -0.988136 -0.058774 0.141893
vn -0.988136 -0.058774 0.141893
vn -0.988136 -0.058774 0.141893
vn -0.988136 0.058773 0.141891
vn -0.988136 0.058773 0.141891
vn -0.988136 0.058773 0.141891
vn -0.988136 0.141893 0.058774
vn -0.988136 0.141893 0.058774
vn -0.988136 0.141893 0.058774
vn -0.988136 0.141893 -0.058774
vn -0.988136 0.141893 -0.058774
vn -0.988136 0.141893 -0.058774
vn 0.000000 0.382683 -0.923880
vn 0.000000 0.382683 -0.923880
vn 0.000000 0.382683 -0.923880
vn 0.000000 0.382683 -0.923880
vn 0.000000 -0.382683 -0.923880
vn 0.000000 -0.382683 -0.923880
vn 0.000000 -0.382683 -0.923880
vn 0.000000 -0.382683 -0.923880
vn 0.000000 -0.923880 -0.382682
vn 0.000000 -0.923880 -0.382682
vn 0.000000 -0.923880 -0.382682
vn 0.000000 -0.923880 -0.382682
vn 0.000000 -0.923880 0.382682
vn 0.000000 -0.923880 0.382682
vn 0.000000 -0.923880 0.382682
vn 0.000000 -0.923880 0.382682
vn 0.000000 -0.382683 0.923880
vn 0.000000 -0.382683 0.923880
vn 0.000000 -0.382683 0.923880
vn 0.000000 -0.382683 0.923880
vn 0.000000 0.382683 0.923880
vn 0.000000 0.382683 0.923880
vn 0.000000 0.382683 0.923880
vn 0.000000 0.382683 0.923880
vn 0.000000 0.923879 0.382686
vn 0.000000 0.923879 0.382686
vn 0.000000 0.923879 0.382686
vn 0.000000 0.923879 0.382686
vn 0.000000 0.923879 -0.382686
vn 0.000000 0.923879 -0.382686
vn 0.000000 0.923879 -0.382686
vn 0.000000 0.923879 -0.382686
vn -1.000000 0.000000 0.000000
vn -1.000000 0.000000 0.000000
vn -1.000000 0.000000 0.000000
vn -1.000000 0.000000 0.000000
vn -1.000000 0.000000 0.000000
vn -1.000000 0.000000 0.000000
vn -1.000000 0.000000 0.000000
vn 0.000001 0.000000 -1.000000
vn 0.000001 0.000000 -1.000000
vn 0.000001 0.000000 -1.000000
vn 0.000001 0.000000 -1.000000
vn 0.000000 0.000000 1.000000
vn 0.000000 0.000000 1.000000
vn 0.000000 0.000000 1.000000
vn 0.000000 0.000000 1.000000
vn -1.000000 0.000000 0.000000
vn -1.000000 0.000000 0.000000
vn -1.000000 0.000000 0.000000
vn -1.000000 0.000000 0.000000
vn -1.000000 0.000000 0.000000
vn -1.000000 0.000000 0.000000
vn -1.000000 0.000000 0.000000
vn -1.000000 -0.000000 0.000000
vn -1.000000 -0.000000 0.000000
vn -1.000000 -0.000000 0.000000
vn -1.000000 -0.000000 0.000000
vn 0.000000 -1.000000 0.000000
vn 0.000000 -1.000000 0.000000
vn 0.000000 -1.000000 0.000000
vn 0.000000 -1.000000 0.000000
vn 1.000000 0.000000 0.000000
vn 1.000000 0.000000 0.000000
vn 1.000000 0.000000 0.000000
vn 1.000000 0.000000 0.000000
vn 0.000002 1.000000 -0.000000
vn 0.000002 1.000000 -0.000000
vn 0.000002 1.000000 -0.000000
vn 0.000002 1.000000 -0.000000
vn -1.000000 -0.000000 0.000000
vn -1.000000 -0.000000 0.000000
vn -1.000000 -0.000000 0.000000
vn -1.000000 -0.000000 0.000000
vn -1.000000 0.000000 0.000000
vn -1.000000 0.000000 0.000000
vn -1.000000 0.000000 0.000000
vn -1.000000 0.000000 0.000000
vn -1.000000 -0.000000 0.000000
vn -1.000000 -0.000000 0.000000
vn -1.000000 -0.000000 0.000000
vn -1.000000 0.000000 0.000000
vn -1.000000 0.000000 0.000000
vn -1.000000 0.000000 0.000000
vn -1.000000 0.000000 0.000000
vn -1.000000 0.000000 0.000000
vn -1.000000 0.000000 0.000000
vn -1.000000 0.000000 0.000000
vn -1.000000 0.000000 0.000000
vn -1.000000 0.000000 0.000000
vn -1.000000 0.000000 0.000000
vn -1.000000 0.000000 0.000000
vn -1.000000 0.000000 0.000000
vn 0.000000 -1.000000 0.000000
vn 0.000000 -1.000000 0.000000
vn 0.000000 -1.000000 0.000000
vn 0.000000 -1.000000 0.000000
vn 1.000000 0.000000 0.000000
vn 1.000000 0.000000 0.000000
vn 1.000000 0.000000 0.000000
vn 1.000000 0.000000 0.000000
vn 0.000002 1.000000 0.000000
vn 0.000002 1.000000 0.000000
vn 0.000002 1.000000 0.000000
vn 0.000002 1.000000 0.000000
vn -1.000000 0.000000 0.000000
vn -1.000000 0.000000 0.000000
vn -1.000000 0.000000 0.000000
vn -1.000000 0.000000 0.000000
vn -1.000000 0.000000 0.000000
vn -1.000000 0.000000 0.000000
vn -1.000000 0.000000 0.000000
vn -1.000000 -0.000000 0.000000
vn -1.000000 -0.000000 0.000000
vn -1.000000 -0.000000 0.000000
vn -1.000000 -0.000000 0.000000
vn -1.000000 0.000000 0.000000
vn -1.000000 0.000000 0.000000
vn -1.000000 0.000000 0.000000
vn -1.000000 0.000000 0.000000
vn -1.000000 0.000000 0.000000
vn -1.000000 0.000000 0.000000
vn -1.000000 0.000000 0.000000
vn -1.000000 0.000000 0.000000
vn -1.000000 0.000000 0.000000
vn -1.000000 0.000000 0.000000
vn -1.000000 0.000000 0.000000
vn -1.000000 0.000000 0.000000
vn -1.000000 0.000000 0.000000
vn -1.000000 0.000000 0.000000
vn -1.000000 0.000000 0.000000
vn -1.000000 0.000000 0.000000
vn 0.000001 0.000000 1.000000
vn 0.000001 0.000000 1.000000
vn 0.000001 0.000000 1.000000
vn 0.000001 0.000000 1.000000
vn 1.000000 0.000000 0.000000
vn 1.000000 0.000000 0.000000
vn 1.000000 0.000000 0.000000
vn 1.000000 0.000000 0.000000
vn 1.000000 0.000000 0.000000
vn 1.000000 0.000000 0.000000
vn 1.000000 0.000000 0.000000
vn 1.000000 0.000000 0.000000
vn 0.000000 0.000000 -1.000000
vn 0.000000 0.000000 -1.000000
vn 0.000000 0.000000 -1.000000
vn 0.000000 0.000000 -1.000000
vn -1.000000 0.000000 0.000000
vn -1.000000 0.000000 0.000000
vn -1.000000 0.000000 0.000000
vn -1.000000 0.000000 0.000000
vn 0.000000 0.000000 1.000000
vn 0.000000 0.000000 1.000000
vn 0.000000 0.000000 1.000000
vn 0.000000 0.000000 1.000000
vn 0.000000 1.000000 0.000000
vn 0.000000 1.000000 0.000000
vn 0.000000 1.000000 0.000000
vn 0.000000 1.000000 0.000000
vn 0.000000 -1.000000 0.000000
vn 0.000000 -1.000000 0.000000
vn 0.000000 -1.000000 0.000000
vn 0.000000 -1.000000 0.000000
vn 0.000000 1.000000 0.000000
vn 0.000000 1.000000 0.000000
vn 0.000000 1.000000 0.000000
vn 0.000000 1.000000 0.000000
vn 0.000000 0.000000 -1.000000
vn 0.000000 0.000000 -1.000000
vn 0.000000 0.000000 -1.000000
vn 0.000000 0.000000 -1.000000
vn 0.000000 -1.000000 0.000000
vn 0.000000 -1.000000 0.000000
vn 0.000000 -1.000000 0.000000
vn 0.000000 -1.000000 0.000000
vn 0.000000 1.000000 0.000000
vn 0.000000 1.000000 0.000000
vn 0.000000 1.000000 0.000000
vn 0.000000 1.000000 0.000000
vn 0.000000 0.000000 -1.000000
vn 0.000000 0.000000 -1.000000
vn 0.000000 0.000000 -1.000000
vn 0.000000 0.000000 -1.000000
vn 0.000000 -1.000000 0.000000
vn 0.000000 -1.000000 0.000000
vn 0.000000 -1.000000 0.000000
vn 0.000000 -1.000000 0.000000
vn 0.000000 0.000000 1.000000
vn 0.000000 0.000000 1.000000
vn 0.000000 0.000000 1.000000
vn 0.000000 0.000000 1.000000
vn 0.000000 1.000000 0.000000
vn 0.000000 1.000000 0.000000
vn 0.000000 1.000000 0.000000
vn 0.000000 1.000000 0.000000
vn 0.000000 0.000000 -1.000000
vn 0.000000 0.000000 -1.000000
vn 0.000000 0.000000 -1.000000
vn 0.000000 0.000000 -1.000000
vn 0.000000 -1.000000 0.000000
vn 0.000000 -1.000000 0.000000
vn 0.000000 -1.000000 0.000000
vn 0.000000 -1.000000 0.000000
vn 0.000000 0.000000 1.000000
vn 0.000000 0.000000 1.000000
vn 0.000000 0.000000 1.000000
vn 0.000000 0.000000 1.000000
s off
f 1/106/1 2/135/2 10/136/3 9/3/4
f 2/1/5 3/4/6 11/5/7 10/2/8
f 3/4/9 4/6/10 12/7/11 11/5/12
f 4/6/13 5/8/14 13/9/15 12/7/16
f 5/8/17 6/10/18 14/11/19 13/9/20
f 6/10/21 7/12/22 15/13/23 14/11/24
f 7/12/25 8/14/26 16/15/27 15/13/28
f 8/14/29 1/106/30 9/3/31 16/15/32
f 9/3/33 10/136/34 18/137/35 17/17/36
f 10/2/37 11/5/38 19/18/39 18/16/40
f 11/5/41 12/7/42 20/19/43 19/18/44
f 12/7/45 13/9/46 21/20/47 20/19/48
f 13/9/49 14/11/50 22/21/51 21/20/52
f 14/11/53 15/13/54 23/22/55 22/21/56
f 15/13/57 16/15/58 24/23/59 23/22/60
f 16/15/61 9/3/62 17/17/63 24/23/64
f 17/17/65 18/137/66 26/111/67 25/25/68
f 18/16/69 19/18/70 27/26/71 26/24/72
f 19/18/73 20/19/74 28/27/75 27/26/76
f 20/19/77 21/20/78 29/28/79 28/27/80
f 21/20/81 22/21/82 30/29/83 29/28/84
f 22/21/85 23/22/86 31/30/87 30/29/88
f 23/22/89 24/23/90 32/31/91 31/30/92
f 24/23/93 17/17/94 25/25/95 32/31/96
f 25/25/97 26/111/98 34/110/99 33/33/100
f 26/24/101 27/26/102 35/34/103 34/32/104
f 27/26/105 28/27/106 36/35/107 35/34/108
f 28/27/109 29/28/110 37/36/111 36/35/112
f 29/28/113 30/29/114 38/37/115 37/36/116
f 30/29/117 31/30/118 39/38/119 38/37/120
f 31/30/121 32/31/122 40/39/123 39/38/124
f 32/31/125 25/25/126 33/33/127 40/39/128
f 33/33/129 34/110/130 42/109/131 41/41/132
f 34/32/133 35/34/134 43/42/135 42/40/136
f 35/34/137 36/35/138 44/43/139 43/42/140
f 36/35/141 37/36/142 45/44/143 44/43/144
f 37/36/145 38/37/146 46/45/147 45/44/148
f 38/37/149 39/38/150 47/46/151 46/45/152
f 39/38/153 40/39/154 48/47/155 47/46/156
f 40/39/157 33/33/158 41/41/159 48/47/160
f 41/41/161 42/109/162 50/108/163 49/49/164
f 42/40/165 43/42/166 51/50/167 50/48/168
f 43/42/169 44/43/170 52/51/171 51/50/172
f 44/43/173 45/44/174 53/52/175 52/51/176
f 45/44/177 46/45/178 54/53/179 53/52/180
f 46/45/181 47/46/182 55/125/183 54/53/184
f 47/46/185 48/47/186 56/126/187 55/125/188
f 48/47/189 41/41/190 49/49/191 56/126/192
f 49/49/193 50/108/194 57/107/195
f 50/48/196 51/50/197 57/127/198
f 51/50/199 52/51/200 57/127/201
f 52/51/202 53/52/203 57/127/204
f 53/52/205 54/53/206 57/127/207
f 54/53/208 55/125/209 57/127/210
f 55/125/211 56/126/212 57/127/213
f 56/126/214 49/49/215 57/127/216
f 2/135/217 1/106/218 58/105/219 59/104/220
f 3/4/221 2/1/222 59/128/223 60/129/224
f 4/6/225 3/4/226 60/129/227 61/130/228
f 5/8/229 4/6/230 61/130/231 62/131/232
f 6/10/233 5/8/234 62/131/235 63/132/236
f 7/12/237 6/10/238 63/132/239 64/133/240
f 8/14/241 7/12/242 64/133/243 65/134/244
f 1/106/245 8/14/246 65/134/247 58/105/248
f 96/54/249 74/56/250 88/57/251
f 87/63/252 88/57/253 74/56/254 68/64/255
f 70/55/256 71/58/257 76/122/258 75/70/259
f 74/73/260 77/83/261 69/112/262 68/113/263
f 75/65/264 93/66/265 78/67/266
f 75/65/267 78/67/268 79/74/269 70/75/270
f 93/66/271 94/76/272 80/77/273 78/67/274
f 72/114/275 73/115/276 82/116/277 81/117/278
f 84/59/279 83/60/280 76/61/281 71/62/282
f 85/118/283 84/119/284 71/58/285 70/55/286
f 79/74/287 86/78/288 85/79/289 70/75/290
f 97/80/291 98/81/292 99/84/293 100/85/294
f 94/76/295 95/86/296 80/77/297
f 86/78/298 87/63/299 68/64/300 85/79/301
f 100/85/302 99/84/303 101/87/304 102/88/305
f 95/86/306 96/54/307 88/57/308 80/77/309
f 81/117/310 82/116/311 67/120/312 66/121/313
f 69/68/314 77/69/315 83/60/316 84/59/317
f 68/113/318 69/112/319 84/119/320 85/118/321
f 72/89/322 81/90/323 90/91/324 89/92/325
f 81/90/326 91/93/327 90/91/328
f 81/90/329 66/94/330 92/95/331 91/93/332
f 103/96/333 104/97/334 105/98/335 106/99/336
f 90/91/337 91/93/338 95/86/339 94/76/340
f 107/100/341 108/101/342 109/102/343 110/103/344
f 92/95/345 66/94/346 74/56/347 96/54/348
f 66/121/349 67/120/350 77/83/351 74/73/352
f 83/60/353 77/69/354 67/71/355 82/72/356
f 76/61/357 83/60/358 82/72/359 73/82/360
f 75/70/361 76/122/362 73/123/363 72/124/364
f 72/89/365 89/92/366 93/66/367 75/65/368
f 79/74/369 78/67/370 98/81/371 97/80/372
f 78/67/373 80/77/374 99/84/375 98/81/376
f 86/78/377 79/74/378 97/80/379 100/85/380
f 80/77/381 88/57/382 101/87/383 99/84/384
f 88/57/385 87/63/386 102/88/387 101/87/388
f 87/63/389 86/78/390 100/85/391 102/88/392
f 89/92/393 90/91/394 104/97/395 103/96/396
f 90/91/397 94/76/398 105/98/399 104/97/400
f 94/76/401 93/66/402 106/99/403 105/98/404
f 93/66/405 89/92/406 103/96/407 106/99/408
f 91/93/409 92/95/410 108/101/411 107/100/412
f 92/95/413 96/54/414 109/102/415 108/101/416
f 96/54/417 95/86/418 110/103/419 109/102/420
f 95/86/421 91/93/422 107/100/423 110/103/424
