# This file uses meters as units for non-parametric coordinates.

v 0.000008 0.000000 570.722046
v 0.000008 94.999992 570.722046
v 0.000008 94.999992 -875.120544
v 0.000008 0.000000 -875.120544
v -100.045700 76.000000 570.753784
v -100.045700 76.000000 -875.120544
v -20.045700 0.000000 570.753784
v -20.045700 0.000000 -875.120544
v -20.045700 76.000000 -875.120544
v -20.045700 76.000000 570.753784
v -20.045700 0.000000 570.753784
v -20.045700 76.000000 570.753784
v -100.045700 76.000000 570.753784
v -100.045700 89.300568 570.753784
v -94.346268 95.000000 570.753784
v -100.045700 89.300568 -875.120544
v -94.346268 95.000000 -875.120544
v -14.149376 76.000000 584.928040
v -14.149376 0.000000 584.928040
v -70.717972 76.000000 641.496460
v -66.687866 95.000000 637.466370
v -70.717972 89.300568 641.496460
v 0.000008 76.000000 590.671997
v 0.000008 0.000000 590.671997
v 0.000008 76.000000 670.671997
v 0.000008 95.000000 664.972778
v 0.000008 89.300568 670.671997
v 0.000000 76.000000 590.671997
v 0.000000 0.000000 590.671997
v 0.000000 0.000000 570.722046
v 0.000000 94.999992 570.722046
v 0.000000 76.000000 670.671997
v 0.000000 95.000000 664.972778
v 0.000000 89.300568 670.671997
v 120.368332 76.000015 670.671997
v 120.350571 76.000000 570.722168
v 120.359451 95.000000 570.722046
v 120.368332 95.000015 664.972778
v 120.368332 89.300583 670.671997
v 0.000008 76.000000 570.722168
vt 0.018826 0.029330
vt 0.013673 0.029330
vt 0.013673 0.029330
vt 0.022184 0.017460
vt 0.040628 0.758417
vt 0.909732 0.758417
vt 0.909732 0.750422
vt 0.040628 0.750422
vt 0.018826 0.029330
vt 0.022184 0.047763
vt 0.013673 0.023820
vt 0.042042 0.769397
vt 0.909317 0.769397
vt 0.018826 0.023820
vt 0.901011 0.833731
vt 0.889740 0.833731
vt 0.013673 0.024922
vt 0.019182 0.024922
vt 0.022183 0.041703
vt 0.022183 0.041703
vt 0.022183 0.017460
vt 0.909298 0.825988
vt 0.018826 0.024922
vt 0.039825 0.696164
vt 0.952255 0.758417
vt 0.042042 0.825988
vt 0.952255 0.750422
vt 0.021793 0.017460
vt 0.021793 0.041703
vt 0.018826 0.023820
vt 0.019162 0.023820
vt 0.019182 0.024150
vt 0.021793 0.017460
vt 0.021793 0.041703
vt 0.022184 0.017460
vt 0.022184 0.047763
vt 0.022184 0.041703
vt 0.013673 0.024922
vt 0.018826 0.024922
vt 0.018826 0.024922
vt 0.909317 0.765978
vt 0.909317 0.813964
vt 0.013673 0.024150
vt 0.013673 0.023820
vt 0.042042 0.765978
vt 0.909317 0.765978
vt 0.018877 0.029330
vt 0.018877 0.024922
vt 0.949333 0.785987
vt 0.951750 0.783570
vt 0.921265 0.825988
vt 0.969251 0.825988
vt 0.965832 0.825988
vt 0.969251 0.825988
vt 0.921265 0.825988
vt 0.969251 0.825988
vt 0.965832 0.825988
vt 0.909298 0.825988
vt 0.969251 0.825988
vt 0.909298 0.898178
vt 0.019078 0.024922
vt 0.909298 0.898183
vt 0.965832 0.898189
vt 0.969250 0.898189
vt 0.018897 0.029330
vt 0.039825 0.741872
vt 0.909403 0.741872
vt 0.909404 0.696164
vt 0.917928 0.741872
vt 0.917928 0.696164
vt 0.921382 0.741872
vt 0.921382 0.696164
vt 0.909298 0.898183
vt 0.909298 0.825988
vt 0.018897 0.024922
vt 0.909317 0.765978
vt 0.022183 0.017460
vt 0.909317 0.813964
vt 0.019182 0.024922
vt 0.019078 0.024150
vt 0.019182 0.024150
vt 0.019182 0.024922
vt 0.018897 0.024922
vt 0.019182 0.024150
vt 0.018897 0.029330
vt 0.018826 0.029330
vt 0.018826 0.024922
vt 0.889740 0.905124
vt 0.901011 0.905119
vn 0.000000 -1.000000 0.000000
vn 0.000000 -1.000000 0.000000
vn 0.000000 -1.000000 0.000000
vn 0.000000 -1.000000 0.000000
vn -1.000000 0.000000 0.000000
vn -1.000000 0.000000 0.000000
vn -1.000000 0.000000 0.000000
vn -1.000000 0.000000 0.000000
vn 1.000000 0.000000 0.000000
vn 1.000000 0.000000 0.000000
vn 1.000000 0.000000 0.000000
vn 1.000000 0.000000 0.000000
vn 0.000000 0.000000 -1.000000
vn 0.000000 0.000000 -1.000000
vn 0.000000 0.000000 -1.000000
vn 0.000000 0.000000 -1.000000
vn 0.000000 1.000000 0.000000
vn 0.000000 1.000000 0.000000
vn 0.000000 1.000000 0.000000
vn 0.000000 1.000000 0.000000
vn 1.000000 -0.000249 -0.000134
vn 1.000000 -0.000249 -0.000134
vn 1.000000 -0.000249 -0.000134
vn 1.000000 -0.000249 -0.000134
vn 1.000000 -0.000249 -0.000134
vn 0.000000 0.000000 0.000000
vn 0.000000 0.000000 0.000000
vn 0.000000 0.000000 0.000000
vn 0.000000 0.000000 0.000000
vn 0.000000 0.000000 0.000000
vn 0.000000 0.000000 0.000000
vn 0.000000 0.000000 0.000000
vn 0.000000 0.000000 0.000000
vn 0.000000 -1.000000 0.000000
vn 0.000000 -1.000000 0.000000
vn 0.000000 -1.000000 0.000000
vn 0.000000 -1.000000 0.000000
vn -1.000000 0.000000 0.000000
vn -1.000000 0.000000 0.000000
vn -1.000000 0.000000 0.000000
vn -1.000000 0.000000 0.000000
vn 0.000000 0.000000 -1.000000
vn 0.000000 0.000000 -1.000000
vn 0.000000 0.000000 -1.000000
vn 0.000000 0.000000 -1.000000
vn 0.000000 0.000000 -1.000000
vn -0.707107 0.707106 0.000000
vn -0.707107 0.707106 0.000000
vn -0.707107 0.707106 0.000000
vn -0.707107 0.707106 0.000000
vn -0.923299 0.000000 0.384082
vn -0.923299 0.000000 0.384082
vn -0.923299 0.000000 0.384082
vn -0.923299 0.000000 0.384082
vn 0.000000 -1.000000 0.000000
vn 0.000000 -1.000000 0.000000
vn 0.000000 -1.000000 0.000000
vn 0.000000 -1.000000 0.000000
vn 0.000000 -1.000000 0.000000
vn 0.000000 -1.000000 0.000000
vn 0.000000 -1.000000 0.000000
vn 0.000000 1.000000 0.000000
vn 0.000000 1.000000 0.000000
vn 0.000000 1.000000 0.000000
vn -0.678511 0.678598 0.281297
vn -0.678511 0.678598 0.281297
vn -0.678511 0.678598 0.281297
vn -0.678511 0.678598 0.281297
vn -0.923763 0.000000 0.382964
vn -0.923763 0.000000 0.382964
vn -0.923763 0.000000 0.382964
vn -0.923763 0.000000 0.382964
vn -0.376138 0.000000 0.926564
vn -0.376138 0.000000 0.926564
vn -0.376138 0.000000 0.926564
vn -0.376138 0.000000 0.926564
vn 0.000000 -1.000000 0.000000
vn 0.000000 -1.000000 0.000000
vn 0.000000 -1.000000 0.000000
vn 0.000000 -1.000000 0.000000
vn 0.000000 -1.000000 0.000000
vn 0.000000 -1.000000 0.000000
vn 0.000000 -1.000000 0.000000
vn 0.000000 1.000000 0.000000
vn 0.000000 1.000000 0.000000
vn 0.000000 1.000000 0.000000
vn -0.280102 0.678590 0.679012
vn -0.280102 0.678590 0.679012
vn -0.280102 0.678590 0.679012
vn -0.280102 0.678590 0.679012
vn -0.381380 0.000000 0.924418
vn -0.381380 0.000000 0.924418
vn -0.381380 0.000000 0.924418
vn -0.381380 0.000000 0.924418
vn 0.000000 0.000000 -1.000000
vn 0.000000 0.000000 -1.000000
vn 0.000000 0.000000 -1.000000
vn 0.000000 0.000000 -1.000000
vn 0.000000 1.000000 0.000000
vn 0.000000 1.000000 0.000000
vn 0.000000 1.000000 0.000000
vn 0.000000 1.000000 0.000000
vn 0.995724 0.000000 0.092377
vn 0.995724 0.000000 0.092377
vn 0.995724 0.000000 0.092377
vn 0.995724 0.000000 0.092377
vn 0.995724 0.000000 0.092377
vn 0.000000 1.000000 0.000000
vn 0.000000 1.000000 0.000000
vn 0.000000 1.000000 0.000000
vn 0.000000 1.000000 0.000000
vn 0.000000 -1.000000 0.000000
vn 0.000000 -1.000000 0.000000
vn 0.000000 -1.000000 0.000000
vn 0.000000 -1.000000 0.000000
vn 0.000000 -0.707094 -0.707120
vn 0.000000 -0.707094 -0.707120
vn 0.000000 -0.707094 -0.707120
vn 0.000000 -0.707094 -0.707120
vn 0.000000 0.000000 -1.000000
vn 0.000000 0.000000 -1.000000
vn 0.000000 0.000000 -1.000000
vn 0.000000 0.000000 -1.000000
vn 0.000000 -1.000000 0.000000
vn 0.000000 -1.000000 0.000000
vn 0.000000 -1.000000 0.000000
vn 0.000000 -1.000000 0.000000
vn -0.073185 -0.463576 -0.883030
vn -0.073185 -0.463575 -0.883030
vn -0.073185 -0.463576 -0.883030
vn -0.073185 -0.463576 -0.883030
vn -0.000000 1.000000 -0.000000
vn -0.000000 1.000000 -0.000000
vn -0.000000 1.000000 -0.000000
vn -0.000000 1.000000 -0.000000
vn -0.000000 0.707094 0.707120
vn -0.000000 0.707093 0.707120
vn -0.000000 0.707094 0.707120
vn -0.000000 0.707093 0.707120
vn 0.000000 0.000000 1.000000
vn 0.000000 0.000000 1.000000
vn 0.000000 0.000000 1.000000
vn 0.000000 0.000000 1.000000
vn 1.000000 -0.000000 0.000000
vn 1.000000 -0.000000 0.000000
vn 1.000000 -0.000000 0.000000
vn 1.000000 -0.000000 0.000000
vn 0.000000 -1.000000 0.000000
vn 0.000000 -1.000000 0.000000
vn 0.000000 -1.000000 0.000000
vn 0.000000 -0.000006 -1.000000
vn 0.000000 -0.000006 -1.000000
vn 0.000000 -0.000006 -1.000000
vn 0.000000 -0.000006 -1.000000
vn 0.073185 0.463575 0.883030
vn 0.073185 0.463576 0.883030
vn 0.073185 0.463576 0.883030
vn 0.073185 0.463576 0.883030
s off
f 7/1/1 8/2/2 4/3/3 1/9/4
f 6/5/5 5/6/6 14/7/7 16/8/8
f 1/9/9 4/3/10 3/11/11 2/14/12
f 8/2/13 9/17/14 3/11/15 4/3/16
f 17/12/17 15/13/18 2/22/19 3/26/20
f 35/18/21 36/23/22 37/30/23 38/31/24 39/32/25
f 7/77/26 10/19/27 12/20/28 11/21/29
f 10/78/30 5/76/31 13/41/32 12/42/33
f 6/38/34 9/17/35 10/39/36 5/40/37
f 9/24/38 8/66/39 7/67/40 10/68/41
f 16/43/42 17/44/43 3/11/44 9/17/45 6/38/46
f 14/46/47 15/13/48 17/12/49 16/45/50
f 10/68/51 7/67/52 19/69/53 18/70/54
f 7/1/55 1/9/56 19/47/57
f 5/40/58 10/39/59 18/48/60 20/61/61
f 2/22/62 15/13/63 21/49/64
f 15/13/65 14/46/66 22/50/67 21/49/68
f 14/7/69 5/6/70 20/25/71 22/27/72
f 18/70/73 19/69/74 24/71/75 23/72/76
f 19/47/77 1/9/78 24/65/79
f 20/61/80 18/48/81 23/75/82 25/79/83
f 2/22/84 21/49/85 26/53/86
f 21/49/87 22/50/88 27/54/89 26/53/90
f 22/80/91 20/61/92 25/79/93 27/81/94
f 23/29/95 24/28/96 29/33/97 28/34/98
f 24/28/99 1/4/100 30/35/101 29/33/102
f 1/4/103 2/10/104 31/36/105 40/37/106 30/35/107
f 25/52/108 23/51/109 28/55/110 32/56/111
f 2/22/112 26/53/113 33/57/114 31/58/115
f 26/53/116 27/54/117 34/59/118 33/57/119
f 27/54/120 25/52/121 32/56/122 34/59/123
f 32/82/124 28/83/125 36/23/126 35/18/127
f 28/55/128 31/74/129 37/62/130 36/60/131
f 31/58/132 33/57/133 38/63/134 37/73/135
f 33/57/136 34/59/137 39/64/138 38/63/139
f 34/84/140 32/82/141 35/18/142 39/32/143
f 28/83/144 29/85/145 30/86/146 40/87/147
f 28/83/148 40/87/149 36/23/150
f 40/15/151 31/16/152 37/88/153 36/89/154
f 31/74/155 28/55/156 36/60/157 37/62/158
