# This file uses meters as units for non-parametric coordinates.

v -106.051831 0.000000 4.101028
v 37.680610 0.000000 4.101028
v -106.051831 66.496703 4.101028
v 106.051475 66.496703 4.101028
v -106.051831 66.496703 -4.101669
v 106.051475 66.496703 -4.101669
v -106.051831 0.000000 -4.101669
v 37.680610 0.000000 -4.101669
v -106.051831 75.047835 -0.000320
v 106.051475 75.047835 -0.000320
v -106.051831 66.496703 45.424200
v 106.051475 66.496703 45.424200
v 106.051475 75.047835 45.424200
v -106.051831 75.047835 45.424200
v -106.051831 66.496703 -45.424680
v 106.051475 66.496703 -45.424680
v -106.051831 75.047835 -45.424680
v 106.051475 75.047835 -45.424680
vt 0.051524 0.903437
vt 0.950240 0.101452
vt 0.950240 0.899220
vt 0.051524 0.365510
vt 0.678726 0.904596
vt 0.974981 0.899220
vt 0.974981 0.101452
vt 0.678726 0.105062
vt 0.043992 0.052323
vt 0.043992 0.052323
vt 0.234257 0.922420
vt 0.550669 0.922420
vt 0.550669 0.965527
vt 0.042525 0.052323
vt 0.042525 0.052323
vt 0.234257 0.965527
vt 0.600328 0.922420
vt 0.610817 0.922420
vt 0.486553 0.113388
vt 0.486553 0.908129
vt 0.316349 0.908129
vt 0.316349 0.113388
vt 0.656757 0.113388
vt 0.656757 0.908129
vt 0.605572 0.965527
vt 0.660476 0.922420
vt 0.124451 0.922420
vt 0.124451 0.965527
vt 0.174110 0.922420
vt 0.184598 0.922420
vt 0.179354 0.965527
vt 0.976888 0.922420
vt 0.976888 0.965527
vt 0.660476 0.965527
vt 0.042525 0.068572
vt 0.043992 0.068572
vt 0.042525 0.068572
vt 0.035133 0.068572
vt 0.035133 0.068572
vt 0.043992 0.068572
vt 0.051383 0.068572
vt 0.051383 0.068572
vt 0.929388 0.362789
vt 0.929388 0.904596
vt 0.043992 0.068572
vt 0.300392 0.109628
vt 0.300392 0.903437
vn 0.000000 0.000000 1.000000
vn 0.000000 0.000000 1.000000
vn 0.000000 0.000000 1.000000
vn 0.000000 0.000000 1.000000
vn 0.000000 0.000000 -1.000000
vn 0.000000 0.000000 -1.000000
vn 0.000000 0.000000 -1.000000
vn 0.000000 0.000000 -1.000000
vn 0.000000 -1.000000 0.000000
vn 0.000000 -1.000000 0.000000
vn 0.000000 -1.000000 0.000000
vn 0.000000 -1.000000 0.000000
vn 0.697213 -0.716864 0.000000
vn 0.697213 -0.716864 0.000000
vn 0.697213 -0.716864 0.000000
vn 0.697213 -0.716864 0.000000
vn -1.000000 0.000000 0.000000
vn -1.000000 0.000000 0.000000
vn -1.000000 0.000000 0.000000
vn -1.000000 0.000000 0.000000
vn 0.000000 0.000000 1.000000
vn 0.000000 0.000000 1.000000
vn 0.000000 0.000000 1.000000
vn 0.000000 0.000000 1.000000
vn 1.000000 0.000000 0.000000
vn 1.000000 0.000000 0.000000
vn 1.000000 0.000000 0.000000
vn 0.000000 0.000000 -1.000000
vn 0.000000 0.000000 -1.000000
vn 0.000000 0.000000 -1.000000
vn 0.000000 0.000000 -1.000000
vn -1.000000 0.000000 0.000000
vn -1.000000 0.000000 0.000000
vn -1.000000 0.000000 0.000000
vn 0.000000 -1.000000 0.000000
vn 0.000000 -1.000000 0.000000
vn 0.000000 -1.000000 0.000000
vn 0.000000 -1.000000 0.000000
vn 1.000000 0.000000 0.000000
vn 1.000000 0.000000 0.000000
vn 0.000000 1.000000 0.000000
vn 0.000000 1.000000 0.000000
vn 0.000000 1.000000 0.000000
vn 0.000000 1.000000 0.000000
vn -1.000000 0.000000 0.000000
vn -1.000000 0.000000 0.000000
vn 0.000000 -1.000000 0.000000
vn 0.000000 -1.000000 0.000000
vn 0.000000 -1.000000 0.000000
vn 0.000000 -1.000000 0.000000
vn -1.000000 0.000000 0.000000
vn -1.000000 0.000000 0.000000
vn 0.000000 1.000000 0.000000
vn 0.000000 1.000000 0.000000
vn 1.000000 0.000000 0.000000
vn 1.000000 0.000000 0.000000
s off
f 1/1/1 2/4/2 4/46/3 3/47/4
f 5/5/5 6/8/6 8/43/7 7/44/8
f 7/9/9 8/10/10 2/14/11 1/15/12
f 2/2/13 8/7/14 6/6/15 4/3/16
f 7/9/17 1/15/18 3/35/19 5/36/20
f 11/11/21 12/12/22 13/13/23 14/16/24
s 1
f 4/17/25 6/18/26 10/25/27
s off
f 16/26/28 15/32/29 17/33/30 18/34/31
s 2
f 5/29/32 3/30/33 9/31/34
s off
f 3/35/35 4/37/36 12/38/37 11/39/38
s 1
f 4/17/25 10/25/27 13/13/39 12/12/40
s 3
f 10/19/41 9/20/42 14/21/43 13/22/44
s 2
f 9/31/34 3/30/33 11/11/45 14/16/46
s off
f 6/40/47 5/45/48 15/41/49 16/42/50
s 2
f 5/29/32 9/31/34 17/28/51 15/27/52
s 3
f 9/20/42 10/19/41 18/23/53 17/24/54
s 1
f 10/25/27 6/18/26 16/26/55 18/34/56
