# This file uses meters as units for non-parametric coordinates.

v 7.832811 -136.999887 -7.832801
v 0.000014 -136.999887 -11.077250
v -7.832784 -136.999887 -7.832801
v -11.077233 -136.999887 0.000000
v -7.832784 -136.999887 7.832801
v 0.000014 -136.999887 11.077250
v 7.832811 -136.999887 7.832801
v 11.077266 -136.999887 0.000000
v 15.665610 -136.999887 -15.665601
v 0.000014 -136.999887 -22.154474
v -15.665581 -136.999887 -15.665601
v -22.154470 -136.999887 0.000000
v -15.665581 -136.999887 15.665574
v 0.000014 -136.999887 22.154501
v 15.665610 -136.999887 15.665574
v 22.154513 -136.999887 0.000000
v 15.665610 -80.536551 -15.665601
v 0.000014 -80.536551 -22.154474
v -15.665581 -80.536551 -15.665601
v -22.154470 -80.536551 0.000000
v -15.665581 -80.536551 15.665574
v 0.000014 -80.536551 22.154501
v 15.665610 -80.536551 15.665574
v 22.154513 -80.536551 0.000000
v 2.193200 -80.536551 -2.193166
v 0.000014 -80.536551 -3.101630
v -2.193169 -80.536551 -2.193166
v -3.101613 -80.536551 0.000000
v -2.193169 -80.536551 2.193166
v 0.000014 -80.536551 3.101630
v 2.193200 -80.536551 2.193166
v 3.101637 -80.536551 0.000000
v 0.000014 -136.999887 0.000000
v 2.193200 0.000008 -2.190488
v 0.000014 0.000008 -3.101630
v 0.000014 0.000008 0.000676
v -2.193169 0.000008 -2.193166
v -3.101613 0.000008 0.000000
v -2.193169 0.000008 2.193166
v 0.000014 0.000008 3.101630
v 2.193200 0.000035 2.193166
v 3.101637 0.000008 0.002704
vt 0.816509 0.187283
vt 0.851112 0.270822
vt 0.969253 0.270822
vt 0.900048 0.103745
vt 0.816509 0.354361
vt 0.900048 0.437900
vt 0.732970 0.388964
vt 0.732970 0.507106
vt 0.649431 0.354361
vt 0.565892 0.437900
vt 0.614829 0.270822
vt 0.496686 0.270822
vt 0.649431 0.187283
vt 0.565892 0.103745
vt 0.732970 0.152680
vt 0.732970 0.034539
vt 0.417887 0.106893
vt 0.484188 0.266959
vt 0.289512 0.266959
vt 0.280230 0.244550
vt 0.417887 0.427025
vt 0.280230 0.289368
vt 0.257821 0.493326
vt 0.257821 0.298650
vt 0.097755 0.427025
vt 0.235412 0.289368
vt 0.031453 0.266959
vt 0.226130 0.266959
vt 0.097755 0.106893
vt 0.235412 0.244550
vt 0.257821 0.040591
vt 0.257821 0.235267
vt 0.732970 0.270822
vt 0.280203 0.244549
vt 0.289512 0.266959
vt 0.257814 0.266959
vt 0.280230 0.289368
vt 0.257821 0.298650
vt 0.235412 0.289368
vt 0.226130 0.266959
vt 0.235412 0.244549
vt 0.257793 0.235267
vt 0.877184 0.908288
vt 0.877184 0.539823
vt 0.557716 0.539823
vt 0.557716 0.908288
vt 0.877184 0.592461
vt 0.557716 0.592461
vt 0.877184 0.645099
vt 0.557716 0.645099
vt 0.877184 0.697737
vt 0.557716 0.697737
vt 0.877184 0.750374
vt 0.557716 0.750374
vt 0.877184 0.803012
vt 0.557716 0.803012
vt 0.877184 0.855650
vt 0.557716 0.855650
vt 0.557716 0.908288
vt 0.557716 0.539823
vt 0.102042 0.539823
vt 0.102042 0.908247
vt 0.557716 0.592461
vt 0.102042 0.592461
vt 0.557716 0.645099
vt 0.102042 0.645099
vt 0.557716 0.697736
vt 0.102042 0.697736
vt 0.557716 0.750374
vt 0.102042 0.750374
vt 0.557716 0.803012
vt 0.102042 0.803012
vt 0.557716 0.855650
vt 0.102042 0.855591
vt 0.877184 0.960926
vt 0.557716 0.960926
vt 0.557716 0.960926
vt 0.102042 0.960926
vn 0.000000 -1.000000 -0.000000
vn 0.000000 -1.000000 0.000000
vn 0.000000 -1.000000 0.000000
vn 0.000000 -1.000000 -0.000000
vn 0.000000 -1.000000 -0.000000
vn 0.000000 -1.000000 -0.000000
vn 0.000000 -1.000000 -0.000000
vn 0.000000 -1.000000 -0.000000
vn 0.000000 -1.000000 0.000000
vn 0.000000 -1.000000 0.000000
vn 0.000000 -1.000000 0.000000
vn 0.000000 -1.000000 0.000000
vn 0.000000 -1.000000 0.000000
vn 0.000000 -1.000000 0.000000
vn 0.000000 -1.000000 -0.000000
vn 0.000000 -1.000000 -0.000000
vn 0.382682 0.000000 -0.923880
vn 0.382682 0.000000 -0.923880
vn 0.382682 0.000000 -0.923880
vn 0.382682 0.000000 -0.923880
vn -0.382682 0.000000 -0.923880
vn -0.382682 0.000000 -0.923880
vn -0.382682 0.000000 -0.923880
vn -0.382682 0.000000 -0.923880
vn -0.923880 0.000000 -0.382683
vn -0.923880 0.000000 -0.382683
vn -0.923880 0.000000 -0.382683
vn -0.923880 0.000000 -0.382683
vn -0.923880 0.000000 0.382683
vn -0.923880 0.000000 0.382683
vn -0.923880 0.000000 0.382683
vn -0.923880 0.000000 0.382683
vn -0.382685 0.000000 0.923879
vn -0.382685 0.000000 0.923879
vn -0.382685 0.000000 0.923879
vn -0.382685 0.000000 0.923879
vn 0.382685 0.000000 0.923879
vn 0.382685 0.000000 0.923879
vn 0.382685 0.000000 0.923879
vn 0.382685 0.000000 0.923879
vn 0.923879 0.000000 0.382684
vn 0.923879 0.000000 0.382684
vn 0.923879 0.000000 0.382684
vn 0.923879 0.000000 0.382684
vn 0.923880 0.000000 -0.382683
vn 0.923880 0.000000 -0.382683
vn 0.923880 0.000000 -0.382683
vn 0.923880 0.000000 -0.382683
vn 0.000000 1.000000 -0.000000
vn 0.000000 1.000000 0.000000
vn 0.000000 1.000000 0.000000
vn 0.000000 1.000000 -0.000000
vn 0.000000 1.000000 0.000000
vn 0.000000 1.000000 0.000000
vn 0.000000 1.000000 0.000000
vn 0.000000 1.000000 0.000000
vn 0.000000 1.000000 0.000000
vn 0.000000 1.000000 0.000000
vn 0.000000 1.000000 -0.000000
vn 0.000000 1.000000 -0.000000
vn 0.000000 1.000000 0.000000
vn 0.000000 1.000000 0.000000
vn 0.000000 1.000000 -0.000000
vn 0.000000 1.000000 -0.000000
vn 0.000000 -1.000000 0.000000
vn 0.000000 1.000000 0.000000
vn 0.000000 1.000000 0.000000
vn -0.000002 1.000000 -0.000002
vn 0.000000 1.000000 0.000000
vn 0.000000 1.000000 0.000000
vn 0.000000 1.000000 0.000000
vn -0.000006 1.000000 0.000000
vn -0.000006 1.000000 -0.000007
vn 0.000000 1.000000 -0.000007
vn 0.383171 0.000015 -0.923678
vn 0.383171 0.000015 -0.923678
vn 0.383171 0.000015 -0.923678
vn 0.383171 0.000015 -0.923678
vn -0.382690 0.000000 -0.923877
vn -0.382690 0.000000 -0.923877
vn -0.382690 0.000000 -0.923877
vn -0.382690 0.000000 -0.923877
vn -0.923879 0.000000 -0.382685
vn -0.923879 0.000000 -0.382685
vn -0.923879 0.000000 -0.382685
vn -0.923879 0.000000 -0.382685
vn -0.923879 0.000000 0.382685
vn -0.923879 0.000000 0.382685
vn -0.923879 0.000000 0.382685
vn -0.923879 0.000000 0.382685
vn -0.382690 0.000000 0.923877
vn -0.382690 0.000000 0.923877
vn -0.382690 0.000000 0.923877
vn -0.382690 0.000000 0.923877
vn 0.382689 0.000000 0.923877
vn 0.382689 0.000000 0.923877
vn 0.382689 0.000000 0.923877
vn 0.382690 0.000000 0.923877
vn 0.923796 -0.000006 0.382884
vn 0.923796 -0.000006 0.382884
vn 0.923796 -0.000006 0.382884
vn 0.923796 -0.000006 0.382884
vn 0.923881 0.000013 -0.382681
vn 0.923881 0.000013 -0.382681
vn 0.923881 0.000013 -0.382681
vn 0.923881 0.000013 -0.382681
s 1
f 1/1/1 2/2/2 10/3/3 9/4/4
f 2/2/2 3/5/5 11/6/6 10/3/3
f 3/5/5 4/7/7 12/8/8 11/6/6
f 4/7/7 5/9/9 13/10/10 12/8/8
f 5/9/9 6/11/11 14/12/12 13/10/10
f 6/11/11 7/13/13 15/14/14 14/12/12
f 7/13/13 8/15/15 16/16/16 15/14/14
f 8/15/15 1/1/1 9/4/4 16/16/16
s off
f 9/43/17 10/75/18 18/76/19 17/46/20
f 10/44/21 11/47/22 19/48/23 18/45/24
f 11/47/25 12/49/26 20/50/27 19/48/28
f 12/49/29 13/51/30 21/52/31 20/50/32
f 13/51/33 14/53/34 22/54/35 21/52/36
f 14/53/37 15/55/38 23/56/39 22/54/40
f 15/55/41 16/57/42 24/58/43 23/56/44
f 16/57/45 9/43/46 17/46/47 24/58/48
s 2
f 17/17/49 18/18/50 26/19/51 25/20/52
f 18/18/50 19/21/53 27/22/54 26/19/51
f 19/21/53 20/23/55 28/24/56 27/22/54
f 20/23/55 21/25/57 29/26/58 28/24/56
f 21/25/57 22/27/59 30/28/60 29/26/58
f 22/27/59 23/29/61 31/30/62 30/28/60
f 23/29/61 24/31/63 32/32/64 31/30/62
f 24/31/63 17/17/49 25/20/52 32/32/64
s 1
f 2/2/2 1/1/1 33/33/65
f 3/5/5 2/2/2 33/33/65
f 4/7/7 3/5/5 33/33/65
f 5/9/9 4/7/7 33/33/65
f 6/11/11 5/9/9 33/33/65
f 7/13/13 6/11/11 33/33/65
f 8/15/15 7/13/13 33/33/65
f 1/1/1 8/15/15 33/33/65
s 3
f 34/34/66 35/35/67 36/36/68
f 35/35/67 37/37/69 36/36/68
f 37/37/69 38/38/70 36/36/68
f 38/38/70 39/39/71 36/36/68
f 39/39/71 40/40/72 36/36/68
f 40/40/72 41/41/73 36/36/68
f 41/41/73 42/42/74 36/36/68
f 42/42/74 34/34/66 36/36/68
s off
f 25/59/75 26/77/76 35/78/77 34/62/78
f 26/60/79 27/63/80 37/64/81 35/61/82
f 27/63/83 28/65/84 38/66/85 37/64/86
f 28/65/87 29/67/88 39/68/89 38/66/90
f 29/67/91 30/69/92 40/70/93 39/68/94
f 30/69/95 31/71/96 41/72/97 40/70/98
f 31/71/99 32/73/100 42/74/101 41/72/102
f 32/73/103 25/59/104 34/62/105 42/74/106
