# This file uses meters as units for non-parametric coordinates.

v -7.194461 21.961506 12.679467
v -7.194461 12.679467 21.961497
v -7.194461 -0.000000 25.358934
v -7.194461 -12.679467 21.961497
v -7.194461 -21.961487 12.679467
v -7.194461 -25.358934 0.000000
v -7.194461 -21.961487 -12.679477
v -7.194461 -12.679467 -21.961501
v -7.194461 -0.000000 -25.358939
v -7.194461 12.679467 -21.961501
v -7.194461 21.961506 -12.679477
v -7.194461 25.358934 0.000000
v 0.000012 27.814557 16.058742
v 0.000012 16.058742 27.814557
v 0.000012 -0.000000 32.117494
v 0.000012 -16.058742 27.814557
v 0.000012 -27.814538 16.058742
v 0.000012 -32.117485 -0.000000
v 0.000012 -27.814538 -16.058747
v 0.000012 -16.058742 -27.814562
v 0.000012 -0.000000 -32.117485
v 0.000012 16.058742 -27.814562
v 0.000012 27.814557 -16.058747
v 0.000012 32.117485 -0.000000
v 0.000012 13.907279 8.029371
v 0.000012 8.029371 13.907279
v 0.000012 -0.000000 16.058742
v 0.000012 -8.029352 13.907279
v 0.000012 -13.907279 8.029371
v 0.000012 -16.058742 -0.000000
v 0.000012 -13.907279 -8.029371
v 0.000012 -8.029352 -13.907279
v 0.000012 -0.000000 -16.058747
v 0.000012 8.029371 -13.907279
v 0.000012 13.907279 -8.029371
v 0.000012 16.058742 -0.000000
v 0.000012 -0.000000 -0.000000
v -7.194461 23.985864 13.848215
v -2.924064 27.814557 16.058742
v -7.194461 13.848195 23.985815
v -2.924064 16.058742 27.814557
v -7.194461 -0.000000 27.696420
v -2.924064 -0.000000 32.117494
v -7.194461 -13.848195 23.985815
v -2.924064 -16.058742 27.814557
v -7.194461 -23.985825 13.848215
v -2.924064 -27.814538 16.058742
v -7.194461 -27.696430 0.000000
v -2.924064 -32.117485 0.000000
v -7.194461 -23.985825 -13.848225
v -2.924064 -27.814538 -16.058747
v -7.194461 -13.848195 -23.985825
v -2.924064 -16.058742 -27.814562
v -7.194461 -0.000000 -27.696435
v -2.924064 -0.000000 -32.117485
v -7.194461 13.848195 -23.985825
v -2.924064 16.058742 -27.814562
v -7.194461 23.985864 -13.848225
v -2.924064 27.814557 -16.058747
v -7.194461 27.696430 0.000000
v -2.924064 32.117485 0.000000
v -4.754660 21.961506 12.679467
v -4.754660 12.679467 21.961497
v -4.754660 -0.000000 0.000000
v -4.754660 -0.000000 25.358934
v -4.754660 -12.679467 21.961497
v -4.754660 -21.961487 12.679467
v -4.754660 -25.358934 0.000000
v -4.754660 -21.961487 -12.679477
v -4.754660 -12.679467 -21.961501
v -4.754660 -0.000000 -25.358939
v -4.754660 12.679467 -21.961501
v -4.754660 21.961506 -12.679477
v -4.754660 25.358934 0.000000
vt 0.015981 0.986366
vt 0.011721 0.982107
vt 0.016760 0.979197
vt 0.018890 0.981327
vt 0.010162 0.976287
vt 0.015981 0.976287
vt 0.011721 0.970468
vt 0.016760 0.973378
vt 0.015981 0.966209
vt 0.018890 0.971248
vt 0.021800 0.964649
vt 0.021800 0.970468
vt 0.027619 0.966209
vt 0.024709 0.971248
vt 0.031879 0.970468
vt 0.026839 0.973378
vt 0.033438 0.976287
vt 0.027619 0.976287
vt 0.031879 0.982107
vt 0.026839 0.979197
vt 0.027619 0.986366
vt 0.024709 0.981327
vt 0.021800 0.987926
vt 0.021800 0.982107
vt 0.287452 0.740896
vt 0.021800 0.976287
vt 0.406389 0.859834
vt 0.568861 0.578424
vt 0.243918 0.578424
vt 0.287452 0.415953
vt 0.406389 0.297016
vt 0.568861 0.253481
vt 0.731332 0.297016
vt 0.850270 0.415953
vt 0.893804 0.578424
vt 0.850270 0.740896
vt 0.731332 0.859834
vt 0.568861 0.903368
vt 0.391413 0.885773
vt 0.363088 0.934833
vt 0.568861 0.989970
vt 0.568861 0.933320
vt 0.261513 0.755872
vt 0.212452 0.784197
vt 0.213966 0.578424
vt 0.157315 0.578424
vt 0.261513 0.400978
vt 0.212452 0.372652
vt 0.391413 0.271076
vt 0.363088 0.222016
vt 0.568861 0.223530
vt 0.568861 0.166879
vt 0.746308 0.271076
vt 0.774634 0.222016
vt 0.876209 0.400978
vt 0.925270 0.372652
vt 0.923756 0.578424
vt 0.980406 0.578424
vt 0.876209 0.755872
vt 0.925270 0.784197
vt 0.746308 0.885773
vt 0.774634 0.934833
vt 0.663169 0.135895
vt 0.581593 0.135895
vt 0.581593 0.091333
vt 0.663169 0.091333
vt 0.500016 0.135895
vt 0.500016 0.091333
vt 0.418439 0.135895
vt 0.418439 0.091333
vt 0.336863 0.135895
vt 0.336863 0.091333
vt 0.255286 0.135895
vt 0.255286 0.091333
vt 0.173709 0.135895
vt 0.173709 0.091333
vt 0.092133 0.135895
vt 0.092133 0.091333
vt 0.010556 0.135895
vt 0.010556 0.091333
vt 0.907899 0.091333
vt 0.826322 0.135895
vt 0.826322 0.091333
vt 0.744746 0.135895
vt 0.744746 0.091333
vt 0.985962 0.021377
vt 0.985962 0.068130
vt 0.406389 0.859834
vt 0.287452 0.740896
vt 0.243918 0.578424
vt 0.287452 0.415953
vt 0.406389 0.297016
vt 0.568861 0.253481
vt 0.731332 0.297016
vt 0.850270 0.415953
vt 0.893804 0.578424
vt 0.850270 0.740896
vt 0.731332 0.859834
vt 0.568861 0.903368
vt 0.581007 0.068130
vt 0.661998 0.068130
vt 0.661998 0.021377
vt 0.581007 0.021377
vt 0.500016 0.068130
vt 0.500016 0.021377
vt 0.419025 0.068130
vt 0.419025 0.021377
vt 0.338034 0.068130
vt 0.338034 0.021377
vt 0.257043 0.068130
vt 0.257043 0.021377
vt 0.176052 0.068130
vt 0.176052 0.021377
vt 0.095061 0.068130
vt 0.095061 0.021377
vt 0.014069 0.068130
vt 0.014069 0.021377
vt 0.904971 0.068130
vt 0.904971 0.021377
vt 0.823980 0.068130
vt 0.823980 0.021377
vt 0.742989 0.068130
vt 0.742989 0.021377
vt 0.989476 0.135895
vt 0.907899 0.135895
vt 0.989476 0.091333
vn 1.000000 0.000000 -0.000000
vn 1.000000 0.000000 -0.000000
vn 1.000000 0.000000 -0.000000
vn 1.000000 0.000000 -0.000000
vn 1.000000 0.000000 -0.000000
vn 1.000000 0.000000 -0.000000
vn 1.000000 0.000000 0.000000
vn 1.000000 0.000000 0.000000
vn 1.000000 0.000000 0.000000
vn 1.000000 0.000000 0.000000
vn 1.000000 0.000000 -0.000000
vn 1.000000 0.000000 -0.000000
vn 1.000000 0.000000 -0.000000
vn 1.000000 0.000000 -0.000000
vn 1.000000 0.000000 -0.000000
vn 1.000000 0.000000 0.000000
vn 1.000000 0.000000 -0.000000
vn 1.000000 0.000000 -0.000000
vn 1.000000 0.000000 0.000000
vn 1.000000 0.000000 0.000000
vn 1.000000 0.000000 0.000000
vn 1.000000 0.000000 0.000000
vn 1.000000 0.000000 0.000000
vn 1.000000 0.000000 0.000000
vn -1.000000 -0.000000 0.000000
vn -1.000000 -0.000000 0.000000
vn -1.000000 -0.000000 0.000000
vn -1.000000 -0.000000 0.000000
vn -1.000000 -0.000000 0.000000
vn -1.000000 -0.000000 -0.000000
vn -1.000000 -0.000000 0.000000
vn -1.000000 -0.000000 0.000000
vn -1.000000 -0.000000 -0.000000
vn -1.000000 -0.000000 0.000000
vn -1.000000 -0.000000 0.000000
vn -1.000000 -0.000000 0.000000
vn -1.000000 -0.000000 0.000000
vn 1.000000 0.000000 0.000000
vn -0.719254 0.601668 0.347373
vn -0.719254 0.601668 0.347374
vn -0.719253 0.694748 0.000000
vn -0.719253 0.694748 0.000000
vn -0.719256 0.347372 0.601667
vn -0.719256 0.347373 0.601667
vn -0.719257 -0.000000 0.694745
vn -0.719257 -0.000000 0.694745
vn -0.719256 -0.347373 0.601667
vn -0.719256 -0.347373 0.601667
vn -0.719255 -0.601668 0.347373
vn -0.719255 -0.601668 0.347373
vn -0.719254 -0.694747 0.000000
vn -0.719254 -0.694747 0.000000
vn -0.719255 -0.601668 -0.347373
vn -0.719255 -0.601668 -0.347373
vn -0.719255 -0.347373 -0.601668
vn -0.719255 -0.347373 -0.601668
vn -0.719255 -0.000000 -0.694746
vn -0.719255 -0.000000 -0.694746
vn -0.719255 0.347373 -0.601668
vn -0.719255 0.347373 -0.601668
vn -0.719254 0.601669 -0.347373
vn -0.719254 0.601668 -0.347374
vn -1.000000 -0.000000 0.000000
vn -1.000000 -0.000000 0.000000
vn -1.000000 -0.000000 0.000000
vn -1.000000 -0.000000 0.000000
vn -1.000000 -0.000000 0.000000
vn -1.000000 -0.000000 0.000000
vn -1.000000 -0.000000 0.000000
vn -1.000000 -0.000000 0.000000
vn -1.000000 -0.000000 0.000000
vn -1.000000 -0.000000 0.000000
vn -1.000000 -0.000000 0.000000
vn -1.000000 -0.000000 0.000000
vn -1.000000 -0.000000 0.000000
vn -1.000000 -0.000000 0.000000
vn -1.000000 -0.000000 0.000000
vn -1.000000 -0.000000 0.000000
vn -1.000000 -0.000000 0.000000
vn -1.000000 -0.000000 0.000000
vn -1.000000 -0.000000 0.000000
vn -1.000000 -0.000000 0.000000
vn -1.000000 -0.000000 0.000000
vn -1.000000 -0.000000 0.000000
vn -1.000000 -0.000000 0.000000
vn -1.000000 -0.000000 0.000000
vn -0.000000 0.866025 0.500000
vn -0.000000 0.500000 0.866025
vn -0.000000 0.500000 0.866025
vn -0.000000 0.866025 0.500000
vn 0.000000 0.000000 1.000000
vn 0.000000 0.000000 1.000000
vn 0.000000 -0.500001 0.866025
vn 0.000000 -0.500001 0.866025
vn 0.000000 -0.866025 0.500000
vn 0.000000 -0.866025 0.500000
vn 0.000000 -0.965926 0.258820
vn 0.000000 -0.965926 0.258820
vn 0.000000 -0.965926 -0.258820
vn 0.000000 -0.866026 -0.500000
vn 0.000000 -0.866026 -0.500000
vn 0.000000 -0.965926 -0.258820
vn 0.000000 -0.500000 -0.866025
vn 0.000000 -0.500000 -0.866025
vn -0.000000 -0.000000 -1.000000
vn -0.000000 -0.000000 -1.000000
vn -0.000000 0.500000 -0.866026
vn -0.000000 0.500000 -0.866026
vn -0.000000 0.866026 -0.500000
vn -0.000000 0.866026 -0.500000
vn -0.000000 0.965926 -0.258819
vn -0.000000 0.965926 -0.258819
vn -0.000000 0.965926 0.258819
vn -0.000000 0.965926 0.258819
vn 0.000000 -0.707106 -0.707107
vn 0.000000 -0.707106 -0.707107
vn 0.000000 -0.707106 -0.707107
vn 0.000000 -0.707106 -0.707107
vn -0.000000 -0.258818 -0.965926
vn -0.000000 -0.258818 -0.965926
vn -0.000000 -0.258818 -0.965926
vn -0.000000 -0.258818 -0.965926
vn -0.000000 0.258818 -0.965926
vn -0.000000 0.258818 -0.965926
vn -0.000000 0.258818 -0.965926
vn -0.000000 0.258818 -0.965926
vn -0.000000 0.707107 -0.707106
vn -0.000000 0.707107 -0.707106
vn -0.000000 0.707107 -0.707106
vn -0.000000 0.707107 -0.707106
vn -0.000000 0.965926 -0.258819
vn -0.000000 0.965926 -0.258819
vn -0.000000 0.965926 -0.258819
vn -0.000000 0.965926 -0.258819
vn -0.000000 0.965926 0.258818
vn -0.000000 0.965926 0.258818
vn -0.000000 0.965926 0.258818
vn -0.000000 0.965926 0.258818
vn -0.000000 0.707107 0.707107
vn -0.000000 0.707107 0.707107
vn -0.000000 0.707107 0.707107
vn -0.000000 0.707107 0.707107
vn 0.000000 0.258818 0.965926
vn 0.000000 0.258818 0.965926
vn 0.000000 0.258818 0.965926
vn 0.000000 0.258818 0.965926
vn 0.000000 -0.258818 0.965926
vn 0.000000 -0.258818 0.965926
vn 0.000000 -0.258818 0.965926
vn 0.000000 -0.258818 0.965926
vn 0.000000 -0.707106 0.707107
vn 0.000000 -0.707106 0.707107
vn 0.000000 -0.707106 0.707107
vn 0.000000 -0.707106 0.707107
vn 0.000000 -0.965926 0.258817
vn 0.000000 -0.965926 0.258817
vn 0.000000 -0.965926 0.258817
vn 0.000000 -0.965926 0.258817
vn 0.000000 -0.965926 -0.258817
vn 0.000000 -0.965926 -0.258817
vn 0.000000 -0.965926 -0.258817
vn 0.000000 -0.965926 -0.258817
s 1
f 13/1/1 14/2/2 26/3/3 25/4/4
f 14/2/2 15/5/5 27/6/6 26/3/3
f 15/5/5 16/7/7 28/8/8 27/6/6
f 16/7/7 17/9/9 29/10/10 28/8/8
f 17/9/9 18/11/11 30/12/12 29/10/10
f 18/11/11 19/13/13 31/14/14 30/12/12
f 19/13/13 20/15/15 32/16/16 31/14/14
f 20/15/15 21/17/17 33/18/18 32/16/16
f 21/17/17 22/19/19 34/20/20 33/18/18
f 22/19/19 23/21/21 35/22/22 34/20/20
f 23/21/21 24/23/23 36/24/24 35/22/22
f 24/23/23 13/1/1 25/4/4 36/24/24
s 2
f 63/25/25 62/27/26 64/28/27
f 65/29/28 63/25/25 64/28/27
f 66/30/29 65/29/28 64/28/27
f 67/31/30 66/30/29 64/28/27
f 68/32/31 67/31/30 64/28/27
f 69/33/32 68/32/31 64/28/27
f 70/34/33 69/33/32 64/28/27
f 71/35/34 70/34/33 64/28/27
f 72/36/35 71/35/34 64/28/27
f 73/37/36 72/36/35 64/28/27
f 74/38/37 73/37/36 64/28/27
f 62/27/26 74/38/37 64/28/27
s 1
f 25/4/4 26/3/3 37/26/38
f 26/3/3 27/6/6 37/26/38
f 27/6/6 28/8/8 37/26/38
f 28/8/8 29/10/10 37/26/38
f 29/10/10 30/12/12 37/26/38
f 30/12/12 31/14/14 37/26/38
f 31/14/14 32/16/16 37/26/38
f 32/16/16 33/18/18 37/26/38
f 33/18/18 34/20/20 37/26/38
f 34/20/20 35/22/22 37/26/38
f 35/22/22 36/24/24 37/26/38
f 36/24/24 25/4/4 37/26/38
s 3
f 38/39/39 39/40/40 61/41/41 60/42/42
f 39/40/40 38/39/39 40/43/43 41/44/44
f 41/44/44 40/43/43 42/45/45 43/46/46
f 43/46/46 42/45/45 44/47/47 45/48/48
f 45/48/48 44/47/47 46/49/49 47/50/50
f 47/50/50 46/49/49 48/51/51 49/52/52
f 49/52/52 48/51/51 50/53/53 51/54/54
f 51/54/54 50/53/53 52/55/55 53/56/56
f 53/56/56 52/55/55 54/57/57 55/58/58
f 55/58/58 54/57/57 56/59/59 57/60/60
f 57/60/60 56/59/59 58/61/61 59/62/62
f 59/62/62 58/61/61 60/42/42 61/41/41
s 4
f 1/88/63 2/89/64 40/43/65 38/39/66
f 2/89/64 3/90/67 42/45/68 40/43/65
f 3/90/67 4/91/69 44/47/70 42/45/68
f 4/91/69 5/92/71 46/49/72 44/47/70
f 5/92/71 6/93/73 48/51/74 46/49/72
f 6/93/73 7/94/75 50/53/76 48/51/74
f 7/94/75 8/95/77 52/55/78 50/53/76
f 8/95/77 9/96/79 54/57/80 52/55/78
f 9/96/79 10/97/81 56/59/82 54/57/80
f 10/97/81 11/98/83 58/61/84 56/59/82
f 11/98/83 12/99/85 60/42/86 58/61/84
f 12/99/85 1/88/63 38/39/66 60/42/86
s 5
f 39/63/87 41/64/88 14/65/89 13/66/90
f 41/64/88 43/67/91 15/68/92 14/65/89
f 43/67/91 45/69/93 16/70/94 15/68/92
f 45/69/93 47/71/95 17/72/96 16/70/94
f 47/71/95 49/73/97 18/74/98 17/72/96
s 6
f 49/73/99 51/75/100 19/76/101 18/74/102
f 51/75/100 53/77/103 20/78/104 19/76/101
f 53/77/103 55/79/105 21/80/106 20/78/104
f 55/124/105 57/125/107 22/81/108 21/126/106
f 57/125/107 59/82/109 23/83/110 22/81/108
f 59/82/109 61/84/111 24/85/112 23/83/110
s 5
f 61/84/113 39/63/87 13/66/90 24/85/114
s off
f 2/100/115 1/101/116 62/102/117 63/103/118
f 3/104/119 2/100/120 63/103/121 65/105/122
f 4/106/123 3/104/124 65/105/125 66/107/126
f 5/108/127 4/106/128 66/107/129 67/109/130
f 6/110/131 5/108/132 67/109/133 68/111/134
f 7/112/135 6/110/136 68/111/137 69/113/138
f 8/114/139 7/112/140 69/113/141 70/115/142
f 9/116/143 8/114/144 70/115/145 71/117/146
f 10/118/147 9/87/148 71/86/149 72/119/150
f 11/120/151 10/118/152 72/119/153 73/121/154
f 12/122/155 11/120/156 73/121/157 74/123/158
f 1/101/159 12/122/160 74/123/161 62/102/162
