# This file uses meters as units for non-parametric coordinates.

v -25.554563 -0.000006 50.000000
v 25.554559 -0.000006 50.000000
v -25.554563 3.657169 50.000000
v 25.554559 3.657169 50.000000
v -23.851860 1.655351 48.071838
v 23.851858 1.655351 48.071838
v -25.554563 3.657169 -50.000000
v -23.851860 1.655351 -48.071838
v 23.851858 1.655351 -48.071838
v 25.554559 3.657169 -50.000000
v -25.554563 -0.000006 -50.000000
v 25.554559 -0.000006 -50.000000
v -23.851860 3.657177 48.071838
v 23.851858 3.657177 48.071838
v -23.851860 3.657177 -48.071838
v 23.851858 3.657177 -48.071838
vt 0.000000 0.000000
vt 0.000000 0.000000
vt 0.351814 0.028855
vt 0.496291 0.028855
vt 0.011703 0.577360
vt 0.011703 0.078231
vt 0.030533 0.094859
vt 0.496291 0.055853
vt 0.030533 0.560732
vt 0.969467 0.560731
vt 0.988297 0.577360
vt 0.030533 0.560732
vt 0.351814 0.055853
vt 0.030533 0.094859
vt 1.000000 0.000000
vt 1.000000 0.000000
vt 0.969467 0.094859
vt 0.969467 0.560731
vt 0.988297 0.078231
vt 0.969467 0.094859
vt 0.015967 0.055853
vt 0.832138 0.055853
vt 0.015967 0.028855
vt 0.976615 0.055853
vt 0.832138 0.028855
vt 0.976615 0.028855
vt 0.505603 0.592102
vt 0.365805 0.592102
vt 0.365805 0.626651
vt 0.505603 0.626651
vt 0.028826 0.592102
vt 0.028826 0.626651
vt 0.982380 0.592102
vt 0.842582 0.592102
vt 0.842582 0.626651
vt 0.982380 0.626651
vn 0.000000 0.000000 1.000000
vn 0.000000 0.000000 1.000000
vn 0.000000 0.000000 1.000000
vn 0.000000 0.000000 1.000000
vn 0.000000 1.000000 0.000004
vn 0.000000 1.000000 0.000004
vn 0.000000 1.000000 0.000004
vn 0.000000 1.000000 0.000004
vn -0.000005 1.000000 0.000000
vn -0.000005 1.000000 0.000000
vn -0.000005 1.000000 0.000000
vn -0.000005 1.000000 0.000000
vn 0.000000 1.000000 0.000000
vn 0.000000 1.000000 0.000000
vn 0.000000 1.000000 0.000000
vn 0.000000 1.000000 0.000000
vn 0.000005 1.000000 0.000000
vn 0.000005 1.000000 0.000000
vn 0.000005 1.000000 0.000000
vn 0.000005 1.000000 0.000000
vn 0.000000 1.000000 -0.000004
vn 0.000000 1.000000 -0.000004
vn 0.000000 1.000000 -0.000004
vn 0.000000 1.000000 -0.000004
vn 0.000000 0.000000 -1.000000
vn 0.000000 0.000000 -1.000000
vn 0.000000 0.000000 -1.000000
vn 0.000000 0.000000 -1.000000
vn 0.000000 -1.000000 0.000000
vn 0.000000 -1.000000 0.000000
vn 0.000000 -1.000000 0.000000
vn 0.000000 -1.000000 0.000000
vn 1.000000 0.000000 0.000000
vn 1.000000 0.000000 0.000000
vn 1.000000 0.000000 0.000000
vn 1.000000 0.000000 0.000000
vn -1.000000 0.000000 0.000000
vn -1.000000 0.000000 0.000000
vn -1.000000 0.000000 0.000000
vn -1.000000 0.000000 0.000000
vn 0.000000 0.000000 -1.000000
vn 0.000000 0.000000 -1.000000
vn 0.000000 0.000000 -1.000000
vn 0.000000 0.000000 -1.000000
vn 1.000000 0.000000 0.000000
vn 1.000000 0.000000 0.000000
vn 1.000000 0.000000 0.000000
vn 1.000000 0.000000 0.000000
vn -1.000000 0.000000 0.000000
vn -1.000000 0.000000 0.000000
vn -1.000000 0.000000 0.000000
vn -1.000000 0.000000 0.000000
vn 0.000000 0.000000 1.000000
vn 0.000000 0.000000 1.000000
vn 0.000000 0.000000 1.000000
vn 0.000000 0.000000 1.000000
s off
f 1/3/1 2/4/2 4/8/3 3/13/4
f 3/5/5 4/6/6 14/7/7 13/9/8
f 3/5/9 13/9/10 15/10/11 7/11/12
f 5/12/13 6/14/14 9/17/15 8/18/16
f 14/7/17 4/6/18 10/19/19 16/20/20
f 15/10/21 16/20/22 10/19/23 7/11/24
f 7/24/25 10/22/26 12/25/27 11/26/28
f 11/16/29 12/15/30 2/2/31 1/1/32
f 2/4/33 12/25/34 10/22/35 4/8/36
f 11/23/37 1/3/38 3/13/39 7/21/40
f 6/27/41 5/28/42 13/29/43 14/30/44
f 5/28/45 8/31/46 15/32/47 13/29/48
f 9/34/49 6/27/50 14/30/51 16/35/52
f 8/33/53 9/34/54 16/35/55 15/36/56
