# This file uses meters as units for non-parametric coordinates.

v 10.029496 -0.000008 0.000000
v 8.685798 -0.000008 -5.014746
v 5.014750 -0.000008 -8.685798
v 0.000000 -0.000008 -10.029500
v -5.014746 -0.000008 -8.685798
v -8.685798 -0.000008 -5.014746
v -10.029493 -0.000008 0.000000
v -8.685794 -0.000008 5.014740
v -5.014746 -0.000008 8.685798
v 0.000003 -0.000008 10.029493
v 5.014750 -0.000008 8.685798
v 8.685798 -0.000008 5.014740
v 10.029496 2.779873 0.000000
v 8.685798 2.779873 -5.014746
v 5.014750 2.779873 -8.685798
v 0.000000 2.779873 -10.029500
v -5.014746 2.779873 -8.685798
v -8.685798 2.779873 -5.014746
v -10.029493 2.779873 0.000000
v -8.685794 2.779873 5.014740
v -5.014746 2.779873 8.685798
v 0.000003 2.779873 10.029493
v 5.014750 2.779873 8.685798
v 8.685798 2.779873 5.014740
v 11.119524 -0.000008 0.000000
v 9.629793 -0.000008 -5.559762
v 5.559762 -0.000008 -9.629790
v 0.000000 -0.000008 -11.119524
v -5.559759 -0.000008 -9.629790
v -9.629790 -0.000008 -5.559762
v -11.119520 -0.000008 0.000000
v -9.629790 -0.000008 5.559762
v -5.559759 -0.000008 9.629790
v 0.000000 -0.000008 11.119524
v 5.559762 -0.000008 9.629790
v 9.629793 -0.000008 5.559762
v 0.000000 -0.000008 0.000000
v 0.000000 2.779873 0.000000
v 10.029496 18.222845 0.000000
v 10.574508 18.749231 0.000000
v 8.685798 18.222845 -5.014746
v 9.157797 18.749231 -5.287258
v 5.014750 18.222845 -8.685798
v 5.287254 18.749231 -9.157794
v 0.000000 18.222845 -10.029500
v 0.000000 18.749231 -10.574508
v -5.014746 18.222845 -8.685798
v -5.287254 18.749231 -9.157794
v -8.685798 18.222845 -5.014746
v -9.157794 18.749231 -5.287258
v -10.029493 18.222845 0.000000
v -10.574512 18.749231 0.000000
v -8.685794 18.222845 5.014740
v -9.157790 18.749231 5.287258
v -5.014746 18.222845 8.685798
v -5.287254 18.749231 9.157794
v 0.000003 18.222845 10.029493
v 0.000003 18.749231 10.574502
v 5.014750 18.222845 8.685798
v 5.287254 18.749231 9.157794
v 8.685798 18.222845 5.014740
v 9.157797 18.749231 5.287258
v 11.119524 18.222845 0.000000
v 9.629793 18.222845 -5.559762
v 5.559762 18.222845 -9.629790
v 0.000000 18.222845 -11.119524
v -5.559759 18.222845 -9.629790
v -9.629790 18.222845 -5.559762
v -11.119520 18.222845 0.000000
v -9.629790 18.222845 5.559762
v -5.559759 18.222845 9.629790
v 0.000000 18.222845 11.119524
v 5.559762 18.222845 9.629790
v 9.629793 18.222845 5.559762
vt 0.819296 0.260540
vt 0.739476 0.260540
vt 0.739476 0.260540
vt 0.819296 0.260540
vt 0.899116 0.260540
vt 0.021096 0.260540
vt 0.021096 0.260540
vt 0.100916 0.260540
vt 0.100916 0.260540
vt 0.180736 0.260540
vt 0.180736 0.260540
vt 0.260556 0.260540
vt 0.260556 0.260540
vt 0.340376 0.260540
vt 0.340376 0.260540
vt 0.420196 0.260540
vt 0.420196 0.260540
vt 0.500016 0.260540
vt 0.500016 0.260540
vt 0.579836 0.260540
vt 0.579836 0.260540
vt 0.659656 0.260540
vt 0.659656 0.260540
vt 0.500001 0.260540
vt 0.739476 0.331548
vt 0.819296 0.331548
vt 0.500001 0.331548
vt 0.021096 0.331548
vt 0.100916 0.331548
vt 0.180736 0.331548
vt 0.260556 0.331548
vt 0.340376 0.331548
vt 0.420196 0.331548
vt 0.500016 0.331548
vt 0.579836 0.331548
vt 0.659656 0.331548
vt 0.739476 0.726014
vt 0.739476 0.739460
vt 0.819296 0.739460
vt 0.819296 0.726014
vt 0.659656 0.726014
vt 0.659656 0.739460
vt 0.899116 0.726014
vt 0.021096 0.739460
vt 0.021096 0.726014
vt 0.100916 0.739460
vt 0.100916 0.726014
vt 0.180736 0.739460
vt 0.180736 0.726014
vt 0.260556 0.739460
vt 0.260556 0.726014
vt 0.340376 0.739460
vt 0.340376 0.726014
vt 0.420196 0.739460
vt 0.420196 0.726014
vt 0.500016 0.739460
vt 0.500016 0.726014
vt 0.579836 0.739460
vt 0.579836 0.726014
vt 0.739476 0.726014
vt 0.819296 0.726014
vt 0.659656 0.726014
vt 0.021096 0.726014
vt 0.100916 0.726014
vt 0.180736 0.726014
vt 0.260556 0.726014
vt 0.340376 0.726014
vt 0.420196 0.726014
vt 0.500016 0.726014
vt 0.579836 0.726014
vt 0.978936 0.260540
vt 0.899116 0.260540
vt 0.978936 0.331548
vt 0.978936 0.739460
vt 0.978936 0.726014
vt 0.899116 0.739460
vt 0.899116 0.331548
vt 0.978936 0.726014
vt 0.899116 0.726014
vt 0.978936 0.260540
vn 0.000000 -1.000000 -0.000000
vn 0.000000 -1.000000 -0.000000
vn 0.000000 -1.000000 -0.000000
vn 0.000000 -1.000000 -0.000000
vn 0.000000 -1.000000 0.000000
vn 0.000000 -1.000000 0.000000
vn 0.000000 -1.000000 0.000000
vn 0.000000 -1.000000 0.000000
vn 0.000000 -1.000000 -0.000001
vn 0.000000 -1.000000 -0.000001
vn 0.000000 -1.000000 -0.000001
vn 0.000000 -1.000000 -0.000001
vn 0.000000 -1.000000 -0.000000
vn 0.000000 -1.000000 -0.000000
vn 0.000000 -1.000000 -0.000000
vn 0.000000 -1.000000 -0.000000
vn 0.000000 -1.000000 -0.000000
vn 0.000000 -1.000000 -0.000000
vn 0.000000 -1.000000 -0.000000
vn 0.000000 -1.000000 -0.000000
vn 0.000000 -1.000000 -0.000000
vn 0.000000 -1.000000 -0.000000
vn 0.000000 -1.000000 -0.000000
vn 0.000000 -1.000000 -0.000000
vn 0.000000 -1.000000 0.000000
vn 0.000000 -1.000000 0.000000
vn 0.000000 -1.000000 0.000000
vn 0.000000 -1.000000 0.000000
vn 0.000000 -1.000000 0.000000
vn 0.000000 -1.000000 0.000000
vn 0.000000 -1.000000 0.000000
vn 0.000000 -1.000000 0.000000
vn 0.000000 -1.000000 0.000000
vn 0.000000 -1.000000 0.000000
vn 0.000000 -1.000000 0.000000
vn 0.000000 -1.000000 0.000000
vn 0.000000 -1.000000 0.000000
vn 0.000000 -1.000000 0.000000
vn 0.000000 -1.000000 0.000000
vn 0.000000 -1.000000 0.000000
vn 0.000000 -1.000000 -0.000000
vn 0.000000 -1.000000 -0.000000
vn 0.000000 -1.000000 -0.000000
vn 0.000000 -1.000000 -0.000000
vn 0.000000 -1.000000 0.000000
vn 0.000000 -1.000000 0.000000
vn 0.000000 -1.000000 0.000000
vn 0.000000 -1.000000 0.000000
vn 0.000000 -1.000000 0.000000
vn 0.000000 -1.000000 0.000000
vn 0.000000 -1.000000 0.000000
vn 0.000000 1.000000 0.000000
vn 0.000000 1.000000 0.000000
vn 0.000000 1.000000 0.000000
vn 0.000000 -1.000000 -0.000000
vn 0.000000 -1.000000 -0.000000
vn 0.000000 -1.000000 -0.000000
vn 0.000000 1.000000 0.000000
vn 0.000000 1.000000 0.000000
vn 0.000000 1.000000 0.000000
vn 0.000000 -1.000000 0.000000
vn 0.000000 -1.000000 0.000000
vn 0.000000 -1.000000 0.000000
vn 0.000000 1.000000 0.000000
vn 0.000000 1.000000 0.000000
vn 0.000000 1.000000 0.000000
vn 0.000000 -1.000000 0.000000
vn 0.000000 -1.000000 0.000000
vn 0.000000 -1.000000 0.000000
vn 0.000000 1.000000 0.000000
vn 0.000000 1.000000 0.000000
vn 0.000000 1.000000 0.000000
vn 0.000000 -1.000000 0.000000
vn 0.000000 -1.000000 0.000000
vn 0.000000 -1.000000 0.000000
vn 0.000000 1.000000 0.000000
vn 0.000000 1.000000 0.000000
vn 0.000000 1.000000 0.000000
vn 0.000000 -1.000000 0.000000
vn 0.000000 -1.000000 0.000000
vn 0.000000 -1.000000 0.000000
vn 0.000000 1.000000 0.000000
vn 0.000000 1.000000 0.000000
vn 0.000000 1.000000 0.000000
vn 0.000000 -1.000000 0.000000
vn 0.000000 -1.000000 0.000000
vn 0.000000 -1.000000 0.000000
vn 0.000000 1.000000 0.000000
vn 0.000000 1.000000 0.000000
vn 0.000000 1.000000 0.000000
vn 0.000000 -1.000000 -0.000000
vn 0.000000 -1.000000 -0.000000
vn 0.000000 -1.000000 -0.000000
vn 0.000000 1.000000 0.000000
vn 0.000000 1.000000 0.000000
vn 0.000000 1.000000 0.000000
vn 0.000000 -1.000000 0.000000
vn 0.000000 -1.000000 0.000000
vn 0.000000 -1.000000 0.000000
vn 0.000000 1.000000 0.000000
vn 0.000000 1.000000 0.000000
vn 0.000000 1.000000 0.000000
vn 0.000000 -1.000000 0.000000
vn 0.000000 -1.000000 0.000000
vn 0.000000 -1.000000 0.000000
vn 0.000000 1.000000 0.000000
vn 0.000000 1.000000 0.000000
vn 0.000000 1.000000 0.000000
vn 0.000000 -1.000000 0.000000
vn 0.000000 -1.000000 0.000000
vn 0.000000 -1.000000 0.000000
vn 0.000000 1.000000 0.000000
vn 0.000000 1.000000 0.000000
vn 0.000000 1.000000 0.000000
vn 0.000000 -1.000000 0.000000
vn 0.000000 -1.000000 0.000000
vn 0.000000 -1.000000 0.000000
vn 0.000000 1.000000 0.000000
vn 0.000000 1.000000 0.000000
vn 0.000000 1.000000 0.000000
vn -0.682975 0.707146 0.183002
vn -0.682975 0.707146 0.183002
vn -0.682975 0.707146 0.183002
vn -0.682975 0.707146 0.183002
vn -0.682974 0.707147 -0.183002
vn -0.682974 0.707147 -0.183002
vn -0.682974 0.707147 -0.183002
vn -0.682974 0.707147 -0.183002
vn -0.499972 0.707147 0.499972
vn -0.499972 0.707147 0.499972
vn -0.499972 0.707147 0.499972
vn -0.499972 0.707147 0.499972
vn -0.183003 0.707143 0.682977
vn -0.183003 0.707143 0.682977
vn -0.183003 0.707143 0.682977
vn -0.183003 0.707143 0.682977
vn 0.183003 0.707143 0.682977
vn 0.183003 0.707143 0.682977
vn 0.183003 0.707143 0.682977
vn 0.183003 0.707143 0.682977
vn 0.499972 0.707146 0.499972
vn 0.499972 0.707146 0.499972
vn 0.499972 0.707146 0.499972
vn 0.499972 0.707146 0.499972
vn 0.682974 0.707147 0.183002
vn 0.682974 0.707147 0.183002
vn 0.682974 0.707147 0.183002
vn 0.682974 0.707147 0.183002
vn 0.682973 0.707148 -0.183002
vn 0.682973 0.707148 -0.183002
vn 0.682973 0.707148 -0.183002
vn 0.682973 0.707148 -0.183002
vn 0.499971 0.707148 -0.499970
vn 0.499971 0.707148 -0.499970
vn 0.499971 0.707148 -0.499970
vn 0.499971 0.707148 -0.499970
vn 0.183002 0.707144 -0.682977
vn 0.183002 0.707144 -0.682977
vn 0.183002 0.707144 -0.682977
vn 0.183002 0.707143 -0.682977
vn -0.183003 0.707144 -0.682977
vn -0.183003 0.707144 -0.682977
vn -0.183003 0.707144 -0.682977
vn -0.183003 0.707144 -0.682977
vn -0.499971 0.707148 -0.499970
vn -0.499971 0.707148 -0.499970
vn -0.499971 0.707148 -0.499970
vn -0.499971 0.707148 -0.499970
vn 0.682975 0.707146 -0.183002
vn 0.682975 0.707146 -0.183002
vn 0.682975 0.707146 -0.183002
vn 0.682975 0.707146 -0.183002
vn 0.682975 0.707146 0.183002
vn 0.682975 0.707146 0.183002
vn 0.682975 0.707146 0.183002
vn 0.682975 0.707146 0.183002
vn 0.499972 0.707145 -0.499973
vn 0.499972 0.707145 -0.499973
vn 0.499972 0.707145 -0.499973
vn 0.499972 0.707145 -0.499973
vn 0.183003 0.707146 -0.682975
vn 0.183003 0.707146 -0.682975
vn 0.183003 0.707146 -0.682975
vn 0.183003 0.707146 -0.682975
vn -0.183003 0.707146 -0.682975
vn -0.183003 0.707146 -0.682975
vn -0.183003 0.707146 -0.682975
vn -0.183003 0.707146 -0.682975
vn -0.499973 0.707144 -0.499975
vn -0.499973 0.707144 -0.499975
vn -0.499973 0.707144 -0.499975
vn -0.499973 0.707144 -0.499975
vn -0.682977 0.707143 -0.183003
vn -0.682977 0.707143 -0.183003
vn -0.682977 0.707143 -0.183003
vn -0.682977 0.707143 -0.183003
vn -0.682977 0.707144 0.183003
vn -0.682977 0.707144 0.183003
vn -0.682977 0.707144 0.183003
vn -0.682977 0.707144 0.183003
vn -0.499973 0.707145 0.499974
vn -0.499973 0.707145 0.499974
vn -0.499973 0.707145 0.499974
vn -0.499973 0.707145 0.499974
vn -0.183002 0.707148 0.682973
vn -0.183002 0.707148 0.682973
vn -0.183002 0.707148 0.682973
vn -0.183002 0.707148 0.682973
vn 0.183002 0.707148 0.682972
vn 0.183002 0.707149 0.682972
vn 0.183002 0.707148 0.682972
vn 0.183002 0.707148 0.682972
vn 0.499972 0.707145 0.499974
vn 0.499972 0.707145 0.499974
vn 0.499972 0.707145 0.499974
vn 0.499972 0.707145 0.499974
vn -0.965926 0.000000 0.258819
vn -0.965926 0.000000 0.258819
vn -0.965926 0.000000 0.258819
vn -0.965926 0.000000 0.258819
vn -0.707107 0.000000 0.707106
vn -0.707107 0.000000 0.707106
vn -0.707107 0.000000 0.707106
vn -0.707107 0.000000 0.707106
vn -0.258820 0.000000 0.965926
vn -0.258820 0.000000 0.965926
vn -0.258820 0.000000 0.965926
vn -0.258820 0.000000 0.965926
vn 0.258820 0.000000 0.965926
vn 0.258820 0.000000 0.965926
vn 0.258820 0.000000 0.965926
vn 0.258820 0.000000 0.965926
vn 0.707107 0.000000 0.707107
vn 0.707107 0.000000 0.707107
vn 0.707107 0.000000 0.707107
vn 0.707107 0.000000 0.707107
vn 0.965926 0.000000 0.258819
vn 0.965926 0.000000 0.258819
vn 0.965926 0.000000 0.258819
vn 0.965926 0.000000 0.258819
vn 0.965926 0.000000 -0.258820
vn 0.965926 0.000000 -0.258820
vn 0.965926 0.000000 -0.258820
vn 0.965926 0.000000 -0.258820
vn 0.707108 0.000000 -0.707106
vn 0.707108 0.000000 -0.707106
vn 0.707108 0.000000 -0.707106
vn 0.707108 0.000000 -0.707106
vn 0.258818 0.000000 -0.965926
vn 0.258818 0.000000 -0.965926
vn 0.258818 0.000000 -0.965926
vn 0.258818 0.000000 -0.965926
vn -0.258819 0.000000 -0.965926
vn -0.258819 0.000000 -0.965926
vn -0.258819 0.000000 -0.965926
vn -0.258819 0.000000 -0.965926
vn -0.707108 0.000000 -0.707106
vn -0.707108 0.000000 -0.707106
vn -0.707108 0.000000 -0.707106
vn -0.707108 0.000000 -0.707106
vn -0.965926 0.000000 -0.258820
vn -0.965926 0.000000 -0.258820
vn -0.965926 0.000000 -0.258820
vn -0.965926 0.000000 -0.258820
vn 0.965926 0.000000 -0.258819
vn 0.965926 0.000000 -0.258819
vn 0.965926 0.000000 -0.258819
vn 0.965926 0.000000 -0.258819
vn 0.707106 0.000000 -0.707107
vn 0.707106 0.000000 -0.707107
vn 0.707106 0.000000 -0.707107
vn 0.707106 0.000000 -0.707107
vn 0.258819 0.000000 -0.965926
vn 0.258819 0.000000 -0.965926
vn 0.258819 0.000000 -0.965926
vn 0.258819 0.000000 -0.965926
vn -0.258819 0.000000 -0.965926
vn -0.258819 0.000000 -0.965926
vn -0.258819 0.000000 -0.965926
vn -0.258819 0.000000 -0.965926
vn -0.707106 0.000000 -0.707107
vn -0.707106 0.000000 -0.707107
vn -0.707106 0.000000 -0.707107
vn -0.707106 0.000000 -0.707107
vn -0.965926 0.000000 -0.258819
vn -0.965926 0.000000 -0.258819
vn -0.965926 0.000000 -0.258819
vn -0.965926 0.000000 -0.258819
vn -0.965926 0.000000 0.258819
vn -0.965926 0.000000 0.258819
vn -0.965926 0.000000 0.258819
vn -0.965926 0.000000 0.258819
vn -0.707106 0.000000 0.707107
vn -0.707106 0.000000 0.707107
vn -0.707106 0.000000 0.707107
vn -0.707106 0.000000 0.707107
vn -0.258819 0.000000 0.965926
vn -0.258819 0.000000 0.965926
vn -0.258819 0.000000 0.965926
vn -0.258819 0.000000 0.965926
vn 0.258819 0.000000 0.965926
vn 0.258819 0.000000 0.965926
vn 0.258819 0.000000 0.965926
vn 0.258819 0.000000 0.965926
vn 0.707106 0.000000 0.707107
vn 0.707106 0.000000 0.707107
vn 0.707106 0.000000 0.707107
vn 0.707106 0.000000 0.707107
vn 0.965926 0.000000 0.258819
vn 0.965926 0.000000 0.258819
vn 0.965926 0.000000 0.258819
vn 0.965926 0.000000 0.258819
s off
f 26/1/1 25/2/2 1/3/3 2/4/4
f 27/5/5 26/1/6 2/4/7 3/72/8
f 28/80/9 27/5/10 3/72/11 4/71/12
f 29/8/13 28/6/14 4/7/15 5/9/16
f 30/10/17 29/8/18 5/9/19 6/11/20
f 31/12/21 30/10/22 6/11/23 7/13/24
f 32/14/25 31/12/26 7/13/27 8/15/28
f 33/16/29 32/14/30 8/15/31 9/17/32
f 34/18/33 33/16/34 9/17/35 10/19/36
f 35/20/37 34/18/38 10/19/39 11/21/40
f 36/22/41 35/20/42 11/21/43 12/23/44
f 25/2/45 36/22/46 12/23/47 1/3/48
f 2/4/49 1/3/50 37/24/51
f 13/25/52 14/26/53 38/27/54
f 3/72/55 2/4/56 37/24/57
f 14/26/58 15/77/59 38/27/60
f 4/71/61 3/72/62 37/24/63
f 15/77/64 16/73/65 38/27/66
f 5/9/67 4/7/68 37/24/69
f 16/28/70 17/29/71 38/27/72
f 6/11/73 5/9/74 37/24/75
f 17/29/76 18/30/77 38/27/78
f 7/13/79 6/11/80 37/24/81
f 18/30/82 19/31/83 38/27/84
f 8/15/85 7/13/86 37/24/87
f 19/31/88 20/32/89 38/27/90
f 9/17/91 8/15/92 37/24/93
f 20/32/94 21/33/95 38/27/96
f 10/19/97 9/17/98 37/24/99
f 21/33/100 22/34/101 38/27/102
f 11/21/103 10/19/104 37/24/105
f 22/34/106 23/35/107 38/27/108
f 12/23/109 11/21/110 37/24/111
f 23/35/112 24/36/113 38/27/114
f 1/3/115 12/23/116 37/24/117
f 24/36/118 13/25/119 38/27/120
f 39/37/121 40/38/122 42/39/123 41/40/124
f 40/38/125 39/37/126 61/41/127 62/42/128
f 41/40/129 42/39/130 44/76/131 43/43/132
f 43/43/133 44/76/134 46/74/135 45/78/136
f 45/45/137 46/44/138 48/46/139 47/47/140
f 47/47/141 48/46/142 50/48/143 49/49/144
f 49/49/145 50/48/146 52/50/147 51/51/148
f 51/51/149 52/50/150 54/52/151 53/53/152
f 53/53/153 54/52/154 56/54/155 55/55/156
f 55/55/157 56/54/158 58/56/159 57/57/160
f 57/57/161 58/56/162 60/58/163 59/59/164
f 59/59/165 60/58/166 62/42/167 61/41/168
f 40/38/169 63/60/170 64/61/171 42/39/172
f 63/60/173 40/38/174 62/42/175 74/62/176
f 42/39/177 64/61/178 65/79/179 44/76/180
f 44/76/181 65/79/182 66/75/183 46/74/184
f 46/44/185 66/63/186 67/64/187 48/46/188
f 48/46/189 67/64/190 68/65/191 50/48/192
f 50/48/193 68/65/194 69/66/195 52/50/196
f 52/50/197 69/66/198 70/67/199 54/52/200
f 54/52/201 70/67/202 71/68/203 56/54/204
f 56/54/205 71/68/206 72/69/207 58/56/208
f 58/56/209 72/69/210 73/70/211 60/58/212
f 60/58/213 73/70/214 74/62/215 62/42/216
f 14/26/217 13/25/218 39/37/219 41/40/220
f 15/77/221 14/26/222 41/40/223 43/43/224
f 16/73/225 15/77/226 43/43/227 45/78/228
f 17/29/229 16/28/230 45/45/231 47/47/232
f 18/30/233 17/29/234 47/47/235 49/49/236
f 19/31/237 18/30/238 49/49/239 51/51/240
f 20/32/241 19/31/242 51/51/243 53/53/244
f 21/33/245 20/32/246 53/53/247 55/55/248
f 22/34/249 21/33/250 55/55/251 57/57/252
f 23/35/253 22/34/254 57/57/255 59/59/256
f 24/36/257 23/35/258 59/59/259 61/41/260
f 13/25/261 24/36/262 61/41/263 39/37/264
f 64/61/265 63/60/266 25/2/267 26/1/268
f 65/79/269 64/61/270 26/1/271 27/5/272
f 66/75/273 65/79/274 27/5/275 28/80/276
f 67/64/277 66/63/278 28/6/279 29/8/280
f 68/65/281 67/64/282 29/8/283 30/10/284
f 69/66/285 68/65/286 30/10/287 31/12/288
f 70/67/289 69/66/290 31/12/291 32/14/292
f 71/68/293 70/67/294 32/14/295 33/16/296
f 72/69/297 71/68/298 33/16/299 34/18/300
f 73/70/301 72/69/302 34/18/303 35/20/304
f 74/62/305 73/70/306 35/20/307 36/22/308
f 63/60/309 74/62/310 36/22/311 25/2/312
